%TF.GenerationSoftware,KiCad,Pcbnew,10.0.4*%
%TF.CreationDate,2026-07-08T20:02:53+00:00*%
%TF.ProjectId,NodePad,4e6f6465-5061-4642-9e6b-696361645f70,0.1*%
%TF.SameCoordinates,Original*%
%TF.FileFunction,Copper,L4,Bot*%
%TF.FilePolarity,Positive*%
%FSLAX46Y46*%
G04 Gerber Fmt 4.6, Leading zero omitted, Abs format (unit mm)*
G04 Created by KiCad (PCBNEW 10.0.4) date 2026-07-08 20:02:53*
%MOMM*%
%LPD*%
G01*
G04 APERTURE LIST*
G04 Aperture macros list*
%AMRoundRect*
0 Rectangle with rounded corners*
0 $1 Rounding radius*
0 $2 $3 $4 $5 $6 $7 $8 $9 X,Y pos of 4 corners*
0 Add a 4 corners polygon primitive as box body*
4,1,4,$2,$3,$4,$5,$6,$7,$8,$9,$2,$3,0*
0 Add four circle primitives for the rounded corners*
1,1,$1+$1,$2,$3*
1,1,$1+$1,$4,$5*
1,1,$1+$1,$6,$7*
1,1,$1+$1,$8,$9*
0 Add four rect primitives between the rounded corners*
20,1,$1+$1,$2,$3,$4,$5,0*
20,1,$1+$1,$4,$5,$6,$7,0*
20,1,$1+$1,$6,$7,$8,$9,0*
20,1,$1+$1,$8,$9,$2,$3,0*%
G04 Aperture macros list end*
%TA.AperFunction,ComponentPad*%
%ADD10RoundRect,0.250000X-0.350000X-0.350000X0.350000X-0.350000X0.350000X0.350000X-0.350000X0.350000X0*%
%TD*%
%TA.AperFunction,ComponentPad*%
%ADD11C,1.200000*%
%TD*%
%TA.AperFunction,ComponentPad*%
%ADD12O,1.200000X2.400000*%
%TD*%
%TA.AperFunction,ComponentPad*%
%ADD13O,1.200000X2.100000*%
%TD*%
%TA.AperFunction,ComponentPad*%
%ADD14O,3.300000X1.500000*%
%TD*%
%TA.AperFunction,ComponentPad*%
%ADD15O,2.300000X1.500000*%
%TD*%
%TA.AperFunction,ComponentPad*%
%ADD16R,1.700000X1.700000*%
%TD*%
%TA.AperFunction,ComponentPad*%
%ADD17O,1.700000X1.700000*%
%TD*%
%TA.AperFunction,ComponentPad*%
%ADD18R,1.500000X1.500000*%
%TD*%
%TA.AperFunction,ComponentPad*%
%ADD19C,1.500000*%
%TD*%
%TA.AperFunction,ComponentPad*%
%ADD20C,2.300000*%
%TD*%
%TA.AperFunction,HeatsinkPad*%
%ADD21O,1.000000X2.100000*%
%TD*%
%TA.AperFunction,HeatsinkPad*%
%ADD22O,1.000000X1.600000*%
%TD*%
%TA.AperFunction,ComponentPad*%
%ADD23RoundRect,0.250000X-0.550000X-0.550000X0.550000X-0.550000X0.550000X0.550000X-0.550000X0.550000X0*%
%TD*%
%TA.AperFunction,ComponentPad*%
%ADD24C,1.600000*%
%TD*%
G04 APERTURE END LIST*
D10*
%TO.P,J10,1*%
%TO.N,N/C*%
X48500000Y-89000000D03*
D11*
%TO.P,J10,2*%
X51000000Y-89000000D03*
%TO.P,J10,3*%
X53000000Y-89000000D03*
%TO.P,J10,4*%
X55500000Y-89000000D03*
%TO.P,J10,5*%
X56000000Y-87500000D03*
%TO.P,J10,6*%
X54000000Y-87500000D03*
%TO.P,J10,7*%
X52000000Y-87500000D03*
%TO.P,J10,8*%
X50000000Y-87500000D03*
%TO.P,J10,9*%
X48000000Y-87500000D03*
D12*
%TO.P,J10,10*%
X45600000Y-88250000D03*
D13*
X45600000Y-96750000D03*
D12*
X58400000Y-88250000D03*
D13*
X58400000Y-96750000D03*
%TD*%
D10*
%TO.P,J11,1*%
%TO.N,N/C*%
X54000000Y-89000000D03*
D11*
%TO.P,J11,2*%
X56500000Y-89000000D03*
%TO.P,J11,3*%
X58500000Y-89000000D03*
%TO.P,J11,4*%
X61000000Y-89000000D03*
%TO.P,J11,5*%
X61500000Y-87500000D03*
%TO.P,J11,6*%
X59500000Y-87500000D03*
%TO.P,J11,7*%
X57500000Y-87500000D03*
%TO.P,J11,8*%
X55500000Y-87500000D03*
%TO.P,J11,9*%
X53500000Y-87500000D03*
D12*
%TO.P,J11,10*%
X51100000Y-88250000D03*
D13*
X51100000Y-96750000D03*
D12*
X63900000Y-88250000D03*
D13*
X63900000Y-96750000D03*
%TD*%
D14*
%TO.P,J12,SH*%
%TO.N,N/C*%
X56975000Y-81750000D03*
X56975000Y-96250000D03*
D15*
X62935000Y-81750000D03*
X62935000Y-96250000D03*
%TD*%
D16*
%TO.P,J13,1*%
%TO.N,N/C*%
X65000000Y-89000000D03*
D17*
%TO.P,J13,2*%
X67540000Y-89000000D03*
%TO.P,J13,3*%
X65000000Y-91540000D03*
%TO.P,J13,4*%
X67540000Y-91540000D03*
%TO.P,J13,5*%
X65000000Y-94080000D03*
%TO.P,J13,6*%
X67540000Y-94080000D03*
%TO.P,J13,7*%
X65000000Y-96620000D03*
%TO.P,J13,8*%
X67540000Y-96620000D03*
%TO.P,J13,9*%
X65000000Y-99160000D03*
%TO.P,J13,10*%
X67540000Y-99160000D03*
%TO.P,J13,11*%
X65000000Y-101700000D03*
%TO.P,J13,12*%
X67540000Y-101700000D03*
%TO.P,J13,13*%
X65000000Y-104240000D03*
%TO.P,J13,14*%
X67540000Y-104240000D03*
%TO.P,J13,15*%
X65000000Y-106780000D03*
%TO.P,J13,16*%
X67540000Y-106780000D03*
%TO.P,J13,17*%
X65000000Y-109320000D03*
%TO.P,J13,18*%
X67540000Y-109320000D03*
%TO.P,J13,19*%
X65000000Y-111860000D03*
%TO.P,J13,20*%
X67540000Y-111860000D03*
%TO.P,J13,21*%
X65000000Y-114400000D03*
%TO.P,J13,22*%
X67540000Y-114400000D03*
%TO.P,J13,23*%
X65000000Y-116940000D03*
%TO.P,J13,24*%
X67540000Y-116940000D03*
%TO.P,J13,25*%
X65000000Y-119480000D03*
%TO.P,J13,26*%
X67540000Y-119480000D03*
%TO.P,J13,27*%
X65000000Y-122020000D03*
%TO.P,J13,28*%
X67540000Y-122020000D03*
%TO.P,J13,29*%
X65000000Y-124560000D03*
%TO.P,J13,30*%
X67540000Y-124560000D03*
%TO.P,J13,31*%
X65000000Y-127100000D03*
%TO.P,J13,32*%
X67540000Y-127100000D03*
%TO.P,J13,33*%
X65000000Y-129640000D03*
%TO.P,J13,34*%
X67540000Y-129640000D03*
%TO.P,J13,35*%
X65000000Y-132180000D03*
%TO.P,J13,36*%
X67540000Y-132180000D03*
%TO.P,J13,37*%
X65000000Y-134720000D03*
%TO.P,J13,38*%
X67540000Y-134720000D03*
%TO.P,J13,39*%
X65000000Y-137260000D03*
%TO.P,J13,40*%
X67540000Y-137260000D03*
%TD*%
D16*
%TO.P,J15,1*%
%TO.N,N/C*%
X70500000Y-89000000D03*
D17*
%TO.P,J15,2*%
X70500000Y-91540000D03*
%TO.P,J15,3*%
X70500000Y-94080000D03*
%TO.P,J15,4*%
X70500000Y-96620000D03*
%TD*%
D18*
%TO.P,J3,1*%
%TO.N,N/C*%
X81500000Y-89000000D03*
D19*
%TO.P,J3,2*%
X82516000Y-90780000D03*
%TO.P,J3,3*%
X83532000Y-89000000D03*
%TO.P,J3,4*%
X84548000Y-90780000D03*
%TO.P,J3,5*%
X85564000Y-89000000D03*
%TO.P,J3,6*%
X86580000Y-90780000D03*
%TO.P,J3,7*%
X87596000Y-89000000D03*
%TO.P,J3,8*%
X88612000Y-90780000D03*
%TO.P,J3,9*%
X78200000Y-95600000D03*
%TO.P,J3,10*%
X80490000Y-95600000D03*
%TO.P,J3,11*%
X89630000Y-95600000D03*
%TO.P,J3,12*%
X91920000Y-95600000D03*
%TO.P,J3,13*%
X97250000Y-89000000D03*
%TO.P,J3,14*%
X98266000Y-90780000D03*
%TO.P,J3,15*%
X99282000Y-89000000D03*
%TO.P,J3,16*%
X100298000Y-90780000D03*
%TO.P,J3,17*%
X101314000Y-89000000D03*
%TO.P,J3,18*%
X102330000Y-90780000D03*
%TO.P,J3,19*%
X103346000Y-89000000D03*
%TO.P,J3,20*%
X104362000Y-90780000D03*
%TO.P,J3,21*%
X93950000Y-95600000D03*
%TO.P,J3,22*%
X96240000Y-95600000D03*
%TO.P,J3,23*%
X105380000Y-95600000D03*
%TO.P,J3,24*%
X107670000Y-95600000D03*
D20*
%TO.P,J3,SH*%
X76930000Y-89890000D03*
X108930000Y-89890000D03*
%TD*%
D18*
%TO.P,J4,1*%
%TO.N,N/C*%
X87000000Y-89000000D03*
D19*
%TO.P,J4,2*%
X88016000Y-90780000D03*
%TO.P,J4,3*%
X89032000Y-89000000D03*
%TO.P,J4,4*%
X90048000Y-90780000D03*
%TO.P,J4,5*%
X91064000Y-89000000D03*
%TO.P,J4,6*%
X92080000Y-90780000D03*
%TO.P,J4,7*%
X93096000Y-89000000D03*
%TO.P,J4,8*%
X94112000Y-90780000D03*
%TO.P,J4,9*%
X83700000Y-95600000D03*
%TO.P,J4,10*%
X85990000Y-95600000D03*
%TO.P,J4,11*%
X95130000Y-95600000D03*
%TO.P,J4,12*%
X97420000Y-95600000D03*
%TO.P,J4,13*%
X102750000Y-89000000D03*
%TO.P,J4,14*%
X103766000Y-90780000D03*
%TO.P,J4,15*%
X104782000Y-89000000D03*
%TO.P,J4,16*%
X105798000Y-90780000D03*
%TO.P,J4,17*%
X106814000Y-89000000D03*
%TO.P,J4,18*%
X107830000Y-90780000D03*
%TO.P,J4,19*%
X108846000Y-89000000D03*
%TO.P,J4,20*%
X109862000Y-90780000D03*
%TO.P,J4,21*%
X99450000Y-95600000D03*
%TO.P,J4,22*%
X101740000Y-95600000D03*
%TO.P,J4,23*%
X110880000Y-95600000D03*
%TO.P,J4,24*%
X113170000Y-95600000D03*
D20*
%TO.P,J4,SH*%
X82430000Y-89890000D03*
X114430000Y-89890000D03*
%TD*%
D21*
%TO.P,J7,S1*%
%TO.N,N/C*%
X11180000Y-91370000D03*
D22*
X11180000Y-95550000D03*
D21*
X19820000Y-91370000D03*
D22*
X19820000Y-95550000D03*
%TD*%
D10*
%TO.P,J8,1*%
%TO.N,N/C*%
X21000000Y-94500000D03*
D11*
%TO.P,J8,2*%
X23500000Y-94500000D03*
%TO.P,J8,3*%
X25500000Y-94500000D03*
%TO.P,J8,4*%
X28000000Y-94500000D03*
%TO.P,J8,5*%
X28500000Y-93000000D03*
%TO.P,J8,6*%
X26500000Y-93000000D03*
%TO.P,J8,7*%
X24500000Y-93000000D03*
%TO.P,J8,8*%
X22500000Y-93000000D03*
%TO.P,J8,9*%
X20500000Y-93000000D03*
D12*
%TO.P,J8,10*%
X18100000Y-93750000D03*
D13*
X18100000Y-102250000D03*
D12*
X30900000Y-93750000D03*
D13*
X30900000Y-102250000D03*
%TD*%
D10*
%TO.P,J9,1*%
%TO.N,N/C*%
X26500000Y-94500000D03*
D11*
%TO.P,J9,2*%
X29000000Y-94500000D03*
%TO.P,J9,3*%
X31000000Y-94500000D03*
%TO.P,J9,4*%
X33500000Y-94500000D03*
%TO.P,J9,5*%
X34000000Y-93000000D03*
%TO.P,J9,6*%
X32000000Y-93000000D03*
%TO.P,J9,7*%
X30000000Y-93000000D03*
%TO.P,J9,8*%
X28000000Y-93000000D03*
%TO.P,J9,9*%
X26000000Y-93000000D03*
D12*
%TO.P,J9,10*%
X23600000Y-93750000D03*
D13*
X23600000Y-102250000D03*
D12*
X36400000Y-93750000D03*
D13*
X36400000Y-102250000D03*
%TD*%
D23*
%TO.P,T1,1*%
%TO.N,N/C*%
X21000000Y-122000000D03*
D24*
%TO.P,T1,2*%
X21000000Y-124540000D03*
%TO.P,T1,3*%
X21000000Y-127080000D03*
%TO.P,T1,4*%
X21000000Y-129620000D03*
%TO.P,T1,5*%
X28620000Y-129620000D03*
%TO.P,T1,6*%
X28620000Y-127080000D03*
%TO.P,T1,7*%
X28620000Y-124540000D03*
%TO.P,T1,8*%
X28620000Y-122000000D03*
%TD*%
M02*
