%TF.GenerationSoftware,KiCad,Pcbnew,10.0.4*%
%TF.CreationDate,2026-07-08T20:03:10+00:00*%
%TF.ProjectId,NodePad,4e6f6465-5061-4642-9e6b-696361645f70,0.1*%
%TF.SameCoordinates,Original*%
%TF.FileFunction,Drillmap*%
%TF.FilePolarity,Positive*%
%FSLAX45Y45*%
G04 Gerber Fmt 4.5, Leading zero omitted, Abs format (unit mm)*
G04 Created by KiCad (PCBNEW 10.0.4) date 2026-07-08 20:03:10*
%MOMM*%
%LPD*%
G01*
G04 APERTURE LIST*
%ADD10C,0.150000*%
%ADD11C,0.200000*%
%ADD12C,0.100000*%
%ADD13C,0.157000*%
G04 APERTURE END LIST*
D10*
X0Y0D02*
X10000000Y0D01*
X10000000Y0D02*
X10000000Y-10000000D01*
X10000000Y-10000000D02*
X0Y-10000000D01*
X0Y-10000000D02*
X0Y0D01*
X485000Y-350000D02*
G75*
G02*
X215000Y-350000I-135000J0D01*
G01*
X215000Y-350000D02*
G75*
G02*
X485000Y-350000I135000J0D01*
G01*
X9785000Y-350000D02*
G75*
G02*
X9515000Y-350000I-135000J0D01*
G01*
X9515000Y-350000D02*
G75*
G02*
X9785000Y-350000I135000J0D01*
G01*
X485000Y-9650000D02*
G75*
G02*
X215000Y-9650000I-135000J0D01*
G01*
X215000Y-9650000D02*
G75*
G02*
X485000Y-9650000I135000J0D01*
G01*
X9785000Y-9650000D02*
G75*
G02*
X9515000Y-9650000I-135000J0D01*
G01*
X9515000Y-9650000D02*
G75*
G02*
X9785000Y-9650000I135000J0D01*
G01*
D11*
D12*
X1088000Y-9107000D02*
X1148000Y-9167000D01*
X1148000Y-9107000D02*
X1088000Y-9167000D01*
X1088000Y-9082000D02*
X1088000Y-9192000D01*
X1148000Y-9192000D02*
G75*
G02*
X1088000Y-9192000I-30000J0D01*
G01*
X1148000Y-9192000D02*
X1148000Y-9082000D01*
X1148000Y-9082000D02*
G75*
G03*
X1088000Y-9082000I-30000J0D01*
G01*
X1088000Y-9525000D02*
X1148000Y-9585000D01*
X1148000Y-9525000D02*
X1088000Y-9585000D01*
X1088000Y-9525000D02*
X1088000Y-9585000D01*
X1148000Y-9585000D02*
G75*
G02*
X1088000Y-9585000I-30000J0D01*
G01*
X1148000Y-9585000D02*
X1148000Y-9525000D01*
X1148000Y-9525000D02*
G75*
G03*
X1088000Y-9525000I-30000J0D01*
G01*
X1780000Y-9345000D02*
X1840000Y-9405000D01*
X1840000Y-9345000D02*
X1780000Y-9405000D01*
X1780000Y-9320000D02*
X1780000Y-9430000D01*
X1840000Y-9430000D02*
G75*
G02*
X1780000Y-9430000I-30000J0D01*
G01*
X1840000Y-9430000D02*
X1840000Y-9320000D01*
X1840000Y-9320000D02*
G75*
G03*
X1780000Y-9320000I-30000J0D01*
G01*
X1780000Y-10195000D02*
X1840000Y-10255000D01*
X1840000Y-10195000D02*
X1780000Y-10255000D01*
X1780000Y-10185000D02*
X1780000Y-10265000D01*
X1840000Y-10265000D02*
G75*
G02*
X1780000Y-10265000I-30000J0D01*
G01*
X1840000Y-10265000D02*
X1840000Y-10185000D01*
X1840000Y-10185000D02*
G75*
G03*
X1780000Y-10185000I-30000J0D01*
G01*
X1952000Y-9107000D02*
X2012000Y-9167000D01*
X2012000Y-9107000D02*
X1952000Y-9167000D01*
X1952000Y-9082000D02*
X1952000Y-9192000D01*
X2012000Y-9192000D02*
G75*
G02*
X1952000Y-9192000I-30000J0D01*
G01*
X2012000Y-9192000D02*
X2012000Y-9082000D01*
X2012000Y-9082000D02*
G75*
G03*
X1952000Y-9082000I-30000J0D01*
G01*
X1952000Y-9525000D02*
X2012000Y-9585000D01*
X2012000Y-9525000D02*
X1952000Y-9585000D01*
X1952000Y-9525000D02*
X1952000Y-9585000D01*
X2012000Y-9585000D02*
G75*
G02*
X1952000Y-9585000I-30000J0D01*
G01*
X2012000Y-9585000D02*
X2012000Y-9525000D01*
X2012000Y-9525000D02*
G75*
G03*
X1952000Y-9525000I-30000J0D01*
G01*
X2330000Y-9345000D02*
X2390000Y-9405000D01*
X2390000Y-9345000D02*
X2330000Y-9405000D01*
X2330000Y-9320000D02*
X2330000Y-9430000D01*
X2390000Y-9430000D02*
G75*
G02*
X2330000Y-9430000I-30000J0D01*
G01*
X2390000Y-9430000D02*
X2390000Y-9320000D01*
X2390000Y-9320000D02*
G75*
G03*
X2330000Y-9320000I-30000J0D01*
G01*
X2330000Y-10195000D02*
X2390000Y-10255000D01*
X2390000Y-10195000D02*
X2330000Y-10255000D01*
X2330000Y-10185000D02*
X2330000Y-10265000D01*
X2390000Y-10265000D02*
G75*
G02*
X2330000Y-10265000I-30000J0D01*
G01*
X2390000Y-10265000D02*
X2390000Y-10185000D01*
X2390000Y-10185000D02*
G75*
G03*
X2330000Y-10185000I-30000J0D01*
G01*
X3060000Y-9345000D02*
X3120000Y-9405000D01*
X3120000Y-9345000D02*
X3060000Y-9405000D01*
X3060000Y-9320000D02*
X3060000Y-9430000D01*
X3120000Y-9430000D02*
G75*
G02*
X3060000Y-9430000I-30000J0D01*
G01*
X3120000Y-9430000D02*
X3120000Y-9320000D01*
X3120000Y-9320000D02*
G75*
G03*
X3060000Y-9320000I-30000J0D01*
G01*
X3060000Y-10195000D02*
X3120000Y-10255000D01*
X3120000Y-10195000D02*
X3060000Y-10255000D01*
X3060000Y-10185000D02*
X3060000Y-10265000D01*
X3120000Y-10265000D02*
G75*
G02*
X3060000Y-10265000I-30000J0D01*
G01*
X3120000Y-10265000D02*
X3120000Y-10185000D01*
X3120000Y-10185000D02*
G75*
G03*
X3060000Y-10185000I-30000J0D01*
G01*
X3610000Y-9345000D02*
X3670000Y-9405000D01*
X3670000Y-9345000D02*
X3610000Y-9405000D01*
X3610000Y-9320000D02*
X3610000Y-9430000D01*
X3670000Y-9430000D02*
G75*
G02*
X3610000Y-9430000I-30000J0D01*
G01*
X3670000Y-9430000D02*
X3670000Y-9320000D01*
X3670000Y-9320000D02*
G75*
G03*
X3610000Y-9320000I-30000J0D01*
G01*
X3610000Y-10195000D02*
X3670000Y-10255000D01*
X3670000Y-10195000D02*
X3610000Y-10255000D01*
X3610000Y-10185000D02*
X3610000Y-10265000D01*
X3670000Y-10265000D02*
G75*
G02*
X3610000Y-10265000I-30000J0D01*
G01*
X3670000Y-10265000D02*
X3670000Y-10185000D01*
X3670000Y-10185000D02*
G75*
G03*
X3610000Y-10185000I-30000J0D01*
G01*
X4530000Y-8795000D02*
X4590000Y-8855000D01*
X4590000Y-8795000D02*
X4530000Y-8855000D01*
X4530000Y-8770000D02*
X4530000Y-8880000D01*
X4590000Y-8880000D02*
G75*
G02*
X4530000Y-8880000I-30000J0D01*
G01*
X4590000Y-8880000D02*
X4590000Y-8770000D01*
X4590000Y-8770000D02*
G75*
G03*
X4530000Y-8770000I-30000J0D01*
G01*
X4530000Y-9645000D02*
X4590000Y-9705000D01*
X4590000Y-9645000D02*
X4530000Y-9705000D01*
X4530000Y-9635000D02*
X4530000Y-9715000D01*
X4590000Y-9715000D02*
G75*
G02*
X4530000Y-9715000I-30000J0D01*
G01*
X4590000Y-9715000D02*
X4590000Y-9635000D01*
X4590000Y-9635000D02*
G75*
G03*
X4530000Y-9635000I-30000J0D01*
G01*
X5080000Y-8795000D02*
X5140000Y-8855000D01*
X5140000Y-8795000D02*
X5080000Y-8855000D01*
X5080000Y-8770000D02*
X5080000Y-8880000D01*
X5140000Y-8880000D02*
G75*
G02*
X5080000Y-8880000I-30000J0D01*
G01*
X5140000Y-8880000D02*
X5140000Y-8770000D01*
X5140000Y-8770000D02*
G75*
G03*
X5080000Y-8770000I-30000J0D01*
G01*
X5080000Y-9645000D02*
X5140000Y-9705000D01*
X5140000Y-9645000D02*
X5080000Y-9705000D01*
X5080000Y-9635000D02*
X5080000Y-9715000D01*
X5140000Y-9715000D02*
G75*
G02*
X5080000Y-9715000I-30000J0D01*
G01*
X5140000Y-9715000D02*
X5140000Y-9635000D01*
X5140000Y-9635000D02*
G75*
G03*
X5080000Y-9635000I-30000J0D01*
G01*
X5810000Y-8795000D02*
X5870000Y-8855000D01*
X5870000Y-8795000D02*
X5810000Y-8855000D01*
X5810000Y-8770000D02*
X5810000Y-8880000D01*
X5870000Y-8880000D02*
G75*
G02*
X5810000Y-8880000I-30000J0D01*
G01*
X5870000Y-8880000D02*
X5870000Y-8770000D01*
X5870000Y-8770000D02*
G75*
G03*
X5810000Y-8770000I-30000J0D01*
G01*
X5810000Y-9645000D02*
X5870000Y-9705000D01*
X5870000Y-9645000D02*
X5810000Y-9705000D01*
X5810000Y-9635000D02*
X5810000Y-9715000D01*
X5870000Y-9715000D02*
G75*
G02*
X5810000Y-9715000I-30000J0D01*
G01*
X5870000Y-9715000D02*
X5870000Y-9635000D01*
X5870000Y-9635000D02*
G75*
G03*
X5810000Y-9635000I-30000J0D01*
G01*
X6360000Y-8795000D02*
X6420000Y-8855000D01*
X6420000Y-8795000D02*
X6360000Y-8855000D01*
X6360000Y-8770000D02*
X6360000Y-8880000D01*
X6420000Y-8880000D02*
G75*
G02*
X6360000Y-8880000I-30000J0D01*
G01*
X6420000Y-8880000D02*
X6420000Y-8770000D01*
X6420000Y-8770000D02*
G75*
G03*
X6360000Y-8770000I-30000J0D01*
G01*
X6360000Y-9645000D02*
X6420000Y-9705000D01*
X6420000Y-9645000D02*
X6360000Y-9705000D01*
X6360000Y-9635000D02*
X6360000Y-9715000D01*
X6420000Y-9715000D02*
G75*
G02*
X6360000Y-9715000I-30000J0D01*
G01*
X6420000Y-9715000D02*
X6420000Y-9635000D01*
X6420000Y-9635000D02*
G75*
G03*
X6360000Y-9635000I-30000J0D01*
G01*
X2085000Y-9300000D02*
G75*
G02*
X2015000Y-9300000I-35000J0D01*
G01*
X2015000Y-9300000D02*
G75*
G02*
X2085000Y-9300000I35000J0D01*
G01*
X2135000Y-9450000D02*
G75*
G02*
X2065000Y-9450000I-35000J0D01*
G01*
X2065000Y-9450000D02*
G75*
G02*
X2135000Y-9450000I35000J0D01*
G01*
X2285000Y-9300000D02*
G75*
G02*
X2215000Y-9300000I-35000J0D01*
G01*
X2215000Y-9300000D02*
G75*
G02*
X2285000Y-9300000I35000J0D01*
G01*
X2385000Y-9450000D02*
G75*
G02*
X2315000Y-9450000I-35000J0D01*
G01*
X2315000Y-9450000D02*
G75*
G02*
X2385000Y-9450000I35000J0D01*
G01*
X2485000Y-9300000D02*
G75*
G02*
X2415000Y-9300000I-35000J0D01*
G01*
X2415000Y-9300000D02*
G75*
G02*
X2485000Y-9300000I35000J0D01*
G01*
X2585000Y-9450000D02*
G75*
G02*
X2515000Y-9450000I-35000J0D01*
G01*
X2515000Y-9450000D02*
G75*
G02*
X2585000Y-9450000I35000J0D01*
G01*
X2635000Y-9300000D02*
G75*
G02*
X2565000Y-9300000I-35000J0D01*
G01*
X2565000Y-9300000D02*
G75*
G02*
X2635000Y-9300000I35000J0D01*
G01*
X2685000Y-9300000D02*
G75*
G02*
X2615000Y-9300000I-35000J0D01*
G01*
X2615000Y-9300000D02*
G75*
G02*
X2685000Y-9300000I35000J0D01*
G01*
X2685000Y-9450000D02*
G75*
G02*
X2615000Y-9450000I-35000J0D01*
G01*
X2615000Y-9450000D02*
G75*
G02*
X2685000Y-9450000I35000J0D01*
G01*
X2835000Y-9300000D02*
G75*
G02*
X2765000Y-9300000I-35000J0D01*
G01*
X2765000Y-9300000D02*
G75*
G02*
X2835000Y-9300000I35000J0D01*
G01*
X2835000Y-9450000D02*
G75*
G02*
X2765000Y-9450000I-35000J0D01*
G01*
X2765000Y-9450000D02*
G75*
G02*
X2835000Y-9450000I35000J0D01*
G01*
X2885000Y-9300000D02*
G75*
G02*
X2815000Y-9300000I-35000J0D01*
G01*
X2815000Y-9300000D02*
G75*
G02*
X2885000Y-9300000I35000J0D01*
G01*
X2935000Y-9450000D02*
G75*
G02*
X2865000Y-9450000I-35000J0D01*
G01*
X2865000Y-9450000D02*
G75*
G02*
X2935000Y-9450000I35000J0D01*
G01*
X3035000Y-9300000D02*
G75*
G02*
X2965000Y-9300000I-35000J0D01*
G01*
X2965000Y-9300000D02*
G75*
G02*
X3035000Y-9300000I35000J0D01*
G01*
X3135000Y-9450000D02*
G75*
G02*
X3065000Y-9450000I-35000J0D01*
G01*
X3065000Y-9450000D02*
G75*
G02*
X3135000Y-9450000I35000J0D01*
G01*
X3235000Y-9300000D02*
G75*
G02*
X3165000Y-9300000I-35000J0D01*
G01*
X3165000Y-9300000D02*
G75*
G02*
X3235000Y-9300000I35000J0D01*
G01*
X3385000Y-9450000D02*
G75*
G02*
X3315000Y-9450000I-35000J0D01*
G01*
X3315000Y-9450000D02*
G75*
G02*
X3385000Y-9450000I35000J0D01*
G01*
X3435000Y-9300000D02*
G75*
G02*
X3365000Y-9300000I-35000J0D01*
G01*
X3365000Y-9300000D02*
G75*
G02*
X3435000Y-9300000I35000J0D01*
G01*
X4835000Y-8750000D02*
G75*
G02*
X4765000Y-8750000I-35000J0D01*
G01*
X4765000Y-8750000D02*
G75*
G02*
X4835000Y-8750000I35000J0D01*
G01*
X4885000Y-8900000D02*
G75*
G02*
X4815000Y-8900000I-35000J0D01*
G01*
X4815000Y-8900000D02*
G75*
G02*
X4885000Y-8900000I35000J0D01*
G01*
X5035000Y-8750000D02*
G75*
G02*
X4965000Y-8750000I-35000J0D01*
G01*
X4965000Y-8750000D02*
G75*
G02*
X5035000Y-8750000I35000J0D01*
G01*
X5135000Y-8900000D02*
G75*
G02*
X5065000Y-8900000I-35000J0D01*
G01*
X5065000Y-8900000D02*
G75*
G02*
X5135000Y-8900000I35000J0D01*
G01*
X5235000Y-8750000D02*
G75*
G02*
X5165000Y-8750000I-35000J0D01*
G01*
X5165000Y-8750000D02*
G75*
G02*
X5235000Y-8750000I35000J0D01*
G01*
X5335000Y-8900000D02*
G75*
G02*
X5265000Y-8900000I-35000J0D01*
G01*
X5265000Y-8900000D02*
G75*
G02*
X5335000Y-8900000I35000J0D01*
G01*
X5385000Y-8750000D02*
G75*
G02*
X5315000Y-8750000I-35000J0D01*
G01*
X5315000Y-8750000D02*
G75*
G02*
X5385000Y-8750000I35000J0D01*
G01*
X5435000Y-8750000D02*
G75*
G02*
X5365000Y-8750000I-35000J0D01*
G01*
X5365000Y-8750000D02*
G75*
G02*
X5435000Y-8750000I35000J0D01*
G01*
X5435000Y-8900000D02*
G75*
G02*
X5365000Y-8900000I-35000J0D01*
G01*
X5365000Y-8900000D02*
G75*
G02*
X5435000Y-8900000I35000J0D01*
G01*
X5585000Y-8750000D02*
G75*
G02*
X5515000Y-8750000I-35000J0D01*
G01*
X5515000Y-8750000D02*
G75*
G02*
X5585000Y-8750000I35000J0D01*
G01*
X5585000Y-8900000D02*
G75*
G02*
X5515000Y-8900000I-35000J0D01*
G01*
X5515000Y-8900000D02*
G75*
G02*
X5585000Y-8900000I35000J0D01*
G01*
X5635000Y-8750000D02*
G75*
G02*
X5565000Y-8750000I-35000J0D01*
G01*
X5565000Y-8750000D02*
G75*
G02*
X5635000Y-8750000I35000J0D01*
G01*
X5685000Y-8900000D02*
G75*
G02*
X5615000Y-8900000I-35000J0D01*
G01*
X5615000Y-8900000D02*
G75*
G02*
X5685000Y-8900000I35000J0D01*
G01*
X5785000Y-8750000D02*
G75*
G02*
X5715000Y-8750000I-35000J0D01*
G01*
X5715000Y-8750000D02*
G75*
G02*
X5785000Y-8750000I35000J0D01*
G01*
X5885000Y-8900000D02*
G75*
G02*
X5815000Y-8900000I-35000J0D01*
G01*
X5815000Y-8900000D02*
G75*
G02*
X5885000Y-8900000I35000J0D01*
G01*
X5985000Y-8750000D02*
G75*
G02*
X5915000Y-8750000I-35000J0D01*
G01*
X5915000Y-8750000D02*
G75*
G02*
X5985000Y-8750000I35000J0D01*
G01*
X6135000Y-8900000D02*
G75*
G02*
X6065000Y-8900000I-35000J0D01*
G01*
X6065000Y-8900000D02*
G75*
G02*
X6135000Y-8900000I35000J0D01*
G01*
X6185000Y-8750000D02*
G75*
G02*
X6115000Y-8750000I-35000J0D01*
G01*
X6115000Y-8750000D02*
G75*
G02*
X6185000Y-8750000I35000J0D01*
G01*
X2100000Y-12160000D02*
X2100000Y-12240000D01*
X2060000Y-12200000D02*
X2140000Y-12200000D01*
X2100000Y-12414000D02*
X2100000Y-12494000D01*
X2060000Y-12454000D02*
X2140000Y-12454000D01*
X2100000Y-12668000D02*
X2100000Y-12748000D01*
X2060000Y-12708000D02*
X2140000Y-12708000D01*
X2100000Y-12922000D02*
X2100000Y-13002000D01*
X2060000Y-12962000D02*
X2140000Y-12962000D01*
X2862000Y-12160000D02*
X2862000Y-12240000D01*
X2822000Y-12200000D02*
X2902000Y-12200000D01*
X2862000Y-12414000D02*
X2862000Y-12494000D01*
X2822000Y-12454000D02*
X2902000Y-12454000D01*
X2862000Y-12668000D02*
X2862000Y-12748000D01*
X2822000Y-12708000D02*
X2902000Y-12708000D01*
X2862000Y-12922000D02*
X2862000Y-13002000D01*
X2822000Y-12962000D02*
X2902000Y-12962000D01*
X7851467Y-9591467D02*
X7851467Y-9528533D01*
X7788533Y-9528533D01*
X7788533Y-9591467D01*
X7851467Y-9591467D01*
X8080467Y-9591467D02*
X8080467Y-9528533D01*
X8017533Y-9528533D01*
X8017533Y-9591467D01*
X8080467Y-9591467D01*
X8181467Y-8931467D02*
X8181467Y-8868533D01*
X8118533Y-8868533D01*
X8118533Y-8931467D01*
X8181467Y-8931467D01*
X8283067Y-9109467D02*
X8283067Y-9046533D01*
X8220133Y-9046533D01*
X8220133Y-9109467D01*
X8283067Y-9109467D01*
X8384667Y-8931467D02*
X8384667Y-8868533D01*
X8321733Y-8868533D01*
X8321733Y-8931467D01*
X8384667Y-8931467D01*
X8401467Y-9591467D02*
X8401467Y-9528533D01*
X8338533Y-9528533D01*
X8338533Y-9591467D01*
X8401467Y-9591467D01*
X8486267Y-9109467D02*
X8486267Y-9046533D01*
X8423333Y-9046533D01*
X8423333Y-9109467D01*
X8486267Y-9109467D01*
X8587867Y-8931467D02*
X8587867Y-8868533D01*
X8524933Y-8868533D01*
X8524933Y-8931467D01*
X8587867Y-8931467D01*
X8630467Y-9591467D02*
X8630467Y-9528533D01*
X8567533Y-9528533D01*
X8567533Y-9591467D01*
X8630467Y-9591467D01*
X8689467Y-9109467D02*
X8689467Y-9046533D01*
X8626533Y-9046533D01*
X8626533Y-9109467D01*
X8689467Y-9109467D01*
X8731467Y-8931467D02*
X8731467Y-8868533D01*
X8668533Y-8868533D01*
X8668533Y-8931467D01*
X8731467Y-8931467D01*
X8791067Y-8931467D02*
X8791067Y-8868533D01*
X8728133Y-8868533D01*
X8728133Y-8931467D01*
X8791067Y-8931467D01*
X8833067Y-9109467D02*
X8833067Y-9046533D01*
X8770133Y-9046533D01*
X8770133Y-9109467D01*
X8833067Y-9109467D01*
X8892667Y-9109467D02*
X8892667Y-9046533D01*
X8829733Y-9046533D01*
X8829733Y-9109467D01*
X8892667Y-9109467D01*
X8934667Y-8931467D02*
X8934667Y-8868533D01*
X8871733Y-8868533D01*
X8871733Y-8931467D01*
X8934667Y-8931467D01*
X8994467Y-9591467D02*
X8994467Y-9528533D01*
X8931533Y-9528533D01*
X8931533Y-9591467D01*
X8994467Y-9591467D01*
X9036267Y-9109467D02*
X9036267Y-9046533D01*
X8973333Y-9046533D01*
X8973333Y-9109467D01*
X9036267Y-9109467D01*
X9137867Y-8931467D02*
X9137867Y-8868533D01*
X9074933Y-8868533D01*
X9074933Y-8931467D01*
X9137867Y-8931467D01*
X9223467Y-9591467D02*
X9223467Y-9528533D01*
X9160533Y-9528533D01*
X9160533Y-9591467D01*
X9223467Y-9591467D01*
X9239467Y-9109467D02*
X9239467Y-9046533D01*
X9176533Y-9046533D01*
X9176533Y-9109467D01*
X9239467Y-9109467D01*
X9341067Y-8931467D02*
X9341067Y-8868533D01*
X9278133Y-8868533D01*
X9278133Y-8931467D01*
X9341067Y-8931467D01*
X9426467Y-9591467D02*
X9426467Y-9528533D01*
X9363533Y-9528533D01*
X9363533Y-9591467D01*
X9426467Y-9591467D01*
X9442667Y-9109467D02*
X9442667Y-9046533D01*
X9379733Y-9046533D01*
X9379733Y-9109467D01*
X9442667Y-9109467D01*
X9544467Y-9591467D02*
X9544467Y-9528533D01*
X9481533Y-9528533D01*
X9481533Y-9591467D01*
X9544467Y-9591467D01*
X9655467Y-9591467D02*
X9655467Y-9528533D01*
X9592533Y-9528533D01*
X9592533Y-9591467D01*
X9655467Y-9591467D01*
X9756467Y-8931467D02*
X9756467Y-8868533D01*
X9693533Y-8868533D01*
X9693533Y-8931467D01*
X9756467Y-8931467D01*
X9773467Y-9591467D02*
X9773467Y-9528533D01*
X9710533Y-9528533D01*
X9710533Y-9591467D01*
X9773467Y-9591467D01*
X9858067Y-9109467D02*
X9858067Y-9046533D01*
X9795133Y-9046533D01*
X9795133Y-9109467D01*
X9858067Y-9109467D01*
X9959667Y-8931467D02*
X9959667Y-8868533D01*
X9896733Y-8868533D01*
X9896733Y-8931467D01*
X9959667Y-8931467D01*
X9976467Y-9591467D02*
X9976467Y-9528533D01*
X9913533Y-9528533D01*
X9913533Y-9591467D01*
X9976467Y-9591467D01*
X10061267Y-9109467D02*
X10061267Y-9046533D01*
X9998333Y-9046533D01*
X9998333Y-9109467D01*
X10061267Y-9109467D01*
X10162867Y-8931467D02*
X10162867Y-8868533D01*
X10099933Y-8868533D01*
X10099933Y-8931467D01*
X10162867Y-8931467D01*
X10205467Y-9591467D02*
X10205467Y-9528533D01*
X10142533Y-9528533D01*
X10142533Y-9591467D01*
X10205467Y-9591467D01*
X10264467Y-9109467D02*
X10264467Y-9046533D01*
X10201533Y-9046533D01*
X10201533Y-9109467D01*
X10264467Y-9109467D01*
X10306467Y-8931467D02*
X10306467Y-8868533D01*
X10243533Y-8868533D01*
X10243533Y-8931467D01*
X10306467Y-8931467D01*
X10366067Y-8931467D02*
X10366067Y-8868533D01*
X10303133Y-8868533D01*
X10303133Y-8931467D01*
X10366067Y-8931467D01*
X10408067Y-9109467D02*
X10408067Y-9046533D01*
X10345133Y-9046533D01*
X10345133Y-9109467D01*
X10408067Y-9109467D01*
X10467667Y-9109467D02*
X10467667Y-9046533D01*
X10404733Y-9046533D01*
X10404733Y-9109467D01*
X10467667Y-9109467D01*
X10509667Y-8931467D02*
X10509667Y-8868533D01*
X10446733Y-8868533D01*
X10446733Y-8931467D01*
X10509667Y-8931467D01*
X10569467Y-9591467D02*
X10569467Y-9528533D01*
X10506533Y-9528533D01*
X10506533Y-9591467D01*
X10569467Y-9591467D01*
X10611267Y-9109467D02*
X10611267Y-9046533D01*
X10548333Y-9046533D01*
X10548333Y-9109467D01*
X10611267Y-9109467D01*
X10712867Y-8931467D02*
X10712867Y-8868533D01*
X10649933Y-8868533D01*
X10649933Y-8931467D01*
X10712867Y-8931467D01*
X10798467Y-9591467D02*
X10798467Y-9528533D01*
X10735533Y-9528533D01*
X10735533Y-9591467D01*
X10798467Y-9591467D01*
X10814467Y-9109467D02*
X10814467Y-9046533D01*
X10751533Y-9046533D01*
X10751533Y-9109467D01*
X10814467Y-9109467D01*
X10916067Y-8931467D02*
X10916067Y-8868533D01*
X10853133Y-8868533D01*
X10853133Y-8931467D01*
X10916067Y-8931467D01*
X11017667Y-9109467D02*
X11017667Y-9046533D01*
X10954733Y-9046533D01*
X10954733Y-9109467D01*
X11017667Y-9109467D01*
X11119467Y-9591467D02*
X11119467Y-9528533D01*
X11056533Y-9528533D01*
X11056533Y-9591467D01*
X11119467Y-9591467D01*
X11348467Y-9591467D02*
X11348467Y-9528533D01*
X11285533Y-9528533D01*
X11285533Y-9591467D01*
X11348467Y-9591467D01*
X5697500Y-8220000D02*
X5742500Y-8175000D01*
X5697500Y-8130000D01*
X5652500Y-8175000D01*
X5697500Y-8220000D01*
X5607500Y-8220000D02*
X5787500Y-8220000D01*
X5787500Y-8130000D02*
G75*
G02*
X5787500Y-8220000I0J-45000D01*
G01*
X5787500Y-8130000D02*
X5607500Y-8130000D01*
X5607500Y-8130000D02*
G75*
G03*
X5607500Y-8220000I0J-45000D01*
G01*
X5697500Y-9670000D02*
X5742500Y-9625000D01*
X5697500Y-9580000D01*
X5652500Y-9625000D01*
X5697500Y-9670000D01*
X5607500Y-9670000D02*
X5787500Y-9670000D01*
X5787500Y-9580000D02*
G75*
G02*
X5787500Y-9670000I0J-45000D01*
G01*
X5787500Y-9580000D02*
X5607500Y-9580000D01*
X5607500Y-9580000D02*
G75*
G03*
X5607500Y-9670000I0J-45000D01*
G01*
X6293500Y-8220000D02*
X6338500Y-8175000D01*
X6293500Y-8130000D01*
X6248500Y-8175000D01*
X6293500Y-8220000D01*
X6253500Y-8220000D02*
X6333500Y-8220000D01*
X6333500Y-8130000D02*
G75*
G02*
X6333500Y-8220000I0J-45000D01*
G01*
X6333500Y-8130000D02*
X6253500Y-8130000D01*
X6253500Y-8130000D02*
G75*
G03*
X6253500Y-8220000I0J-45000D01*
G01*
X6293500Y-9670000D02*
X6338500Y-9625000D01*
X6293500Y-9580000D01*
X6248500Y-9625000D01*
X6293500Y-9670000D01*
X6253500Y-9670000D02*
X6333500Y-9670000D01*
X6333500Y-9580000D02*
G75*
G02*
X6333500Y-9670000I0J-45000D01*
G01*
X6333500Y-9580000D02*
X6253500Y-9580000D01*
X6253500Y-9580000D02*
G75*
G03*
X6253500Y-9670000I0J-45000D01*
G01*
X6450000Y-8850000D02*
X6550000Y-8950000D01*
X6550000Y-8850000D02*
X6450000Y-8950000D01*
X6550000Y-8900000D02*
G75*
G02*
X6450000Y-8900000I-50000J0D01*
G01*
X6450000Y-8900000D02*
G75*
G02*
X6550000Y-8900000I50000J0D01*
G01*
X6450000Y-9104000D02*
X6550000Y-9204000D01*
X6550000Y-9104000D02*
X6450000Y-9204000D01*
X6550000Y-9154000D02*
G75*
G02*
X6450000Y-9154000I-50000J0D01*
G01*
X6450000Y-9154000D02*
G75*
G02*
X6550000Y-9154000I50000J0D01*
G01*
X6450000Y-9358000D02*
X6550000Y-9458000D01*
X6550000Y-9358000D02*
X6450000Y-9458000D01*
X6550000Y-9408000D02*
G75*
G02*
X6450000Y-9408000I-50000J0D01*
G01*
X6450000Y-9408000D02*
G75*
G02*
X6550000Y-9408000I50000J0D01*
G01*
X6450000Y-9612000D02*
X6550000Y-9712000D01*
X6550000Y-9612000D02*
X6450000Y-9712000D01*
X6550000Y-9662000D02*
G75*
G02*
X6450000Y-9662000I-50000J0D01*
G01*
X6450000Y-9662000D02*
G75*
G02*
X6550000Y-9662000I50000J0D01*
G01*
X6450000Y-9866000D02*
X6550000Y-9966000D01*
X6550000Y-9866000D02*
X6450000Y-9966000D01*
X6550000Y-9916000D02*
G75*
G02*
X6450000Y-9916000I-50000J0D01*
G01*
X6450000Y-9916000D02*
G75*
G02*
X6550000Y-9916000I50000J0D01*
G01*
X6450000Y-10120000D02*
X6550000Y-10220000D01*
X6550000Y-10120000D02*
X6450000Y-10220000D01*
X6550000Y-10170000D02*
G75*
G02*
X6450000Y-10170000I-50000J0D01*
G01*
X6450000Y-10170000D02*
G75*
G02*
X6550000Y-10170000I50000J0D01*
G01*
X6450000Y-10374000D02*
X6550000Y-10474000D01*
X6550000Y-10374000D02*
X6450000Y-10474000D01*
X6550000Y-10424000D02*
G75*
G02*
X6450000Y-10424000I-50000J0D01*
G01*
X6450000Y-10424000D02*
G75*
G02*
X6550000Y-10424000I50000J0D01*
G01*
X6450000Y-10628000D02*
X6550000Y-10728000D01*
X6550000Y-10628000D02*
X6450000Y-10728000D01*
X6550000Y-10678000D02*
G75*
G02*
X6450000Y-10678000I-50000J0D01*
G01*
X6450000Y-10678000D02*
G75*
G02*
X6550000Y-10678000I50000J0D01*
G01*
X6450000Y-10882000D02*
X6550000Y-10982000D01*
X6550000Y-10882000D02*
X6450000Y-10982000D01*
X6550000Y-10932000D02*
G75*
G02*
X6450000Y-10932000I-50000J0D01*
G01*
X6450000Y-10932000D02*
G75*
G02*
X6550000Y-10932000I50000J0D01*
G01*
X6450000Y-11136000D02*
X6550000Y-11236000D01*
X6550000Y-11136000D02*
X6450000Y-11236000D01*
X6550000Y-11186000D02*
G75*
G02*
X6450000Y-11186000I-50000J0D01*
G01*
X6450000Y-11186000D02*
G75*
G02*
X6550000Y-11186000I50000J0D01*
G01*
X6450000Y-11390000D02*
X6550000Y-11490000D01*
X6550000Y-11390000D02*
X6450000Y-11490000D01*
X6550000Y-11440000D02*
G75*
G02*
X6450000Y-11440000I-50000J0D01*
G01*
X6450000Y-11440000D02*
G75*
G02*
X6550000Y-11440000I50000J0D01*
G01*
X6450000Y-11644000D02*
X6550000Y-11744000D01*
X6550000Y-11644000D02*
X6450000Y-11744000D01*
X6550000Y-11694000D02*
G75*
G02*
X6450000Y-11694000I-50000J0D01*
G01*
X6450000Y-11694000D02*
G75*
G02*
X6550000Y-11694000I50000J0D01*
G01*
X6450000Y-11898000D02*
X6550000Y-11998000D01*
X6550000Y-11898000D02*
X6450000Y-11998000D01*
X6550000Y-11948000D02*
G75*
G02*
X6450000Y-11948000I-50000J0D01*
G01*
X6450000Y-11948000D02*
G75*
G02*
X6550000Y-11948000I50000J0D01*
G01*
X6450000Y-12152000D02*
X6550000Y-12252000D01*
X6550000Y-12152000D02*
X6450000Y-12252000D01*
X6550000Y-12202000D02*
G75*
G02*
X6450000Y-12202000I-50000J0D01*
G01*
X6450000Y-12202000D02*
G75*
G02*
X6550000Y-12202000I50000J0D01*
G01*
X6450000Y-12406000D02*
X6550000Y-12506000D01*
X6550000Y-12406000D02*
X6450000Y-12506000D01*
X6550000Y-12456000D02*
G75*
G02*
X6450000Y-12456000I-50000J0D01*
G01*
X6450000Y-12456000D02*
G75*
G02*
X6550000Y-12456000I50000J0D01*
G01*
X6450000Y-12660000D02*
X6550000Y-12760000D01*
X6550000Y-12660000D02*
X6450000Y-12760000D01*
X6550000Y-12710000D02*
G75*
G02*
X6450000Y-12710000I-50000J0D01*
G01*
X6450000Y-12710000D02*
G75*
G02*
X6550000Y-12710000I50000J0D01*
G01*
X6450000Y-12914000D02*
X6550000Y-13014000D01*
X6550000Y-12914000D02*
X6450000Y-13014000D01*
X6550000Y-12964000D02*
G75*
G02*
X6450000Y-12964000I-50000J0D01*
G01*
X6450000Y-12964000D02*
G75*
G02*
X6550000Y-12964000I50000J0D01*
G01*
X6450000Y-13168000D02*
X6550000Y-13268000D01*
X6550000Y-13168000D02*
X6450000Y-13268000D01*
X6550000Y-13218000D02*
G75*
G02*
X6450000Y-13218000I-50000J0D01*
G01*
X6450000Y-13218000D02*
G75*
G02*
X6550000Y-13218000I50000J0D01*
G01*
X6450000Y-13422000D02*
X6550000Y-13522000D01*
X6550000Y-13422000D02*
X6450000Y-13522000D01*
X6550000Y-13472000D02*
G75*
G02*
X6450000Y-13472000I-50000J0D01*
G01*
X6450000Y-13472000D02*
G75*
G02*
X6550000Y-13472000I50000J0D01*
G01*
X6450000Y-13676000D02*
X6550000Y-13776000D01*
X6550000Y-13676000D02*
X6450000Y-13776000D01*
X6550000Y-13726000D02*
G75*
G02*
X6450000Y-13726000I-50000J0D01*
G01*
X6450000Y-13726000D02*
G75*
G02*
X6550000Y-13726000I50000J0D01*
G01*
X6704000Y-8850000D02*
X6804000Y-8950000D01*
X6804000Y-8850000D02*
X6704000Y-8950000D01*
X6804000Y-8900000D02*
G75*
G02*
X6704000Y-8900000I-50000J0D01*
G01*
X6704000Y-8900000D02*
G75*
G02*
X6804000Y-8900000I50000J0D01*
G01*
X6704000Y-9104000D02*
X6804000Y-9204000D01*
X6804000Y-9104000D02*
X6704000Y-9204000D01*
X6804000Y-9154000D02*
G75*
G02*
X6704000Y-9154000I-50000J0D01*
G01*
X6704000Y-9154000D02*
G75*
G02*
X6804000Y-9154000I50000J0D01*
G01*
X6704000Y-9358000D02*
X6804000Y-9458000D01*
X6804000Y-9358000D02*
X6704000Y-9458000D01*
X6804000Y-9408000D02*
G75*
G02*
X6704000Y-9408000I-50000J0D01*
G01*
X6704000Y-9408000D02*
G75*
G02*
X6804000Y-9408000I50000J0D01*
G01*
X6704000Y-9612000D02*
X6804000Y-9712000D01*
X6804000Y-9612000D02*
X6704000Y-9712000D01*
X6804000Y-9662000D02*
G75*
G02*
X6704000Y-9662000I-50000J0D01*
G01*
X6704000Y-9662000D02*
G75*
G02*
X6804000Y-9662000I50000J0D01*
G01*
X6704000Y-9866000D02*
X6804000Y-9966000D01*
X6804000Y-9866000D02*
X6704000Y-9966000D01*
X6804000Y-9916000D02*
G75*
G02*
X6704000Y-9916000I-50000J0D01*
G01*
X6704000Y-9916000D02*
G75*
G02*
X6804000Y-9916000I50000J0D01*
G01*
X6704000Y-10120000D02*
X6804000Y-10220000D01*
X6804000Y-10120000D02*
X6704000Y-10220000D01*
X6804000Y-10170000D02*
G75*
G02*
X6704000Y-10170000I-50000J0D01*
G01*
X6704000Y-10170000D02*
G75*
G02*
X6804000Y-10170000I50000J0D01*
G01*
X6704000Y-10374000D02*
X6804000Y-10474000D01*
X6804000Y-10374000D02*
X6704000Y-10474000D01*
X6804000Y-10424000D02*
G75*
G02*
X6704000Y-10424000I-50000J0D01*
G01*
X6704000Y-10424000D02*
G75*
G02*
X6804000Y-10424000I50000J0D01*
G01*
X6704000Y-10628000D02*
X6804000Y-10728000D01*
X6804000Y-10628000D02*
X6704000Y-10728000D01*
X6804000Y-10678000D02*
G75*
G02*
X6704000Y-10678000I-50000J0D01*
G01*
X6704000Y-10678000D02*
G75*
G02*
X6804000Y-10678000I50000J0D01*
G01*
X6704000Y-10882000D02*
X6804000Y-10982000D01*
X6804000Y-10882000D02*
X6704000Y-10982000D01*
X6804000Y-10932000D02*
G75*
G02*
X6704000Y-10932000I-50000J0D01*
G01*
X6704000Y-10932000D02*
G75*
G02*
X6804000Y-10932000I50000J0D01*
G01*
X6704000Y-11136000D02*
X6804000Y-11236000D01*
X6804000Y-11136000D02*
X6704000Y-11236000D01*
X6804000Y-11186000D02*
G75*
G02*
X6704000Y-11186000I-50000J0D01*
G01*
X6704000Y-11186000D02*
G75*
G02*
X6804000Y-11186000I50000J0D01*
G01*
X6704000Y-11390000D02*
X6804000Y-11490000D01*
X6804000Y-11390000D02*
X6704000Y-11490000D01*
X6804000Y-11440000D02*
G75*
G02*
X6704000Y-11440000I-50000J0D01*
G01*
X6704000Y-11440000D02*
G75*
G02*
X6804000Y-11440000I50000J0D01*
G01*
X6704000Y-11644000D02*
X6804000Y-11744000D01*
X6804000Y-11644000D02*
X6704000Y-11744000D01*
X6804000Y-11694000D02*
G75*
G02*
X6704000Y-11694000I-50000J0D01*
G01*
X6704000Y-11694000D02*
G75*
G02*
X6804000Y-11694000I50000J0D01*
G01*
X6704000Y-11898000D02*
X6804000Y-11998000D01*
X6804000Y-11898000D02*
X6704000Y-11998000D01*
X6804000Y-11948000D02*
G75*
G02*
X6704000Y-11948000I-50000J0D01*
G01*
X6704000Y-11948000D02*
G75*
G02*
X6804000Y-11948000I50000J0D01*
G01*
X6704000Y-12152000D02*
X6804000Y-12252000D01*
X6804000Y-12152000D02*
X6704000Y-12252000D01*
X6804000Y-12202000D02*
G75*
G02*
X6704000Y-12202000I-50000J0D01*
G01*
X6704000Y-12202000D02*
G75*
G02*
X6804000Y-12202000I50000J0D01*
G01*
X6704000Y-12406000D02*
X6804000Y-12506000D01*
X6804000Y-12406000D02*
X6704000Y-12506000D01*
X6804000Y-12456000D02*
G75*
G02*
X6704000Y-12456000I-50000J0D01*
G01*
X6704000Y-12456000D02*
G75*
G02*
X6804000Y-12456000I50000J0D01*
G01*
X6704000Y-12660000D02*
X6804000Y-12760000D01*
X6804000Y-12660000D02*
X6704000Y-12760000D01*
X6804000Y-12710000D02*
G75*
G02*
X6704000Y-12710000I-50000J0D01*
G01*
X6704000Y-12710000D02*
G75*
G02*
X6804000Y-12710000I50000J0D01*
G01*
X6704000Y-12914000D02*
X6804000Y-13014000D01*
X6804000Y-12914000D02*
X6704000Y-13014000D01*
X6804000Y-12964000D02*
G75*
G02*
X6704000Y-12964000I-50000J0D01*
G01*
X6704000Y-12964000D02*
G75*
G02*
X6804000Y-12964000I50000J0D01*
G01*
X6704000Y-13168000D02*
X6804000Y-13268000D01*
X6804000Y-13168000D02*
X6704000Y-13268000D01*
X6804000Y-13218000D02*
G75*
G02*
X6704000Y-13218000I-50000J0D01*
G01*
X6704000Y-13218000D02*
G75*
G02*
X6804000Y-13218000I50000J0D01*
G01*
X6704000Y-13422000D02*
X6804000Y-13522000D01*
X6804000Y-13422000D02*
X6704000Y-13522000D01*
X6804000Y-13472000D02*
G75*
G02*
X6704000Y-13472000I-50000J0D01*
G01*
X6704000Y-13472000D02*
G75*
G02*
X6804000Y-13472000I50000J0D01*
G01*
X6704000Y-13676000D02*
X6804000Y-13776000D01*
X6804000Y-13676000D02*
X6704000Y-13776000D01*
X6804000Y-13726000D02*
G75*
G02*
X6704000Y-13726000I-50000J0D01*
G01*
X6704000Y-13726000D02*
G75*
G02*
X6804000Y-13726000I50000J0D01*
G01*
X7000000Y-8850000D02*
X7100000Y-8950000D01*
X7100000Y-8850000D02*
X7000000Y-8950000D01*
X7100000Y-8900000D02*
G75*
G02*
X7000000Y-8900000I-50000J0D01*
G01*
X7000000Y-8900000D02*
G75*
G02*
X7100000Y-8900000I50000J0D01*
G01*
X7000000Y-9104000D02*
X7100000Y-9204000D01*
X7100000Y-9104000D02*
X7000000Y-9204000D01*
X7100000Y-9154000D02*
G75*
G02*
X7000000Y-9154000I-50000J0D01*
G01*
X7000000Y-9154000D02*
G75*
G02*
X7100000Y-9154000I50000J0D01*
G01*
X7000000Y-9358000D02*
X7100000Y-9458000D01*
X7100000Y-9358000D02*
X7000000Y-9458000D01*
X7100000Y-9408000D02*
G75*
G02*
X7000000Y-9408000I-50000J0D01*
G01*
X7000000Y-9408000D02*
G75*
G02*
X7100000Y-9408000I50000J0D01*
G01*
X7000000Y-9612000D02*
X7100000Y-9712000D01*
X7100000Y-9612000D02*
X7000000Y-9712000D01*
X7100000Y-9662000D02*
G75*
G02*
X7000000Y-9662000I-50000J0D01*
G01*
X7000000Y-9662000D02*
G75*
G02*
X7100000Y-9662000I50000J0D01*
G01*
D13*
X7614500Y-8910500D02*
X7771500Y-9067500D01*
X7771500Y-8910500D02*
X7614500Y-9067500D01*
X7693000Y-8910500D02*
X7693000Y-9067500D01*
X7614500Y-8989000D02*
X7771500Y-8989000D01*
X8164500Y-8910500D02*
X8321500Y-9067500D01*
X8321500Y-8910500D02*
X8164500Y-9067500D01*
X8243000Y-8910500D02*
X8243000Y-9067500D01*
X8164500Y-8989000D02*
X8321500Y-8989000D01*
X10814500Y-8910500D02*
X10971500Y-9067500D01*
X10971500Y-8910500D02*
X10814500Y-9067500D01*
X10893000Y-8910500D02*
X10893000Y-9067500D01*
X10814500Y-8989000D02*
X10971500Y-8989000D01*
X11364500Y-8910500D02*
X11521500Y-9067500D01*
X11521500Y-8910500D02*
X11364500Y-9067500D01*
X11443000Y-8910500D02*
X11443000Y-9067500D01*
X11364500Y-8989000D02*
X11521500Y-8989000D01*
D11*
X253277Y-10318984D02*
X253277Y-10118984D01*
X253277Y-10118984D02*
X300896Y-10118984D01*
X300896Y-10118984D02*
X329467Y-10128508D01*
X329467Y-10128508D02*
X348515Y-10147555D01*
X348515Y-10147555D02*
X358039Y-10166603D01*
X358039Y-10166603D02*
X367562Y-10204698D01*
X367562Y-10204698D02*
X367562Y-10233270D01*
X367562Y-10233270D02*
X358039Y-10271365D01*
X358039Y-10271365D02*
X348515Y-10290412D01*
X348515Y-10290412D02*
X329467Y-10309460D01*
X329467Y-10309460D02*
X300896Y-10318984D01*
X300896Y-10318984D02*
X253277Y-10318984D01*
X453277Y-10318984D02*
X453277Y-10185650D01*
X453277Y-10223746D02*
X462801Y-10204698D01*
X462801Y-10204698D02*
X472324Y-10195174D01*
X472324Y-10195174D02*
X491372Y-10185650D01*
X491372Y-10185650D02*
X510420Y-10185650D01*
X577086Y-10318984D02*
X577086Y-10185650D01*
X577086Y-10118984D02*
X567563Y-10128508D01*
X567563Y-10128508D02*
X577086Y-10138031D01*
X577086Y-10138031D02*
X586610Y-10128508D01*
X586610Y-10128508D02*
X577086Y-10118984D01*
X577086Y-10118984D02*
X577086Y-10138031D01*
X700896Y-10318984D02*
X681848Y-10309460D01*
X681848Y-10309460D02*
X672324Y-10290412D01*
X672324Y-10290412D02*
X672324Y-10118984D01*
X805658Y-10318984D02*
X786610Y-10309460D01*
X786610Y-10309460D02*
X777086Y-10290412D01*
X777086Y-10290412D02*
X777086Y-10118984D01*
X1034229Y-10318984D02*
X1034229Y-10118984D01*
X1034229Y-10118984D02*
X1100896Y-10261841D01*
X1100896Y-10261841D02*
X1167563Y-10118984D01*
X1167563Y-10118984D02*
X1167563Y-10318984D01*
X1348515Y-10318984D02*
X1348515Y-10214222D01*
X1348515Y-10214222D02*
X1338991Y-10195174D01*
X1338991Y-10195174D02*
X1319944Y-10185650D01*
X1319944Y-10185650D02*
X1281848Y-10185650D01*
X1281848Y-10185650D02*
X1262801Y-10195174D01*
X1348515Y-10309460D02*
X1329467Y-10318984D01*
X1329467Y-10318984D02*
X1281848Y-10318984D01*
X1281848Y-10318984D02*
X1262801Y-10309460D01*
X1262801Y-10309460D02*
X1253277Y-10290412D01*
X1253277Y-10290412D02*
X1253277Y-10271365D01*
X1253277Y-10271365D02*
X1262801Y-10252317D01*
X1262801Y-10252317D02*
X1281848Y-10242793D01*
X1281848Y-10242793D02*
X1329467Y-10242793D01*
X1329467Y-10242793D02*
X1348515Y-10233270D01*
X1443753Y-10185650D02*
X1443753Y-10385650D01*
X1443753Y-10195174D02*
X1462801Y-10185650D01*
X1462801Y-10185650D02*
X1500896Y-10185650D01*
X1500896Y-10185650D02*
X1519943Y-10195174D01*
X1519943Y-10195174D02*
X1529467Y-10204698D01*
X1529467Y-10204698D02*
X1538991Y-10223746D01*
X1538991Y-10223746D02*
X1538991Y-10280889D01*
X1538991Y-10280889D02*
X1529467Y-10299936D01*
X1529467Y-10299936D02*
X1519943Y-10309460D01*
X1519943Y-10309460D02*
X1500896Y-10318984D01*
X1500896Y-10318984D02*
X1462801Y-10318984D01*
X1462801Y-10318984D02*
X1443753Y-10309460D01*
X1624705Y-10299936D02*
X1634229Y-10309460D01*
X1634229Y-10309460D02*
X1624705Y-10318984D01*
X1624705Y-10318984D02*
X1615182Y-10309460D01*
X1615182Y-10309460D02*
X1624705Y-10299936D01*
X1624705Y-10299936D02*
X1624705Y-10318984D01*
X1624705Y-10195174D02*
X1634229Y-10204698D01*
X1634229Y-10204698D02*
X1624705Y-10214222D01*
X1624705Y-10214222D02*
X1615182Y-10204698D01*
X1615182Y-10204698D02*
X1624705Y-10195174D01*
X1624705Y-10195174D02*
X1624705Y-10214222D01*
D12*
X-67500Y-10617500D02*
X-7500Y-10677500D01*
X-7500Y-10617500D02*
X-67500Y-10677500D01*
D11*
X291372Y-10538984D02*
X310420Y-10538984D01*
X310420Y-10538984D02*
X329467Y-10548508D01*
X329467Y-10548508D02*
X338991Y-10558031D01*
X338991Y-10558031D02*
X348515Y-10577079D01*
X348515Y-10577079D02*
X358039Y-10615174D01*
X358039Y-10615174D02*
X358039Y-10662793D01*
X358039Y-10662793D02*
X348515Y-10700889D01*
X348515Y-10700889D02*
X338991Y-10719936D01*
X338991Y-10719936D02*
X329467Y-10729460D01*
X329467Y-10729460D02*
X310420Y-10738984D01*
X310420Y-10738984D02*
X291372Y-10738984D01*
X291372Y-10738984D02*
X272324Y-10729460D01*
X272324Y-10729460D02*
X262801Y-10719936D01*
X262801Y-10719936D02*
X253277Y-10700889D01*
X253277Y-10700889D02*
X243753Y-10662793D01*
X243753Y-10662793D02*
X243753Y-10615174D01*
X243753Y-10615174D02*
X253277Y-10577079D01*
X253277Y-10577079D02*
X262801Y-10558031D01*
X262801Y-10558031D02*
X272324Y-10548508D01*
X272324Y-10548508D02*
X291372Y-10538984D01*
X443753Y-10719936D02*
X453277Y-10729460D01*
X453277Y-10729460D02*
X443753Y-10738984D01*
X443753Y-10738984D02*
X434229Y-10729460D01*
X434229Y-10729460D02*
X443753Y-10719936D01*
X443753Y-10719936D02*
X443753Y-10738984D01*
X624705Y-10538984D02*
X586610Y-10538984D01*
X586610Y-10538984D02*
X567563Y-10548508D01*
X567563Y-10548508D02*
X558039Y-10558031D01*
X558039Y-10558031D02*
X538991Y-10586603D01*
X538991Y-10586603D02*
X529467Y-10624698D01*
X529467Y-10624698D02*
X529467Y-10700889D01*
X529467Y-10700889D02*
X538991Y-10719936D01*
X538991Y-10719936D02*
X548515Y-10729460D01*
X548515Y-10729460D02*
X567563Y-10738984D01*
X567563Y-10738984D02*
X605658Y-10738984D01*
X605658Y-10738984D02*
X624705Y-10729460D01*
X624705Y-10729460D02*
X634229Y-10719936D01*
X634229Y-10719936D02*
X643753Y-10700889D01*
X643753Y-10700889D02*
X643753Y-10653270D01*
X643753Y-10653270D02*
X634229Y-10634222D01*
X634229Y-10634222D02*
X624705Y-10624698D01*
X624705Y-10624698D02*
X605658Y-10615174D01*
X605658Y-10615174D02*
X567563Y-10615174D01*
X567563Y-10615174D02*
X548515Y-10624698D01*
X548515Y-10624698D02*
X538991Y-10634222D01*
X538991Y-10634222D02*
X529467Y-10653270D01*
X767562Y-10538984D02*
X786610Y-10538984D01*
X786610Y-10538984D02*
X805658Y-10548508D01*
X805658Y-10548508D02*
X815182Y-10558031D01*
X815182Y-10558031D02*
X824705Y-10577079D01*
X824705Y-10577079D02*
X834229Y-10615174D01*
X834229Y-10615174D02*
X834229Y-10662793D01*
X834229Y-10662793D02*
X824705Y-10700889D01*
X824705Y-10700889D02*
X815182Y-10719936D01*
X815182Y-10719936D02*
X805658Y-10729460D01*
X805658Y-10729460D02*
X786610Y-10738984D01*
X786610Y-10738984D02*
X767562Y-10738984D01*
X767562Y-10738984D02*
X748515Y-10729460D01*
X748515Y-10729460D02*
X738991Y-10719936D01*
X738991Y-10719936D02*
X729467Y-10700889D01*
X729467Y-10700889D02*
X719943Y-10662793D01*
X719943Y-10662793D02*
X719943Y-10615174D01*
X719943Y-10615174D02*
X729467Y-10577079D01*
X729467Y-10577079D02*
X738991Y-10558031D01*
X738991Y-10558031D02*
X748515Y-10548508D01*
X748515Y-10548508D02*
X767562Y-10538984D01*
X958039Y-10538984D02*
X977086Y-10538984D01*
X977086Y-10538984D02*
X996134Y-10548508D01*
X996134Y-10548508D02*
X1005658Y-10558031D01*
X1005658Y-10558031D02*
X1015182Y-10577079D01*
X1015182Y-10577079D02*
X1024705Y-10615174D01*
X1024705Y-10615174D02*
X1024705Y-10662793D01*
X1024705Y-10662793D02*
X1015182Y-10700889D01*
X1015182Y-10700889D02*
X1005658Y-10719936D01*
X1005658Y-10719936D02*
X996134Y-10729460D01*
X996134Y-10729460D02*
X977086Y-10738984D01*
X977086Y-10738984D02*
X958039Y-10738984D01*
X958039Y-10738984D02*
X938991Y-10729460D01*
X938991Y-10729460D02*
X929467Y-10719936D01*
X929467Y-10719936D02*
X919943Y-10700889D01*
X919943Y-10700889D02*
X910420Y-10662793D01*
X910420Y-10662793D02*
X910420Y-10615174D01*
X910420Y-10615174D02*
X919943Y-10577079D01*
X919943Y-10577079D02*
X929467Y-10558031D01*
X929467Y-10558031D02*
X938991Y-10548508D01*
X938991Y-10548508D02*
X958039Y-10538984D01*
X1110420Y-10738984D02*
X1110420Y-10605650D01*
X1110420Y-10624698D02*
X1119944Y-10615174D01*
X1119944Y-10615174D02*
X1138991Y-10605650D01*
X1138991Y-10605650D02*
X1167563Y-10605650D01*
X1167563Y-10605650D02*
X1186610Y-10615174D01*
X1186610Y-10615174D02*
X1196134Y-10634222D01*
X1196134Y-10634222D02*
X1196134Y-10738984D01*
X1196134Y-10634222D02*
X1205658Y-10615174D01*
X1205658Y-10615174D02*
X1224705Y-10605650D01*
X1224705Y-10605650D02*
X1253277Y-10605650D01*
X1253277Y-10605650D02*
X1272325Y-10615174D01*
X1272325Y-10615174D02*
X1281848Y-10634222D01*
X1281848Y-10634222D02*
X1281848Y-10738984D01*
X1377086Y-10738984D02*
X1377086Y-10605650D01*
X1377086Y-10624698D02*
X1386610Y-10615174D01*
X1386610Y-10615174D02*
X1405658Y-10605650D01*
X1405658Y-10605650D02*
X1434229Y-10605650D01*
X1434229Y-10605650D02*
X1453277Y-10615174D01*
X1453277Y-10615174D02*
X1462801Y-10634222D01*
X1462801Y-10634222D02*
X1462801Y-10738984D01*
X1462801Y-10634222D02*
X1472324Y-10615174D01*
X1472324Y-10615174D02*
X1491372Y-10605650D01*
X1491372Y-10605650D02*
X1519943Y-10605650D01*
X1519943Y-10605650D02*
X1538991Y-10615174D01*
X1538991Y-10615174D02*
X1548515Y-10634222D01*
X1548515Y-10634222D02*
X1548515Y-10738984D01*
X1938991Y-10529460D02*
X1767563Y-10786603D01*
X2196134Y-10538984D02*
X2215182Y-10538984D01*
X2215182Y-10538984D02*
X2234229Y-10548508D01*
X2234229Y-10548508D02*
X2243753Y-10558031D01*
X2243753Y-10558031D02*
X2253277Y-10577079D01*
X2253277Y-10577079D02*
X2262801Y-10615174D01*
X2262801Y-10615174D02*
X2262801Y-10662793D01*
X2262801Y-10662793D02*
X2253277Y-10700889D01*
X2253277Y-10700889D02*
X2243753Y-10719936D01*
X2243753Y-10719936D02*
X2234229Y-10729460D01*
X2234229Y-10729460D02*
X2215182Y-10738984D01*
X2215182Y-10738984D02*
X2196134Y-10738984D01*
X2196134Y-10738984D02*
X2177087Y-10729460D01*
X2177087Y-10729460D02*
X2167563Y-10719936D01*
X2167563Y-10719936D02*
X2158039Y-10700889D01*
X2158039Y-10700889D02*
X2148515Y-10662793D01*
X2148515Y-10662793D02*
X2148515Y-10615174D01*
X2148515Y-10615174D02*
X2158039Y-10577079D01*
X2158039Y-10577079D02*
X2167563Y-10558031D01*
X2167563Y-10558031D02*
X2177087Y-10548508D01*
X2177087Y-10548508D02*
X2196134Y-10538984D01*
X2348515Y-10719936D02*
X2358039Y-10729460D01*
X2358039Y-10729460D02*
X2348515Y-10738984D01*
X2348515Y-10738984D02*
X2338991Y-10729460D01*
X2338991Y-10729460D02*
X2348515Y-10719936D01*
X2348515Y-10719936D02*
X2348515Y-10738984D01*
X2481848Y-10538984D02*
X2500896Y-10538984D01*
X2500896Y-10538984D02*
X2519944Y-10548508D01*
X2519944Y-10548508D02*
X2529468Y-10558031D01*
X2529468Y-10558031D02*
X2538991Y-10577079D01*
X2538991Y-10577079D02*
X2548515Y-10615174D01*
X2548515Y-10615174D02*
X2548515Y-10662793D01*
X2548515Y-10662793D02*
X2538991Y-10700889D01*
X2538991Y-10700889D02*
X2529468Y-10719936D01*
X2529468Y-10719936D02*
X2519944Y-10729460D01*
X2519944Y-10729460D02*
X2500896Y-10738984D01*
X2500896Y-10738984D02*
X2481848Y-10738984D01*
X2481848Y-10738984D02*
X2462801Y-10729460D01*
X2462801Y-10729460D02*
X2453277Y-10719936D01*
X2453277Y-10719936D02*
X2443753Y-10700889D01*
X2443753Y-10700889D02*
X2434229Y-10662793D01*
X2434229Y-10662793D02*
X2434229Y-10615174D01*
X2434229Y-10615174D02*
X2443753Y-10577079D01*
X2443753Y-10577079D02*
X2453277Y-10558031D01*
X2453277Y-10558031D02*
X2462801Y-10548508D01*
X2462801Y-10548508D02*
X2481848Y-10538984D01*
X2624706Y-10558031D02*
X2634229Y-10548508D01*
X2634229Y-10548508D02*
X2653277Y-10538984D01*
X2653277Y-10538984D02*
X2700896Y-10538984D01*
X2700896Y-10538984D02*
X2719944Y-10548508D01*
X2719944Y-10548508D02*
X2729468Y-10558031D01*
X2729468Y-10558031D02*
X2738991Y-10577079D01*
X2738991Y-10577079D02*
X2738991Y-10596127D01*
X2738991Y-10596127D02*
X2729468Y-10624698D01*
X2729468Y-10624698D02*
X2615182Y-10738984D01*
X2615182Y-10738984D02*
X2738991Y-10738984D01*
X2805658Y-10538984D02*
X2929467Y-10538984D01*
X2929467Y-10538984D02*
X2862801Y-10615174D01*
X2862801Y-10615174D02*
X2891372Y-10615174D01*
X2891372Y-10615174D02*
X2910420Y-10624698D01*
X2910420Y-10624698D02*
X2919944Y-10634222D01*
X2919944Y-10634222D02*
X2929467Y-10653270D01*
X2929467Y-10653270D02*
X2929467Y-10700889D01*
X2929467Y-10700889D02*
X2919944Y-10719936D01*
X2919944Y-10719936D02*
X2910420Y-10729460D01*
X2910420Y-10729460D02*
X2891372Y-10738984D01*
X2891372Y-10738984D02*
X2834229Y-10738984D01*
X2834229Y-10738984D02*
X2815182Y-10729460D01*
X2815182Y-10729460D02*
X2805658Y-10719936D01*
X3100896Y-10538984D02*
X3062801Y-10538984D01*
X3062801Y-10538984D02*
X3043753Y-10548508D01*
X3043753Y-10548508D02*
X3034229Y-10558031D01*
X3034229Y-10558031D02*
X3015182Y-10586603D01*
X3015182Y-10586603D02*
X3005658Y-10624698D01*
X3005658Y-10624698D02*
X3005658Y-10700889D01*
X3005658Y-10700889D02*
X3015182Y-10719936D01*
X3015182Y-10719936D02*
X3024706Y-10729460D01*
X3024706Y-10729460D02*
X3043753Y-10738984D01*
X3043753Y-10738984D02*
X3081848Y-10738984D01*
X3081848Y-10738984D02*
X3100896Y-10729460D01*
X3100896Y-10729460D02*
X3110420Y-10719936D01*
X3110420Y-10719936D02*
X3119944Y-10700889D01*
X3119944Y-10700889D02*
X3119944Y-10653270D01*
X3119944Y-10653270D02*
X3110420Y-10634222D01*
X3110420Y-10634222D02*
X3100896Y-10624698D01*
X3100896Y-10624698D02*
X3081848Y-10615174D01*
X3081848Y-10615174D02*
X3043753Y-10615174D01*
X3043753Y-10615174D02*
X3024706Y-10624698D01*
X3024706Y-10624698D02*
X3015182Y-10634222D01*
X3015182Y-10634222D02*
X3005658Y-10653270D01*
X3196134Y-10538984D02*
X3196134Y-10577079D01*
X3272325Y-10538984D02*
X3272325Y-10577079D01*
X3567563Y-10815174D02*
X3558039Y-10805650D01*
X3558039Y-10805650D02*
X3538991Y-10777079D01*
X3538991Y-10777079D02*
X3529468Y-10758031D01*
X3529468Y-10758031D02*
X3519944Y-10729460D01*
X3519944Y-10729460D02*
X3510420Y-10681841D01*
X3510420Y-10681841D02*
X3510420Y-10643746D01*
X3510420Y-10643746D02*
X3519944Y-10596127D01*
X3519944Y-10596127D02*
X3529468Y-10567555D01*
X3529468Y-10567555D02*
X3538991Y-10548508D01*
X3538991Y-10548508D02*
X3558039Y-10519936D01*
X3558039Y-10519936D02*
X3567563Y-10510412D01*
X3681848Y-10538984D02*
X3700896Y-10538984D01*
X3700896Y-10538984D02*
X3719944Y-10548508D01*
X3719944Y-10548508D02*
X3729468Y-10558031D01*
X3729468Y-10558031D02*
X3738991Y-10577079D01*
X3738991Y-10577079D02*
X3748515Y-10615174D01*
X3748515Y-10615174D02*
X3748515Y-10662793D01*
X3748515Y-10662793D02*
X3738991Y-10700889D01*
X3738991Y-10700889D02*
X3729468Y-10719936D01*
X3729468Y-10719936D02*
X3719944Y-10729460D01*
X3719944Y-10729460D02*
X3700896Y-10738984D01*
X3700896Y-10738984D02*
X3681848Y-10738984D01*
X3681848Y-10738984D02*
X3662801Y-10729460D01*
X3662801Y-10729460D02*
X3653277Y-10719936D01*
X3653277Y-10719936D02*
X3643753Y-10700889D01*
X3643753Y-10700889D02*
X3634229Y-10662793D01*
X3634229Y-10662793D02*
X3634229Y-10615174D01*
X3634229Y-10615174D02*
X3643753Y-10577079D01*
X3643753Y-10577079D02*
X3653277Y-10558031D01*
X3653277Y-10558031D02*
X3662801Y-10548508D01*
X3662801Y-10548508D02*
X3681848Y-10538984D01*
X3986610Y-10738984D02*
X3986610Y-10538984D01*
X4072325Y-10738984D02*
X4072325Y-10634222D01*
X4072325Y-10634222D02*
X4062801Y-10615174D01*
X4062801Y-10615174D02*
X4043753Y-10605650D01*
X4043753Y-10605650D02*
X4015182Y-10605650D01*
X4015182Y-10605650D02*
X3996134Y-10615174D01*
X3996134Y-10615174D02*
X3986610Y-10624698D01*
X4196134Y-10738984D02*
X4177087Y-10729460D01*
X4177087Y-10729460D02*
X4167563Y-10719936D01*
X4167563Y-10719936D02*
X4158039Y-10700889D01*
X4158039Y-10700889D02*
X4158039Y-10643746D01*
X4158039Y-10643746D02*
X4167563Y-10624698D01*
X4167563Y-10624698D02*
X4177087Y-10615174D01*
X4177087Y-10615174D02*
X4196134Y-10605650D01*
X4196134Y-10605650D02*
X4224706Y-10605650D01*
X4224706Y-10605650D02*
X4243753Y-10615174D01*
X4243753Y-10615174D02*
X4253277Y-10624698D01*
X4253277Y-10624698D02*
X4262801Y-10643746D01*
X4262801Y-10643746D02*
X4262801Y-10700889D01*
X4262801Y-10700889D02*
X4253277Y-10719936D01*
X4253277Y-10719936D02*
X4243753Y-10729460D01*
X4243753Y-10729460D02*
X4224706Y-10738984D01*
X4224706Y-10738984D02*
X4196134Y-10738984D01*
X4377087Y-10738984D02*
X4358039Y-10729460D01*
X4358039Y-10729460D02*
X4348515Y-10710412D01*
X4348515Y-10710412D02*
X4348515Y-10538984D01*
X4529468Y-10729460D02*
X4510420Y-10738984D01*
X4510420Y-10738984D02*
X4472325Y-10738984D01*
X4472325Y-10738984D02*
X4453277Y-10729460D01*
X4453277Y-10729460D02*
X4443753Y-10710412D01*
X4443753Y-10710412D02*
X4443753Y-10634222D01*
X4443753Y-10634222D02*
X4453277Y-10615174D01*
X4453277Y-10615174D02*
X4472325Y-10605650D01*
X4472325Y-10605650D02*
X4510420Y-10605650D01*
X4510420Y-10605650D02*
X4529468Y-10615174D01*
X4529468Y-10615174D02*
X4538992Y-10634222D01*
X4538992Y-10634222D02*
X4538992Y-10653270D01*
X4538992Y-10653270D02*
X4443753Y-10672317D01*
X4615182Y-10729460D02*
X4634230Y-10738984D01*
X4634230Y-10738984D02*
X4672325Y-10738984D01*
X4672325Y-10738984D02*
X4691373Y-10729460D01*
X4691373Y-10729460D02*
X4700896Y-10710412D01*
X4700896Y-10710412D02*
X4700896Y-10700889D01*
X4700896Y-10700889D02*
X4691373Y-10681841D01*
X4691373Y-10681841D02*
X4672325Y-10672317D01*
X4672325Y-10672317D02*
X4643753Y-10672317D01*
X4643753Y-10672317D02*
X4624706Y-10662793D01*
X4624706Y-10662793D02*
X4615182Y-10643746D01*
X4615182Y-10643746D02*
X4615182Y-10634222D01*
X4615182Y-10634222D02*
X4624706Y-10615174D01*
X4624706Y-10615174D02*
X4643753Y-10605650D01*
X4643753Y-10605650D02*
X4672325Y-10605650D01*
X4672325Y-10605650D02*
X4691373Y-10615174D01*
X4938992Y-10662793D02*
X5091373Y-10662793D01*
X5015182Y-10738984D02*
X5015182Y-10586603D01*
X5329468Y-10558031D02*
X5338992Y-10548508D01*
X5338992Y-10548508D02*
X5358039Y-10538984D01*
X5358039Y-10538984D02*
X5405658Y-10538984D01*
X5405658Y-10538984D02*
X5424706Y-10548508D01*
X5424706Y-10548508D02*
X5434230Y-10558031D01*
X5434230Y-10558031D02*
X5443754Y-10577079D01*
X5443754Y-10577079D02*
X5443754Y-10596127D01*
X5443754Y-10596127D02*
X5434230Y-10624698D01*
X5434230Y-10624698D02*
X5319944Y-10738984D01*
X5319944Y-10738984D02*
X5443754Y-10738984D01*
X5567563Y-10538984D02*
X5586611Y-10538984D01*
X5586611Y-10538984D02*
X5605658Y-10548508D01*
X5605658Y-10548508D02*
X5615182Y-10558031D01*
X5615182Y-10558031D02*
X5624706Y-10577079D01*
X5624706Y-10577079D02*
X5634230Y-10615174D01*
X5634230Y-10615174D02*
X5634230Y-10662793D01*
X5634230Y-10662793D02*
X5624706Y-10700889D01*
X5624706Y-10700889D02*
X5615182Y-10719936D01*
X5615182Y-10719936D02*
X5605658Y-10729460D01*
X5605658Y-10729460D02*
X5586611Y-10738984D01*
X5586611Y-10738984D02*
X5567563Y-10738984D01*
X5567563Y-10738984D02*
X5548515Y-10729460D01*
X5548515Y-10729460D02*
X5538992Y-10719936D01*
X5538992Y-10719936D02*
X5529468Y-10700889D01*
X5529468Y-10700889D02*
X5519944Y-10662793D01*
X5519944Y-10662793D02*
X5519944Y-10615174D01*
X5519944Y-10615174D02*
X5529468Y-10577079D01*
X5529468Y-10577079D02*
X5538992Y-10558031D01*
X5538992Y-10558031D02*
X5548515Y-10548508D01*
X5548515Y-10548508D02*
X5567563Y-10538984D01*
X5862801Y-10729460D02*
X5881849Y-10738984D01*
X5881849Y-10738984D02*
X5919944Y-10738984D01*
X5919944Y-10738984D02*
X5938992Y-10729460D01*
X5938992Y-10729460D02*
X5948515Y-10710412D01*
X5948515Y-10710412D02*
X5948515Y-10700889D01*
X5948515Y-10700889D02*
X5938992Y-10681841D01*
X5938992Y-10681841D02*
X5919944Y-10672317D01*
X5919944Y-10672317D02*
X5891373Y-10672317D01*
X5891373Y-10672317D02*
X5872325Y-10662793D01*
X5872325Y-10662793D02*
X5862801Y-10643746D01*
X5862801Y-10643746D02*
X5862801Y-10634222D01*
X5862801Y-10634222D02*
X5872325Y-10615174D01*
X5872325Y-10615174D02*
X5891373Y-10605650D01*
X5891373Y-10605650D02*
X5919944Y-10605650D01*
X5919944Y-10605650D02*
X5938992Y-10615174D01*
X6062801Y-10738984D02*
X6043754Y-10729460D01*
X6043754Y-10729460D02*
X6034230Y-10710412D01*
X6034230Y-10710412D02*
X6034230Y-10538984D01*
X6167563Y-10738984D02*
X6148515Y-10729460D01*
X6148515Y-10729460D02*
X6138992Y-10719936D01*
X6138992Y-10719936D02*
X6129468Y-10700889D01*
X6129468Y-10700889D02*
X6129468Y-10643746D01*
X6129468Y-10643746D02*
X6138992Y-10624698D01*
X6138992Y-10624698D02*
X6148515Y-10615174D01*
X6148515Y-10615174D02*
X6167563Y-10605650D01*
X6167563Y-10605650D02*
X6196135Y-10605650D01*
X6196135Y-10605650D02*
X6215182Y-10615174D01*
X6215182Y-10615174D02*
X6224706Y-10624698D01*
X6224706Y-10624698D02*
X6234230Y-10643746D01*
X6234230Y-10643746D02*
X6234230Y-10700889D01*
X6234230Y-10700889D02*
X6224706Y-10719936D01*
X6224706Y-10719936D02*
X6215182Y-10729460D01*
X6215182Y-10729460D02*
X6196135Y-10738984D01*
X6196135Y-10738984D02*
X6167563Y-10738984D01*
X6291373Y-10605650D02*
X6367563Y-10605650D01*
X6319944Y-10538984D02*
X6319944Y-10710412D01*
X6319944Y-10710412D02*
X6329468Y-10729460D01*
X6329468Y-10729460D02*
X6348515Y-10738984D01*
X6348515Y-10738984D02*
X6367563Y-10738984D01*
X6424706Y-10729460D02*
X6443754Y-10738984D01*
X6443754Y-10738984D02*
X6481849Y-10738984D01*
X6481849Y-10738984D02*
X6500896Y-10729460D01*
X6500896Y-10729460D02*
X6510420Y-10710412D01*
X6510420Y-10710412D02*
X6510420Y-10700889D01*
X6510420Y-10700889D02*
X6500896Y-10681841D01*
X6500896Y-10681841D02*
X6481849Y-10672317D01*
X6481849Y-10672317D02*
X6453277Y-10672317D01*
X6453277Y-10672317D02*
X6434230Y-10662793D01*
X6434230Y-10662793D02*
X6424706Y-10643746D01*
X6424706Y-10643746D02*
X6424706Y-10634222D01*
X6424706Y-10634222D02*
X6434230Y-10615174D01*
X6434230Y-10615174D02*
X6453277Y-10605650D01*
X6453277Y-10605650D02*
X6481849Y-10605650D01*
X6481849Y-10605650D02*
X6500896Y-10615174D01*
X6577087Y-10815174D02*
X6586611Y-10805650D01*
X6586611Y-10805650D02*
X6605658Y-10777079D01*
X6605658Y-10777079D02*
X6615182Y-10758031D01*
X6615182Y-10758031D02*
X6624706Y-10729460D01*
X6624706Y-10729460D02*
X6634230Y-10681841D01*
X6634230Y-10681841D02*
X6634230Y-10643746D01*
X6634230Y-10643746D02*
X6624706Y-10596127D01*
X6624706Y-10596127D02*
X6615182Y-10567555D01*
X6615182Y-10567555D02*
X6605658Y-10548508D01*
X6605658Y-10548508D02*
X6586611Y-10519936D01*
X6586611Y-10519936D02*
X6577087Y-10510412D01*
D12*
X-7500Y-10911500D02*
G75*
G02*
X-77500Y-10911500I-35000J0D01*
G01*
X-77500Y-10911500D02*
G75*
G02*
X-7500Y-10911500I35000J0D01*
G01*
D11*
X291372Y-10802984D02*
X310420Y-10802984D01*
X310420Y-10802984D02*
X329467Y-10812508D01*
X329467Y-10812508D02*
X338991Y-10822031D01*
X338991Y-10822031D02*
X348515Y-10841079D01*
X348515Y-10841079D02*
X358039Y-10879174D01*
X358039Y-10879174D02*
X358039Y-10926793D01*
X358039Y-10926793D02*
X348515Y-10964889D01*
X348515Y-10964889D02*
X338991Y-10983936D01*
X338991Y-10983936D02*
X329467Y-10993460D01*
X329467Y-10993460D02*
X310420Y-11002984D01*
X310420Y-11002984D02*
X291372Y-11002984D01*
X291372Y-11002984D02*
X272324Y-10993460D01*
X272324Y-10993460D02*
X262801Y-10983936D01*
X262801Y-10983936D02*
X253277Y-10964889D01*
X253277Y-10964889D02*
X243753Y-10926793D01*
X243753Y-10926793D02*
X243753Y-10879174D01*
X243753Y-10879174D02*
X253277Y-10841079D01*
X253277Y-10841079D02*
X262801Y-10822031D01*
X262801Y-10822031D02*
X272324Y-10812508D01*
X272324Y-10812508D02*
X291372Y-10802984D01*
X443753Y-10983936D02*
X453277Y-10993460D01*
X453277Y-10993460D02*
X443753Y-11002984D01*
X443753Y-11002984D02*
X434229Y-10993460D01*
X434229Y-10993460D02*
X443753Y-10983936D01*
X443753Y-10983936D02*
X443753Y-11002984D01*
X519943Y-10802984D02*
X653277Y-10802984D01*
X653277Y-10802984D02*
X567563Y-11002984D01*
X767562Y-10802984D02*
X786610Y-10802984D01*
X786610Y-10802984D02*
X805658Y-10812508D01*
X805658Y-10812508D02*
X815182Y-10822031D01*
X815182Y-10822031D02*
X824705Y-10841079D01*
X824705Y-10841079D02*
X834229Y-10879174D01*
X834229Y-10879174D02*
X834229Y-10926793D01*
X834229Y-10926793D02*
X824705Y-10964889D01*
X824705Y-10964889D02*
X815182Y-10983936D01*
X815182Y-10983936D02*
X805658Y-10993460D01*
X805658Y-10993460D02*
X786610Y-11002984D01*
X786610Y-11002984D02*
X767562Y-11002984D01*
X767562Y-11002984D02*
X748515Y-10993460D01*
X748515Y-10993460D02*
X738991Y-10983936D01*
X738991Y-10983936D02*
X729467Y-10964889D01*
X729467Y-10964889D02*
X719943Y-10926793D01*
X719943Y-10926793D02*
X719943Y-10879174D01*
X719943Y-10879174D02*
X729467Y-10841079D01*
X729467Y-10841079D02*
X738991Y-10822031D01*
X738991Y-10822031D02*
X748515Y-10812508D01*
X748515Y-10812508D02*
X767562Y-10802984D01*
X958039Y-10802984D02*
X977086Y-10802984D01*
X977086Y-10802984D02*
X996134Y-10812508D01*
X996134Y-10812508D02*
X1005658Y-10822031D01*
X1005658Y-10822031D02*
X1015182Y-10841079D01*
X1015182Y-10841079D02*
X1024705Y-10879174D01*
X1024705Y-10879174D02*
X1024705Y-10926793D01*
X1024705Y-10926793D02*
X1015182Y-10964889D01*
X1015182Y-10964889D02*
X1005658Y-10983936D01*
X1005658Y-10983936D02*
X996134Y-10993460D01*
X996134Y-10993460D02*
X977086Y-11002984D01*
X977086Y-11002984D02*
X958039Y-11002984D01*
X958039Y-11002984D02*
X938991Y-10993460D01*
X938991Y-10993460D02*
X929467Y-10983936D01*
X929467Y-10983936D02*
X919943Y-10964889D01*
X919943Y-10964889D02*
X910420Y-10926793D01*
X910420Y-10926793D02*
X910420Y-10879174D01*
X910420Y-10879174D02*
X919943Y-10841079D01*
X919943Y-10841079D02*
X929467Y-10822031D01*
X929467Y-10822031D02*
X938991Y-10812508D01*
X938991Y-10812508D02*
X958039Y-10802984D01*
X1110420Y-11002984D02*
X1110420Y-10869650D01*
X1110420Y-10888698D02*
X1119944Y-10879174D01*
X1119944Y-10879174D02*
X1138991Y-10869650D01*
X1138991Y-10869650D02*
X1167563Y-10869650D01*
X1167563Y-10869650D02*
X1186610Y-10879174D01*
X1186610Y-10879174D02*
X1196134Y-10898222D01*
X1196134Y-10898222D02*
X1196134Y-11002984D01*
X1196134Y-10898222D02*
X1205658Y-10879174D01*
X1205658Y-10879174D02*
X1224705Y-10869650D01*
X1224705Y-10869650D02*
X1253277Y-10869650D01*
X1253277Y-10869650D02*
X1272325Y-10879174D01*
X1272325Y-10879174D02*
X1281848Y-10898222D01*
X1281848Y-10898222D02*
X1281848Y-11002984D01*
X1377086Y-11002984D02*
X1377086Y-10869650D01*
X1377086Y-10888698D02*
X1386610Y-10879174D01*
X1386610Y-10879174D02*
X1405658Y-10869650D01*
X1405658Y-10869650D02*
X1434229Y-10869650D01*
X1434229Y-10869650D02*
X1453277Y-10879174D01*
X1453277Y-10879174D02*
X1462801Y-10898222D01*
X1462801Y-10898222D02*
X1462801Y-11002984D01*
X1462801Y-10898222D02*
X1472324Y-10879174D01*
X1472324Y-10879174D02*
X1491372Y-10869650D01*
X1491372Y-10869650D02*
X1519943Y-10869650D01*
X1519943Y-10869650D02*
X1538991Y-10879174D01*
X1538991Y-10879174D02*
X1548515Y-10898222D01*
X1548515Y-10898222D02*
X1548515Y-11002984D01*
X1938991Y-10793460D02*
X1767563Y-11050603D01*
X2196134Y-10802984D02*
X2215182Y-10802984D01*
X2215182Y-10802984D02*
X2234229Y-10812508D01*
X2234229Y-10812508D02*
X2243753Y-10822031D01*
X2243753Y-10822031D02*
X2253277Y-10841079D01*
X2253277Y-10841079D02*
X2262801Y-10879174D01*
X2262801Y-10879174D02*
X2262801Y-10926793D01*
X2262801Y-10926793D02*
X2253277Y-10964889D01*
X2253277Y-10964889D02*
X2243753Y-10983936D01*
X2243753Y-10983936D02*
X2234229Y-10993460D01*
X2234229Y-10993460D02*
X2215182Y-11002984D01*
X2215182Y-11002984D02*
X2196134Y-11002984D01*
X2196134Y-11002984D02*
X2177087Y-10993460D01*
X2177087Y-10993460D02*
X2167563Y-10983936D01*
X2167563Y-10983936D02*
X2158039Y-10964889D01*
X2158039Y-10964889D02*
X2148515Y-10926793D01*
X2148515Y-10926793D02*
X2148515Y-10879174D01*
X2148515Y-10879174D02*
X2158039Y-10841079D01*
X2158039Y-10841079D02*
X2167563Y-10822031D01*
X2167563Y-10822031D02*
X2177087Y-10812508D01*
X2177087Y-10812508D02*
X2196134Y-10802984D01*
X2348515Y-10983936D02*
X2358039Y-10993460D01*
X2358039Y-10993460D02*
X2348515Y-11002984D01*
X2348515Y-11002984D02*
X2338991Y-10993460D01*
X2338991Y-10993460D02*
X2348515Y-10983936D01*
X2348515Y-10983936D02*
X2348515Y-11002984D01*
X2481848Y-10802984D02*
X2500896Y-10802984D01*
X2500896Y-10802984D02*
X2519944Y-10812508D01*
X2519944Y-10812508D02*
X2529468Y-10822031D01*
X2529468Y-10822031D02*
X2538991Y-10841079D01*
X2538991Y-10841079D02*
X2548515Y-10879174D01*
X2548515Y-10879174D02*
X2548515Y-10926793D01*
X2548515Y-10926793D02*
X2538991Y-10964889D01*
X2538991Y-10964889D02*
X2529468Y-10983936D01*
X2529468Y-10983936D02*
X2519944Y-10993460D01*
X2519944Y-10993460D02*
X2500896Y-11002984D01*
X2500896Y-11002984D02*
X2481848Y-11002984D01*
X2481848Y-11002984D02*
X2462801Y-10993460D01*
X2462801Y-10993460D02*
X2453277Y-10983936D01*
X2453277Y-10983936D02*
X2443753Y-10964889D01*
X2443753Y-10964889D02*
X2434229Y-10926793D01*
X2434229Y-10926793D02*
X2434229Y-10879174D01*
X2434229Y-10879174D02*
X2443753Y-10841079D01*
X2443753Y-10841079D02*
X2453277Y-10822031D01*
X2453277Y-10822031D02*
X2462801Y-10812508D01*
X2462801Y-10812508D02*
X2481848Y-10802984D01*
X2624706Y-10822031D02*
X2634229Y-10812508D01*
X2634229Y-10812508D02*
X2653277Y-10802984D01*
X2653277Y-10802984D02*
X2700896Y-10802984D01*
X2700896Y-10802984D02*
X2719944Y-10812508D01*
X2719944Y-10812508D02*
X2729468Y-10822031D01*
X2729468Y-10822031D02*
X2738991Y-10841079D01*
X2738991Y-10841079D02*
X2738991Y-10860127D01*
X2738991Y-10860127D02*
X2729468Y-10888698D01*
X2729468Y-10888698D02*
X2615182Y-11002984D01*
X2615182Y-11002984D02*
X2738991Y-11002984D01*
X2805658Y-10802984D02*
X2938991Y-10802984D01*
X2938991Y-10802984D02*
X2853277Y-11002984D01*
X3100896Y-10802984D02*
X3062801Y-10802984D01*
X3062801Y-10802984D02*
X3043753Y-10812508D01*
X3043753Y-10812508D02*
X3034229Y-10822031D01*
X3034229Y-10822031D02*
X3015182Y-10850603D01*
X3015182Y-10850603D02*
X3005658Y-10888698D01*
X3005658Y-10888698D02*
X3005658Y-10964889D01*
X3005658Y-10964889D02*
X3015182Y-10983936D01*
X3015182Y-10983936D02*
X3024706Y-10993460D01*
X3024706Y-10993460D02*
X3043753Y-11002984D01*
X3043753Y-11002984D02*
X3081848Y-11002984D01*
X3081848Y-11002984D02*
X3100896Y-10993460D01*
X3100896Y-10993460D02*
X3110420Y-10983936D01*
X3110420Y-10983936D02*
X3119944Y-10964889D01*
X3119944Y-10964889D02*
X3119944Y-10917270D01*
X3119944Y-10917270D02*
X3110420Y-10898222D01*
X3110420Y-10898222D02*
X3100896Y-10888698D01*
X3100896Y-10888698D02*
X3081848Y-10879174D01*
X3081848Y-10879174D02*
X3043753Y-10879174D01*
X3043753Y-10879174D02*
X3024706Y-10888698D01*
X3024706Y-10888698D02*
X3015182Y-10898222D01*
X3015182Y-10898222D02*
X3005658Y-10917270D01*
X3196134Y-10802984D02*
X3196134Y-10841079D01*
X3272325Y-10802984D02*
X3272325Y-10841079D01*
X3567563Y-11079174D02*
X3558039Y-11069650D01*
X3558039Y-11069650D02*
X3538991Y-11041079D01*
X3538991Y-11041079D02*
X3529468Y-11022031D01*
X3529468Y-11022031D02*
X3519944Y-10993460D01*
X3519944Y-10993460D02*
X3510420Y-10945841D01*
X3510420Y-10945841D02*
X3510420Y-10907746D01*
X3510420Y-10907746D02*
X3519944Y-10860127D01*
X3519944Y-10860127D02*
X3529468Y-10831555D01*
X3529468Y-10831555D02*
X3538991Y-10812508D01*
X3538991Y-10812508D02*
X3558039Y-10783936D01*
X3558039Y-10783936D02*
X3567563Y-10774412D01*
X3624706Y-10802984D02*
X3748515Y-10802984D01*
X3748515Y-10802984D02*
X3681848Y-10879174D01*
X3681848Y-10879174D02*
X3710420Y-10879174D01*
X3710420Y-10879174D02*
X3729468Y-10888698D01*
X3729468Y-10888698D02*
X3738991Y-10898222D01*
X3738991Y-10898222D02*
X3748515Y-10917270D01*
X3748515Y-10917270D02*
X3748515Y-10964889D01*
X3748515Y-10964889D02*
X3738991Y-10983936D01*
X3738991Y-10983936D02*
X3729468Y-10993460D01*
X3729468Y-10993460D02*
X3710420Y-11002984D01*
X3710420Y-11002984D02*
X3653277Y-11002984D01*
X3653277Y-11002984D02*
X3634229Y-10993460D01*
X3634229Y-10993460D02*
X3624706Y-10983936D01*
X3919944Y-10802984D02*
X3881848Y-10802984D01*
X3881848Y-10802984D02*
X3862801Y-10812508D01*
X3862801Y-10812508D02*
X3853277Y-10822031D01*
X3853277Y-10822031D02*
X3834229Y-10850603D01*
X3834229Y-10850603D02*
X3824706Y-10888698D01*
X3824706Y-10888698D02*
X3824706Y-10964889D01*
X3824706Y-10964889D02*
X3834229Y-10983936D01*
X3834229Y-10983936D02*
X3843753Y-10993460D01*
X3843753Y-10993460D02*
X3862801Y-11002984D01*
X3862801Y-11002984D02*
X3900896Y-11002984D01*
X3900896Y-11002984D02*
X3919944Y-10993460D01*
X3919944Y-10993460D02*
X3929468Y-10983936D01*
X3929468Y-10983936D02*
X3938991Y-10964889D01*
X3938991Y-10964889D02*
X3938991Y-10917270D01*
X3938991Y-10917270D02*
X3929468Y-10898222D01*
X3929468Y-10898222D02*
X3919944Y-10888698D01*
X3919944Y-10888698D02*
X3900896Y-10879174D01*
X3900896Y-10879174D02*
X3862801Y-10879174D01*
X3862801Y-10879174D02*
X3843753Y-10888698D01*
X3843753Y-10888698D02*
X3834229Y-10898222D01*
X3834229Y-10898222D02*
X3824706Y-10917270D01*
X4177087Y-11002984D02*
X4177087Y-10802984D01*
X4262801Y-11002984D02*
X4262801Y-10898222D01*
X4262801Y-10898222D02*
X4253277Y-10879174D01*
X4253277Y-10879174D02*
X4234230Y-10869650D01*
X4234230Y-10869650D02*
X4205658Y-10869650D01*
X4205658Y-10869650D02*
X4186610Y-10879174D01*
X4186610Y-10879174D02*
X4177087Y-10888698D01*
X4386611Y-11002984D02*
X4367563Y-10993460D01*
X4367563Y-10993460D02*
X4358039Y-10983936D01*
X4358039Y-10983936D02*
X4348515Y-10964889D01*
X4348515Y-10964889D02*
X4348515Y-10907746D01*
X4348515Y-10907746D02*
X4358039Y-10888698D01*
X4358039Y-10888698D02*
X4367563Y-10879174D01*
X4367563Y-10879174D02*
X4386611Y-10869650D01*
X4386611Y-10869650D02*
X4415182Y-10869650D01*
X4415182Y-10869650D02*
X4434230Y-10879174D01*
X4434230Y-10879174D02*
X4443753Y-10888698D01*
X4443753Y-10888698D02*
X4453277Y-10907746D01*
X4453277Y-10907746D02*
X4453277Y-10964889D01*
X4453277Y-10964889D02*
X4443753Y-10983936D01*
X4443753Y-10983936D02*
X4434230Y-10993460D01*
X4434230Y-10993460D02*
X4415182Y-11002984D01*
X4415182Y-11002984D02*
X4386611Y-11002984D01*
X4567563Y-11002984D02*
X4548515Y-10993460D01*
X4548515Y-10993460D02*
X4538992Y-10974412D01*
X4538992Y-10974412D02*
X4538992Y-10802984D01*
X4719944Y-10993460D02*
X4700896Y-11002984D01*
X4700896Y-11002984D02*
X4662801Y-11002984D01*
X4662801Y-11002984D02*
X4643753Y-10993460D01*
X4643753Y-10993460D02*
X4634230Y-10974412D01*
X4634230Y-10974412D02*
X4634230Y-10898222D01*
X4634230Y-10898222D02*
X4643753Y-10879174D01*
X4643753Y-10879174D02*
X4662801Y-10869650D01*
X4662801Y-10869650D02*
X4700896Y-10869650D01*
X4700896Y-10869650D02*
X4719944Y-10879174D01*
X4719944Y-10879174D02*
X4729468Y-10898222D01*
X4729468Y-10898222D02*
X4729468Y-10917270D01*
X4729468Y-10917270D02*
X4634230Y-10936317D01*
X4805658Y-10993460D02*
X4824706Y-11002984D01*
X4824706Y-11002984D02*
X4862801Y-11002984D01*
X4862801Y-11002984D02*
X4881849Y-10993460D01*
X4881849Y-10993460D02*
X4891373Y-10974412D01*
X4891373Y-10974412D02*
X4891373Y-10964889D01*
X4891373Y-10964889D02*
X4881849Y-10945841D01*
X4881849Y-10945841D02*
X4862801Y-10936317D01*
X4862801Y-10936317D02*
X4834230Y-10936317D01*
X4834230Y-10936317D02*
X4815182Y-10926793D01*
X4815182Y-10926793D02*
X4805658Y-10907746D01*
X4805658Y-10907746D02*
X4805658Y-10898222D01*
X4805658Y-10898222D02*
X4815182Y-10879174D01*
X4815182Y-10879174D02*
X4834230Y-10869650D01*
X4834230Y-10869650D02*
X4862801Y-10869650D01*
X4862801Y-10869650D02*
X4881849Y-10879174D01*
X4958039Y-11079174D02*
X4967563Y-11069650D01*
X4967563Y-11069650D02*
X4986611Y-11041079D01*
X4986611Y-11041079D02*
X4996134Y-11022031D01*
X4996134Y-11022031D02*
X5005658Y-10993460D01*
X5005658Y-10993460D02*
X5015182Y-10945841D01*
X5015182Y-10945841D02*
X5015182Y-10907746D01*
X5015182Y-10907746D02*
X5005658Y-10860127D01*
X5005658Y-10860127D02*
X4996134Y-10831555D01*
X4996134Y-10831555D02*
X4986611Y-10812508D01*
X4986611Y-10812508D02*
X4967563Y-10783936D01*
X4967563Y-10783936D02*
X4958039Y-10774412D01*
D12*
X-47500Y-11135500D02*
X-47500Y-11215500D01*
X-87500Y-11175500D02*
X-7500Y-11175500D01*
D11*
X291372Y-11066984D02*
X310420Y-11066984D01*
X310420Y-11066984D02*
X329467Y-11076508D01*
X329467Y-11076508D02*
X338991Y-11086031D01*
X338991Y-11086031D02*
X348515Y-11105079D01*
X348515Y-11105079D02*
X358039Y-11143174D01*
X358039Y-11143174D02*
X358039Y-11190793D01*
X358039Y-11190793D02*
X348515Y-11228888D01*
X348515Y-11228888D02*
X338991Y-11247936D01*
X338991Y-11247936D02*
X329467Y-11257460D01*
X329467Y-11257460D02*
X310420Y-11266984D01*
X310420Y-11266984D02*
X291372Y-11266984D01*
X291372Y-11266984D02*
X272324Y-11257460D01*
X272324Y-11257460D02*
X262801Y-11247936D01*
X262801Y-11247936D02*
X253277Y-11228888D01*
X253277Y-11228888D02*
X243753Y-11190793D01*
X243753Y-11190793D02*
X243753Y-11143174D01*
X243753Y-11143174D02*
X253277Y-11105079D01*
X253277Y-11105079D02*
X262801Y-11086031D01*
X262801Y-11086031D02*
X272324Y-11076508D01*
X272324Y-11076508D02*
X291372Y-11066984D01*
X443753Y-11247936D02*
X453277Y-11257460D01*
X453277Y-11257460D02*
X443753Y-11266984D01*
X443753Y-11266984D02*
X434229Y-11257460D01*
X434229Y-11257460D02*
X443753Y-11247936D01*
X443753Y-11247936D02*
X443753Y-11266984D01*
X567563Y-11152698D02*
X548515Y-11143174D01*
X548515Y-11143174D02*
X538991Y-11133650D01*
X538991Y-11133650D02*
X529467Y-11114603D01*
X529467Y-11114603D02*
X529467Y-11105079D01*
X529467Y-11105079D02*
X538991Y-11086031D01*
X538991Y-11086031D02*
X548515Y-11076508D01*
X548515Y-11076508D02*
X567563Y-11066984D01*
X567563Y-11066984D02*
X605658Y-11066984D01*
X605658Y-11066984D02*
X624705Y-11076508D01*
X624705Y-11076508D02*
X634229Y-11086031D01*
X634229Y-11086031D02*
X643753Y-11105079D01*
X643753Y-11105079D02*
X643753Y-11114603D01*
X643753Y-11114603D02*
X634229Y-11133650D01*
X634229Y-11133650D02*
X624705Y-11143174D01*
X624705Y-11143174D02*
X605658Y-11152698D01*
X605658Y-11152698D02*
X567563Y-11152698D01*
X567563Y-11152698D02*
X548515Y-11162222D01*
X548515Y-11162222D02*
X538991Y-11171746D01*
X538991Y-11171746D02*
X529467Y-11190793D01*
X529467Y-11190793D02*
X529467Y-11228888D01*
X529467Y-11228888D02*
X538991Y-11247936D01*
X538991Y-11247936D02*
X548515Y-11257460D01*
X548515Y-11257460D02*
X567563Y-11266984D01*
X567563Y-11266984D02*
X605658Y-11266984D01*
X605658Y-11266984D02*
X624705Y-11257460D01*
X624705Y-11257460D02*
X634229Y-11247936D01*
X634229Y-11247936D02*
X643753Y-11228888D01*
X643753Y-11228888D02*
X643753Y-11190793D01*
X643753Y-11190793D02*
X634229Y-11171746D01*
X634229Y-11171746D02*
X624705Y-11162222D01*
X624705Y-11162222D02*
X605658Y-11152698D01*
X767562Y-11066984D02*
X786610Y-11066984D01*
X786610Y-11066984D02*
X805658Y-11076508D01*
X805658Y-11076508D02*
X815182Y-11086031D01*
X815182Y-11086031D02*
X824705Y-11105079D01*
X824705Y-11105079D02*
X834229Y-11143174D01*
X834229Y-11143174D02*
X834229Y-11190793D01*
X834229Y-11190793D02*
X824705Y-11228888D01*
X824705Y-11228888D02*
X815182Y-11247936D01*
X815182Y-11247936D02*
X805658Y-11257460D01*
X805658Y-11257460D02*
X786610Y-11266984D01*
X786610Y-11266984D02*
X767562Y-11266984D01*
X767562Y-11266984D02*
X748515Y-11257460D01*
X748515Y-11257460D02*
X738991Y-11247936D01*
X738991Y-11247936D02*
X729467Y-11228888D01*
X729467Y-11228888D02*
X719943Y-11190793D01*
X719943Y-11190793D02*
X719943Y-11143174D01*
X719943Y-11143174D02*
X729467Y-11105079D01*
X729467Y-11105079D02*
X738991Y-11086031D01*
X738991Y-11086031D02*
X748515Y-11076508D01*
X748515Y-11076508D02*
X767562Y-11066984D01*
X958039Y-11066984D02*
X977086Y-11066984D01*
X977086Y-11066984D02*
X996134Y-11076508D01*
X996134Y-11076508D02*
X1005658Y-11086031D01*
X1005658Y-11086031D02*
X1015182Y-11105079D01*
X1015182Y-11105079D02*
X1024705Y-11143174D01*
X1024705Y-11143174D02*
X1024705Y-11190793D01*
X1024705Y-11190793D02*
X1015182Y-11228888D01*
X1015182Y-11228888D02*
X1005658Y-11247936D01*
X1005658Y-11247936D02*
X996134Y-11257460D01*
X996134Y-11257460D02*
X977086Y-11266984D01*
X977086Y-11266984D02*
X958039Y-11266984D01*
X958039Y-11266984D02*
X938991Y-11257460D01*
X938991Y-11257460D02*
X929467Y-11247936D01*
X929467Y-11247936D02*
X919943Y-11228888D01*
X919943Y-11228888D02*
X910420Y-11190793D01*
X910420Y-11190793D02*
X910420Y-11143174D01*
X910420Y-11143174D02*
X919943Y-11105079D01*
X919943Y-11105079D02*
X929467Y-11086031D01*
X929467Y-11086031D02*
X938991Y-11076508D01*
X938991Y-11076508D02*
X958039Y-11066984D01*
X1110420Y-11266984D02*
X1110420Y-11133650D01*
X1110420Y-11152698D02*
X1119944Y-11143174D01*
X1119944Y-11143174D02*
X1138991Y-11133650D01*
X1138991Y-11133650D02*
X1167563Y-11133650D01*
X1167563Y-11133650D02*
X1186610Y-11143174D01*
X1186610Y-11143174D02*
X1196134Y-11162222D01*
X1196134Y-11162222D02*
X1196134Y-11266984D01*
X1196134Y-11162222D02*
X1205658Y-11143174D01*
X1205658Y-11143174D02*
X1224705Y-11133650D01*
X1224705Y-11133650D02*
X1253277Y-11133650D01*
X1253277Y-11133650D02*
X1272325Y-11143174D01*
X1272325Y-11143174D02*
X1281848Y-11162222D01*
X1281848Y-11162222D02*
X1281848Y-11266984D01*
X1377086Y-11266984D02*
X1377086Y-11133650D01*
X1377086Y-11152698D02*
X1386610Y-11143174D01*
X1386610Y-11143174D02*
X1405658Y-11133650D01*
X1405658Y-11133650D02*
X1434229Y-11133650D01*
X1434229Y-11133650D02*
X1453277Y-11143174D01*
X1453277Y-11143174D02*
X1462801Y-11162222D01*
X1462801Y-11162222D02*
X1462801Y-11266984D01*
X1462801Y-11162222D02*
X1472324Y-11143174D01*
X1472324Y-11143174D02*
X1491372Y-11133650D01*
X1491372Y-11133650D02*
X1519943Y-11133650D01*
X1519943Y-11133650D02*
X1538991Y-11143174D01*
X1538991Y-11143174D02*
X1548515Y-11162222D01*
X1548515Y-11162222D02*
X1548515Y-11266984D01*
X1938991Y-11057460D02*
X1767563Y-11314603D01*
X2196134Y-11066984D02*
X2215182Y-11066984D01*
X2215182Y-11066984D02*
X2234229Y-11076508D01*
X2234229Y-11076508D02*
X2243753Y-11086031D01*
X2243753Y-11086031D02*
X2253277Y-11105079D01*
X2253277Y-11105079D02*
X2262801Y-11143174D01*
X2262801Y-11143174D02*
X2262801Y-11190793D01*
X2262801Y-11190793D02*
X2253277Y-11228888D01*
X2253277Y-11228888D02*
X2243753Y-11247936D01*
X2243753Y-11247936D02*
X2234229Y-11257460D01*
X2234229Y-11257460D02*
X2215182Y-11266984D01*
X2215182Y-11266984D02*
X2196134Y-11266984D01*
X2196134Y-11266984D02*
X2177087Y-11257460D01*
X2177087Y-11257460D02*
X2167563Y-11247936D01*
X2167563Y-11247936D02*
X2158039Y-11228888D01*
X2158039Y-11228888D02*
X2148515Y-11190793D01*
X2148515Y-11190793D02*
X2148515Y-11143174D01*
X2148515Y-11143174D02*
X2158039Y-11105079D01*
X2158039Y-11105079D02*
X2167563Y-11086031D01*
X2167563Y-11086031D02*
X2177087Y-11076508D01*
X2177087Y-11076508D02*
X2196134Y-11066984D01*
X2348515Y-11247936D02*
X2358039Y-11257460D01*
X2358039Y-11257460D02*
X2348515Y-11266984D01*
X2348515Y-11266984D02*
X2338991Y-11257460D01*
X2338991Y-11257460D02*
X2348515Y-11247936D01*
X2348515Y-11247936D02*
X2348515Y-11266984D01*
X2481848Y-11066984D02*
X2500896Y-11066984D01*
X2500896Y-11066984D02*
X2519944Y-11076508D01*
X2519944Y-11076508D02*
X2529468Y-11086031D01*
X2529468Y-11086031D02*
X2538991Y-11105079D01*
X2538991Y-11105079D02*
X2548515Y-11143174D01*
X2548515Y-11143174D02*
X2548515Y-11190793D01*
X2548515Y-11190793D02*
X2538991Y-11228888D01*
X2538991Y-11228888D02*
X2529468Y-11247936D01*
X2529468Y-11247936D02*
X2519944Y-11257460D01*
X2519944Y-11257460D02*
X2500896Y-11266984D01*
X2500896Y-11266984D02*
X2481848Y-11266984D01*
X2481848Y-11266984D02*
X2462801Y-11257460D01*
X2462801Y-11257460D02*
X2453277Y-11247936D01*
X2453277Y-11247936D02*
X2443753Y-11228888D01*
X2443753Y-11228888D02*
X2434229Y-11190793D01*
X2434229Y-11190793D02*
X2434229Y-11143174D01*
X2434229Y-11143174D02*
X2443753Y-11105079D01*
X2443753Y-11105079D02*
X2453277Y-11086031D01*
X2453277Y-11086031D02*
X2462801Y-11076508D01*
X2462801Y-11076508D02*
X2481848Y-11066984D01*
X2615182Y-11066984D02*
X2738991Y-11066984D01*
X2738991Y-11066984D02*
X2672325Y-11143174D01*
X2672325Y-11143174D02*
X2700896Y-11143174D01*
X2700896Y-11143174D02*
X2719944Y-11152698D01*
X2719944Y-11152698D02*
X2729468Y-11162222D01*
X2729468Y-11162222D02*
X2738991Y-11181270D01*
X2738991Y-11181270D02*
X2738991Y-11228888D01*
X2738991Y-11228888D02*
X2729468Y-11247936D01*
X2729468Y-11247936D02*
X2719944Y-11257460D01*
X2719944Y-11257460D02*
X2700896Y-11266984D01*
X2700896Y-11266984D02*
X2643753Y-11266984D01*
X2643753Y-11266984D02*
X2624706Y-11257460D01*
X2624706Y-11257460D02*
X2615182Y-11247936D01*
X2929467Y-11266984D02*
X2815182Y-11266984D01*
X2872325Y-11266984D02*
X2872325Y-11066984D01*
X2872325Y-11066984D02*
X2853277Y-11095555D01*
X2853277Y-11095555D02*
X2834229Y-11114603D01*
X2834229Y-11114603D02*
X2815182Y-11124127D01*
X3110420Y-11066984D02*
X3015182Y-11066984D01*
X3015182Y-11066984D02*
X3005658Y-11162222D01*
X3005658Y-11162222D02*
X3015182Y-11152698D01*
X3015182Y-11152698D02*
X3034229Y-11143174D01*
X3034229Y-11143174D02*
X3081848Y-11143174D01*
X3081848Y-11143174D02*
X3100896Y-11152698D01*
X3100896Y-11152698D02*
X3110420Y-11162222D01*
X3110420Y-11162222D02*
X3119944Y-11181270D01*
X3119944Y-11181270D02*
X3119944Y-11228888D01*
X3119944Y-11228888D02*
X3110420Y-11247936D01*
X3110420Y-11247936D02*
X3100896Y-11257460D01*
X3100896Y-11257460D02*
X3081848Y-11266984D01*
X3081848Y-11266984D02*
X3034229Y-11266984D01*
X3034229Y-11266984D02*
X3015182Y-11257460D01*
X3015182Y-11257460D02*
X3005658Y-11247936D01*
X3196134Y-11066984D02*
X3196134Y-11105079D01*
X3272325Y-11066984D02*
X3272325Y-11105079D01*
X3567563Y-11343174D02*
X3558039Y-11333650D01*
X3558039Y-11333650D02*
X3538991Y-11305079D01*
X3538991Y-11305079D02*
X3529468Y-11286031D01*
X3529468Y-11286031D02*
X3519944Y-11257460D01*
X3519944Y-11257460D02*
X3510420Y-11209841D01*
X3510420Y-11209841D02*
X3510420Y-11171746D01*
X3510420Y-11171746D02*
X3519944Y-11124127D01*
X3519944Y-11124127D02*
X3529468Y-11095555D01*
X3529468Y-11095555D02*
X3538991Y-11076508D01*
X3538991Y-11076508D02*
X3558039Y-11047936D01*
X3558039Y-11047936D02*
X3567563Y-11038412D01*
X3672325Y-11152698D02*
X3653277Y-11143174D01*
X3653277Y-11143174D02*
X3643753Y-11133650D01*
X3643753Y-11133650D02*
X3634229Y-11114603D01*
X3634229Y-11114603D02*
X3634229Y-11105079D01*
X3634229Y-11105079D02*
X3643753Y-11086031D01*
X3643753Y-11086031D02*
X3653277Y-11076508D01*
X3653277Y-11076508D02*
X3672325Y-11066984D01*
X3672325Y-11066984D02*
X3710420Y-11066984D01*
X3710420Y-11066984D02*
X3729468Y-11076508D01*
X3729468Y-11076508D02*
X3738991Y-11086031D01*
X3738991Y-11086031D02*
X3748515Y-11105079D01*
X3748515Y-11105079D02*
X3748515Y-11114603D01*
X3748515Y-11114603D02*
X3738991Y-11133650D01*
X3738991Y-11133650D02*
X3729468Y-11143174D01*
X3729468Y-11143174D02*
X3710420Y-11152698D01*
X3710420Y-11152698D02*
X3672325Y-11152698D01*
X3672325Y-11152698D02*
X3653277Y-11162222D01*
X3653277Y-11162222D02*
X3643753Y-11171746D01*
X3643753Y-11171746D02*
X3634229Y-11190793D01*
X3634229Y-11190793D02*
X3634229Y-11228888D01*
X3634229Y-11228888D02*
X3643753Y-11247936D01*
X3643753Y-11247936D02*
X3653277Y-11257460D01*
X3653277Y-11257460D02*
X3672325Y-11266984D01*
X3672325Y-11266984D02*
X3710420Y-11266984D01*
X3710420Y-11266984D02*
X3729468Y-11257460D01*
X3729468Y-11257460D02*
X3738991Y-11247936D01*
X3738991Y-11247936D02*
X3748515Y-11228888D01*
X3748515Y-11228888D02*
X3748515Y-11190793D01*
X3748515Y-11190793D02*
X3738991Y-11171746D01*
X3738991Y-11171746D02*
X3729468Y-11162222D01*
X3729468Y-11162222D02*
X3710420Y-11152698D01*
X3986610Y-11266984D02*
X3986610Y-11066984D01*
X4072325Y-11266984D02*
X4072325Y-11162222D01*
X4072325Y-11162222D02*
X4062801Y-11143174D01*
X4062801Y-11143174D02*
X4043753Y-11133650D01*
X4043753Y-11133650D02*
X4015182Y-11133650D01*
X4015182Y-11133650D02*
X3996134Y-11143174D01*
X3996134Y-11143174D02*
X3986610Y-11152698D01*
X4196134Y-11266984D02*
X4177087Y-11257460D01*
X4177087Y-11257460D02*
X4167563Y-11247936D01*
X4167563Y-11247936D02*
X4158039Y-11228888D01*
X4158039Y-11228888D02*
X4158039Y-11171746D01*
X4158039Y-11171746D02*
X4167563Y-11152698D01*
X4167563Y-11152698D02*
X4177087Y-11143174D01*
X4177087Y-11143174D02*
X4196134Y-11133650D01*
X4196134Y-11133650D02*
X4224706Y-11133650D01*
X4224706Y-11133650D02*
X4243753Y-11143174D01*
X4243753Y-11143174D02*
X4253277Y-11152698D01*
X4253277Y-11152698D02*
X4262801Y-11171746D01*
X4262801Y-11171746D02*
X4262801Y-11228888D01*
X4262801Y-11228888D02*
X4253277Y-11247936D01*
X4253277Y-11247936D02*
X4243753Y-11257460D01*
X4243753Y-11257460D02*
X4224706Y-11266984D01*
X4224706Y-11266984D02*
X4196134Y-11266984D01*
X4377087Y-11266984D02*
X4358039Y-11257460D01*
X4358039Y-11257460D02*
X4348515Y-11238412D01*
X4348515Y-11238412D02*
X4348515Y-11066984D01*
X4529468Y-11257460D02*
X4510420Y-11266984D01*
X4510420Y-11266984D02*
X4472325Y-11266984D01*
X4472325Y-11266984D02*
X4453277Y-11257460D01*
X4453277Y-11257460D02*
X4443753Y-11238412D01*
X4443753Y-11238412D02*
X4443753Y-11162222D01*
X4443753Y-11162222D02*
X4453277Y-11143174D01*
X4453277Y-11143174D02*
X4472325Y-11133650D01*
X4472325Y-11133650D02*
X4510420Y-11133650D01*
X4510420Y-11133650D02*
X4529468Y-11143174D01*
X4529468Y-11143174D02*
X4538992Y-11162222D01*
X4538992Y-11162222D02*
X4538992Y-11181270D01*
X4538992Y-11181270D02*
X4443753Y-11200317D01*
X4615182Y-11257460D02*
X4634230Y-11266984D01*
X4634230Y-11266984D02*
X4672325Y-11266984D01*
X4672325Y-11266984D02*
X4691373Y-11257460D01*
X4691373Y-11257460D02*
X4700896Y-11238412D01*
X4700896Y-11238412D02*
X4700896Y-11228888D01*
X4700896Y-11228888D02*
X4691373Y-11209841D01*
X4691373Y-11209841D02*
X4672325Y-11200317D01*
X4672325Y-11200317D02*
X4643753Y-11200317D01*
X4643753Y-11200317D02*
X4624706Y-11190793D01*
X4624706Y-11190793D02*
X4615182Y-11171746D01*
X4615182Y-11171746D02*
X4615182Y-11162222D01*
X4615182Y-11162222D02*
X4624706Y-11143174D01*
X4624706Y-11143174D02*
X4643753Y-11133650D01*
X4643753Y-11133650D02*
X4672325Y-11133650D01*
X4672325Y-11133650D02*
X4691373Y-11143174D01*
X4767563Y-11343174D02*
X4777087Y-11333650D01*
X4777087Y-11333650D02*
X4796134Y-11305079D01*
X4796134Y-11305079D02*
X4805658Y-11286031D01*
X4805658Y-11286031D02*
X4815182Y-11257460D01*
X4815182Y-11257460D02*
X4824706Y-11209841D01*
X4824706Y-11209841D02*
X4824706Y-11171746D01*
X4824706Y-11171746D02*
X4815182Y-11124127D01*
X4815182Y-11124127D02*
X4805658Y-11095555D01*
X4805658Y-11095555D02*
X4796134Y-11076508D01*
X4796134Y-11076508D02*
X4777087Y-11047936D01*
X4777087Y-11047936D02*
X4767563Y-11038412D01*
D12*
X-20533Y-11470967D02*
X-20533Y-11408033D01*
X-83467Y-11408033D01*
X-83467Y-11470967D01*
X-20533Y-11470967D01*
D11*
X291372Y-11330984D02*
X310420Y-11330984D01*
X310420Y-11330984D02*
X329467Y-11340508D01*
X329467Y-11340508D02*
X338991Y-11350031D01*
X338991Y-11350031D02*
X348515Y-11369079D01*
X348515Y-11369079D02*
X358039Y-11407174D01*
X358039Y-11407174D02*
X358039Y-11454793D01*
X358039Y-11454793D02*
X348515Y-11492888D01*
X348515Y-11492888D02*
X338991Y-11511936D01*
X338991Y-11511936D02*
X329467Y-11521460D01*
X329467Y-11521460D02*
X310420Y-11530984D01*
X310420Y-11530984D02*
X291372Y-11530984D01*
X291372Y-11530984D02*
X272324Y-11521460D01*
X272324Y-11521460D02*
X262801Y-11511936D01*
X262801Y-11511936D02*
X253277Y-11492888D01*
X253277Y-11492888D02*
X243753Y-11454793D01*
X243753Y-11454793D02*
X243753Y-11407174D01*
X243753Y-11407174D02*
X253277Y-11369079D01*
X253277Y-11369079D02*
X262801Y-11350031D01*
X262801Y-11350031D02*
X272324Y-11340508D01*
X272324Y-11340508D02*
X291372Y-11330984D01*
X443753Y-11511936D02*
X453277Y-11521460D01*
X453277Y-11521460D02*
X443753Y-11530984D01*
X443753Y-11530984D02*
X434229Y-11521460D01*
X434229Y-11521460D02*
X443753Y-11511936D01*
X443753Y-11511936D02*
X443753Y-11530984D01*
X567563Y-11416698D02*
X548515Y-11407174D01*
X548515Y-11407174D02*
X538991Y-11397650D01*
X538991Y-11397650D02*
X529467Y-11378603D01*
X529467Y-11378603D02*
X529467Y-11369079D01*
X529467Y-11369079D02*
X538991Y-11350031D01*
X538991Y-11350031D02*
X548515Y-11340508D01*
X548515Y-11340508D02*
X567563Y-11330984D01*
X567563Y-11330984D02*
X605658Y-11330984D01*
X605658Y-11330984D02*
X624705Y-11340508D01*
X624705Y-11340508D02*
X634229Y-11350031D01*
X634229Y-11350031D02*
X643753Y-11369079D01*
X643753Y-11369079D02*
X643753Y-11378603D01*
X643753Y-11378603D02*
X634229Y-11397650D01*
X634229Y-11397650D02*
X624705Y-11407174D01*
X624705Y-11407174D02*
X605658Y-11416698D01*
X605658Y-11416698D02*
X567563Y-11416698D01*
X567563Y-11416698D02*
X548515Y-11426222D01*
X548515Y-11426222D02*
X538991Y-11435746D01*
X538991Y-11435746D02*
X529467Y-11454793D01*
X529467Y-11454793D02*
X529467Y-11492888D01*
X529467Y-11492888D02*
X538991Y-11511936D01*
X538991Y-11511936D02*
X548515Y-11521460D01*
X548515Y-11521460D02*
X567563Y-11530984D01*
X567563Y-11530984D02*
X605658Y-11530984D01*
X605658Y-11530984D02*
X624705Y-11521460D01*
X624705Y-11521460D02*
X634229Y-11511936D01*
X634229Y-11511936D02*
X643753Y-11492888D01*
X643753Y-11492888D02*
X643753Y-11454793D01*
X643753Y-11454793D02*
X634229Y-11435746D01*
X634229Y-11435746D02*
X624705Y-11426222D01*
X624705Y-11426222D02*
X605658Y-11416698D01*
X738991Y-11530984D02*
X777086Y-11530984D01*
X777086Y-11530984D02*
X796134Y-11521460D01*
X796134Y-11521460D02*
X805658Y-11511936D01*
X805658Y-11511936D02*
X824705Y-11483365D01*
X824705Y-11483365D02*
X834229Y-11445269D01*
X834229Y-11445269D02*
X834229Y-11369079D01*
X834229Y-11369079D02*
X824705Y-11350031D01*
X824705Y-11350031D02*
X815182Y-11340508D01*
X815182Y-11340508D02*
X796134Y-11330984D01*
X796134Y-11330984D02*
X758039Y-11330984D01*
X758039Y-11330984D02*
X738991Y-11340508D01*
X738991Y-11340508D02*
X729467Y-11350031D01*
X729467Y-11350031D02*
X719943Y-11369079D01*
X719943Y-11369079D02*
X719943Y-11416698D01*
X719943Y-11416698D02*
X729467Y-11435746D01*
X729467Y-11435746D02*
X738991Y-11445269D01*
X738991Y-11445269D02*
X758039Y-11454793D01*
X758039Y-11454793D02*
X796134Y-11454793D01*
X796134Y-11454793D02*
X815182Y-11445269D01*
X815182Y-11445269D02*
X824705Y-11435746D01*
X824705Y-11435746D02*
X834229Y-11416698D01*
X958039Y-11330984D02*
X977086Y-11330984D01*
X977086Y-11330984D02*
X996134Y-11340508D01*
X996134Y-11340508D02*
X1005658Y-11350031D01*
X1005658Y-11350031D02*
X1015182Y-11369079D01*
X1015182Y-11369079D02*
X1024705Y-11407174D01*
X1024705Y-11407174D02*
X1024705Y-11454793D01*
X1024705Y-11454793D02*
X1015182Y-11492888D01*
X1015182Y-11492888D02*
X1005658Y-11511936D01*
X1005658Y-11511936D02*
X996134Y-11521460D01*
X996134Y-11521460D02*
X977086Y-11530984D01*
X977086Y-11530984D02*
X958039Y-11530984D01*
X958039Y-11530984D02*
X938991Y-11521460D01*
X938991Y-11521460D02*
X929467Y-11511936D01*
X929467Y-11511936D02*
X919943Y-11492888D01*
X919943Y-11492888D02*
X910420Y-11454793D01*
X910420Y-11454793D02*
X910420Y-11407174D01*
X910420Y-11407174D02*
X919943Y-11369079D01*
X919943Y-11369079D02*
X929467Y-11350031D01*
X929467Y-11350031D02*
X938991Y-11340508D01*
X938991Y-11340508D02*
X958039Y-11330984D01*
X1110420Y-11530984D02*
X1110420Y-11397650D01*
X1110420Y-11416698D02*
X1119944Y-11407174D01*
X1119944Y-11407174D02*
X1138991Y-11397650D01*
X1138991Y-11397650D02*
X1167563Y-11397650D01*
X1167563Y-11397650D02*
X1186610Y-11407174D01*
X1186610Y-11407174D02*
X1196134Y-11426222D01*
X1196134Y-11426222D02*
X1196134Y-11530984D01*
X1196134Y-11426222D02*
X1205658Y-11407174D01*
X1205658Y-11407174D02*
X1224705Y-11397650D01*
X1224705Y-11397650D02*
X1253277Y-11397650D01*
X1253277Y-11397650D02*
X1272325Y-11407174D01*
X1272325Y-11407174D02*
X1281848Y-11426222D01*
X1281848Y-11426222D02*
X1281848Y-11530984D01*
X1377086Y-11530984D02*
X1377086Y-11397650D01*
X1377086Y-11416698D02*
X1386610Y-11407174D01*
X1386610Y-11407174D02*
X1405658Y-11397650D01*
X1405658Y-11397650D02*
X1434229Y-11397650D01*
X1434229Y-11397650D02*
X1453277Y-11407174D01*
X1453277Y-11407174D02*
X1462801Y-11426222D01*
X1462801Y-11426222D02*
X1462801Y-11530984D01*
X1462801Y-11426222D02*
X1472324Y-11407174D01*
X1472324Y-11407174D02*
X1491372Y-11397650D01*
X1491372Y-11397650D02*
X1519943Y-11397650D01*
X1519943Y-11397650D02*
X1538991Y-11407174D01*
X1538991Y-11407174D02*
X1548515Y-11426222D01*
X1548515Y-11426222D02*
X1548515Y-11530984D01*
X1938991Y-11321460D02*
X1767563Y-11578603D01*
X2196134Y-11330984D02*
X2215182Y-11330984D01*
X2215182Y-11330984D02*
X2234229Y-11340508D01*
X2234229Y-11340508D02*
X2243753Y-11350031D01*
X2243753Y-11350031D02*
X2253277Y-11369079D01*
X2253277Y-11369079D02*
X2262801Y-11407174D01*
X2262801Y-11407174D02*
X2262801Y-11454793D01*
X2262801Y-11454793D02*
X2253277Y-11492888D01*
X2253277Y-11492888D02*
X2243753Y-11511936D01*
X2243753Y-11511936D02*
X2234229Y-11521460D01*
X2234229Y-11521460D02*
X2215182Y-11530984D01*
X2215182Y-11530984D02*
X2196134Y-11530984D01*
X2196134Y-11530984D02*
X2177087Y-11521460D01*
X2177087Y-11521460D02*
X2167563Y-11511936D01*
X2167563Y-11511936D02*
X2158039Y-11492888D01*
X2158039Y-11492888D02*
X2148515Y-11454793D01*
X2148515Y-11454793D02*
X2148515Y-11407174D01*
X2148515Y-11407174D02*
X2158039Y-11369079D01*
X2158039Y-11369079D02*
X2167563Y-11350031D01*
X2167563Y-11350031D02*
X2177087Y-11340508D01*
X2177087Y-11340508D02*
X2196134Y-11330984D01*
X2348515Y-11511936D02*
X2358039Y-11521460D01*
X2358039Y-11521460D02*
X2348515Y-11530984D01*
X2348515Y-11530984D02*
X2338991Y-11521460D01*
X2338991Y-11521460D02*
X2348515Y-11511936D01*
X2348515Y-11511936D02*
X2348515Y-11530984D01*
X2481848Y-11330984D02*
X2500896Y-11330984D01*
X2500896Y-11330984D02*
X2519944Y-11340508D01*
X2519944Y-11340508D02*
X2529468Y-11350031D01*
X2529468Y-11350031D02*
X2538991Y-11369079D01*
X2538991Y-11369079D02*
X2548515Y-11407174D01*
X2548515Y-11407174D02*
X2548515Y-11454793D01*
X2548515Y-11454793D02*
X2538991Y-11492888D01*
X2538991Y-11492888D02*
X2529468Y-11511936D01*
X2529468Y-11511936D02*
X2519944Y-11521460D01*
X2519944Y-11521460D02*
X2500896Y-11530984D01*
X2500896Y-11530984D02*
X2481848Y-11530984D01*
X2481848Y-11530984D02*
X2462801Y-11521460D01*
X2462801Y-11521460D02*
X2453277Y-11511936D01*
X2453277Y-11511936D02*
X2443753Y-11492888D01*
X2443753Y-11492888D02*
X2434229Y-11454793D01*
X2434229Y-11454793D02*
X2434229Y-11407174D01*
X2434229Y-11407174D02*
X2443753Y-11369079D01*
X2443753Y-11369079D02*
X2453277Y-11350031D01*
X2453277Y-11350031D02*
X2462801Y-11340508D01*
X2462801Y-11340508D02*
X2481848Y-11330984D01*
X2615182Y-11330984D02*
X2738991Y-11330984D01*
X2738991Y-11330984D02*
X2672325Y-11407174D01*
X2672325Y-11407174D02*
X2700896Y-11407174D01*
X2700896Y-11407174D02*
X2719944Y-11416698D01*
X2719944Y-11416698D02*
X2729468Y-11426222D01*
X2729468Y-11426222D02*
X2738991Y-11445269D01*
X2738991Y-11445269D02*
X2738991Y-11492888D01*
X2738991Y-11492888D02*
X2729468Y-11511936D01*
X2729468Y-11511936D02*
X2719944Y-11521460D01*
X2719944Y-11521460D02*
X2700896Y-11530984D01*
X2700896Y-11530984D02*
X2643753Y-11530984D01*
X2643753Y-11530984D02*
X2624706Y-11521460D01*
X2624706Y-11521460D02*
X2615182Y-11511936D01*
X2919944Y-11330984D02*
X2824706Y-11330984D01*
X2824706Y-11330984D02*
X2815182Y-11426222D01*
X2815182Y-11426222D02*
X2824706Y-11416698D01*
X2824706Y-11416698D02*
X2843753Y-11407174D01*
X2843753Y-11407174D02*
X2891372Y-11407174D01*
X2891372Y-11407174D02*
X2910420Y-11416698D01*
X2910420Y-11416698D02*
X2919944Y-11426222D01*
X2919944Y-11426222D02*
X2929467Y-11445269D01*
X2929467Y-11445269D02*
X2929467Y-11492888D01*
X2929467Y-11492888D02*
X2919944Y-11511936D01*
X2919944Y-11511936D02*
X2910420Y-11521460D01*
X2910420Y-11521460D02*
X2891372Y-11530984D01*
X2891372Y-11530984D02*
X2843753Y-11530984D01*
X2843753Y-11530984D02*
X2824706Y-11521460D01*
X2824706Y-11521460D02*
X2815182Y-11511936D01*
X3053277Y-11330984D02*
X3072325Y-11330984D01*
X3072325Y-11330984D02*
X3091372Y-11340508D01*
X3091372Y-11340508D02*
X3100896Y-11350031D01*
X3100896Y-11350031D02*
X3110420Y-11369079D01*
X3110420Y-11369079D02*
X3119944Y-11407174D01*
X3119944Y-11407174D02*
X3119944Y-11454793D01*
X3119944Y-11454793D02*
X3110420Y-11492888D01*
X3110420Y-11492888D02*
X3100896Y-11511936D01*
X3100896Y-11511936D02*
X3091372Y-11521460D01*
X3091372Y-11521460D02*
X3072325Y-11530984D01*
X3072325Y-11530984D02*
X3053277Y-11530984D01*
X3053277Y-11530984D02*
X3034229Y-11521460D01*
X3034229Y-11521460D02*
X3024706Y-11511936D01*
X3024706Y-11511936D02*
X3015182Y-11492888D01*
X3015182Y-11492888D02*
X3005658Y-11454793D01*
X3005658Y-11454793D02*
X3005658Y-11407174D01*
X3005658Y-11407174D02*
X3015182Y-11369079D01*
X3015182Y-11369079D02*
X3024706Y-11350031D01*
X3024706Y-11350031D02*
X3034229Y-11340508D01*
X3034229Y-11340508D02*
X3053277Y-11330984D01*
X3196134Y-11330984D02*
X3196134Y-11369079D01*
X3272325Y-11330984D02*
X3272325Y-11369079D01*
X3567563Y-11607174D02*
X3558039Y-11597650D01*
X3558039Y-11597650D02*
X3538991Y-11569079D01*
X3538991Y-11569079D02*
X3529468Y-11550031D01*
X3529468Y-11550031D02*
X3519944Y-11521460D01*
X3519944Y-11521460D02*
X3510420Y-11473841D01*
X3510420Y-11473841D02*
X3510420Y-11435746D01*
X3510420Y-11435746D02*
X3519944Y-11388127D01*
X3519944Y-11388127D02*
X3529468Y-11359555D01*
X3529468Y-11359555D02*
X3538991Y-11340508D01*
X3538991Y-11340508D02*
X3558039Y-11311936D01*
X3558039Y-11311936D02*
X3567563Y-11302412D01*
X3729468Y-11397650D02*
X3729468Y-11530984D01*
X3681848Y-11321460D02*
X3634229Y-11464317D01*
X3634229Y-11464317D02*
X3758039Y-11464317D01*
X3862801Y-11416698D02*
X3843753Y-11407174D01*
X3843753Y-11407174D02*
X3834229Y-11397650D01*
X3834229Y-11397650D02*
X3824706Y-11378603D01*
X3824706Y-11378603D02*
X3824706Y-11369079D01*
X3824706Y-11369079D02*
X3834229Y-11350031D01*
X3834229Y-11350031D02*
X3843753Y-11340508D01*
X3843753Y-11340508D02*
X3862801Y-11330984D01*
X3862801Y-11330984D02*
X3900896Y-11330984D01*
X3900896Y-11330984D02*
X3919944Y-11340508D01*
X3919944Y-11340508D02*
X3929468Y-11350031D01*
X3929468Y-11350031D02*
X3938991Y-11369079D01*
X3938991Y-11369079D02*
X3938991Y-11378603D01*
X3938991Y-11378603D02*
X3929468Y-11397650D01*
X3929468Y-11397650D02*
X3919944Y-11407174D01*
X3919944Y-11407174D02*
X3900896Y-11416698D01*
X3900896Y-11416698D02*
X3862801Y-11416698D01*
X3862801Y-11416698D02*
X3843753Y-11426222D01*
X3843753Y-11426222D02*
X3834229Y-11435746D01*
X3834229Y-11435746D02*
X3824706Y-11454793D01*
X3824706Y-11454793D02*
X3824706Y-11492888D01*
X3824706Y-11492888D02*
X3834229Y-11511936D01*
X3834229Y-11511936D02*
X3843753Y-11521460D01*
X3843753Y-11521460D02*
X3862801Y-11530984D01*
X3862801Y-11530984D02*
X3900896Y-11530984D01*
X3900896Y-11530984D02*
X3919944Y-11521460D01*
X3919944Y-11521460D02*
X3929468Y-11511936D01*
X3929468Y-11511936D02*
X3938991Y-11492888D01*
X3938991Y-11492888D02*
X3938991Y-11454793D01*
X3938991Y-11454793D02*
X3929468Y-11435746D01*
X3929468Y-11435746D02*
X3919944Y-11426222D01*
X3919944Y-11426222D02*
X3900896Y-11416698D01*
X4177087Y-11530984D02*
X4177087Y-11330984D01*
X4262801Y-11530984D02*
X4262801Y-11426222D01*
X4262801Y-11426222D02*
X4253277Y-11407174D01*
X4253277Y-11407174D02*
X4234230Y-11397650D01*
X4234230Y-11397650D02*
X4205658Y-11397650D01*
X4205658Y-11397650D02*
X4186610Y-11407174D01*
X4186610Y-11407174D02*
X4177087Y-11416698D01*
X4386611Y-11530984D02*
X4367563Y-11521460D01*
X4367563Y-11521460D02*
X4358039Y-11511936D01*
X4358039Y-11511936D02*
X4348515Y-11492888D01*
X4348515Y-11492888D02*
X4348515Y-11435746D01*
X4348515Y-11435746D02*
X4358039Y-11416698D01*
X4358039Y-11416698D02*
X4367563Y-11407174D01*
X4367563Y-11407174D02*
X4386611Y-11397650D01*
X4386611Y-11397650D02*
X4415182Y-11397650D01*
X4415182Y-11397650D02*
X4434230Y-11407174D01*
X4434230Y-11407174D02*
X4443753Y-11416698D01*
X4443753Y-11416698D02*
X4453277Y-11435746D01*
X4453277Y-11435746D02*
X4453277Y-11492888D01*
X4453277Y-11492888D02*
X4443753Y-11511936D01*
X4443753Y-11511936D02*
X4434230Y-11521460D01*
X4434230Y-11521460D02*
X4415182Y-11530984D01*
X4415182Y-11530984D02*
X4386611Y-11530984D01*
X4567563Y-11530984D02*
X4548515Y-11521460D01*
X4548515Y-11521460D02*
X4538992Y-11502412D01*
X4538992Y-11502412D02*
X4538992Y-11330984D01*
X4719944Y-11521460D02*
X4700896Y-11530984D01*
X4700896Y-11530984D02*
X4662801Y-11530984D01*
X4662801Y-11530984D02*
X4643753Y-11521460D01*
X4643753Y-11521460D02*
X4634230Y-11502412D01*
X4634230Y-11502412D02*
X4634230Y-11426222D01*
X4634230Y-11426222D02*
X4643753Y-11407174D01*
X4643753Y-11407174D02*
X4662801Y-11397650D01*
X4662801Y-11397650D02*
X4700896Y-11397650D01*
X4700896Y-11397650D02*
X4719944Y-11407174D01*
X4719944Y-11407174D02*
X4729468Y-11426222D01*
X4729468Y-11426222D02*
X4729468Y-11445269D01*
X4729468Y-11445269D02*
X4634230Y-11464317D01*
X4805658Y-11521460D02*
X4824706Y-11530984D01*
X4824706Y-11530984D02*
X4862801Y-11530984D01*
X4862801Y-11530984D02*
X4881849Y-11521460D01*
X4881849Y-11521460D02*
X4891373Y-11502412D01*
X4891373Y-11502412D02*
X4891373Y-11492888D01*
X4891373Y-11492888D02*
X4881849Y-11473841D01*
X4881849Y-11473841D02*
X4862801Y-11464317D01*
X4862801Y-11464317D02*
X4834230Y-11464317D01*
X4834230Y-11464317D02*
X4815182Y-11454793D01*
X4815182Y-11454793D02*
X4805658Y-11435746D01*
X4805658Y-11435746D02*
X4805658Y-11426222D01*
X4805658Y-11426222D02*
X4815182Y-11407174D01*
X4815182Y-11407174D02*
X4834230Y-11397650D01*
X4834230Y-11397650D02*
X4862801Y-11397650D01*
X4862801Y-11397650D02*
X4881849Y-11407174D01*
X4958039Y-11607174D02*
X4967563Y-11597650D01*
X4967563Y-11597650D02*
X4986611Y-11569079D01*
X4986611Y-11569079D02*
X4996134Y-11550031D01*
X4996134Y-11550031D02*
X5005658Y-11521460D01*
X5005658Y-11521460D02*
X5015182Y-11473841D01*
X5015182Y-11473841D02*
X5015182Y-11435746D01*
X5015182Y-11435746D02*
X5005658Y-11388127D01*
X5005658Y-11388127D02*
X4996134Y-11359555D01*
X4996134Y-11359555D02*
X4986611Y-11340508D01*
X4986611Y-11340508D02*
X4967563Y-11311936D01*
X4967563Y-11311936D02*
X4958039Y-11302412D01*
D12*
X-52500Y-11748500D02*
X-7500Y-11703500D01*
X-52500Y-11658500D01*
X-97500Y-11703500D01*
X-52500Y-11748500D01*
D11*
X291372Y-11594984D02*
X310420Y-11594984D01*
X310420Y-11594984D02*
X329467Y-11604508D01*
X329467Y-11604508D02*
X338991Y-11614031D01*
X338991Y-11614031D02*
X348515Y-11633079D01*
X348515Y-11633079D02*
X358039Y-11671174D01*
X358039Y-11671174D02*
X358039Y-11718793D01*
X358039Y-11718793D02*
X348515Y-11756888D01*
X348515Y-11756888D02*
X338991Y-11775936D01*
X338991Y-11775936D02*
X329467Y-11785460D01*
X329467Y-11785460D02*
X310420Y-11794984D01*
X310420Y-11794984D02*
X291372Y-11794984D01*
X291372Y-11794984D02*
X272324Y-11785460D01*
X272324Y-11785460D02*
X262801Y-11775936D01*
X262801Y-11775936D02*
X253277Y-11756888D01*
X253277Y-11756888D02*
X243753Y-11718793D01*
X243753Y-11718793D02*
X243753Y-11671174D01*
X243753Y-11671174D02*
X253277Y-11633079D01*
X253277Y-11633079D02*
X262801Y-11614031D01*
X262801Y-11614031D02*
X272324Y-11604508D01*
X272324Y-11604508D02*
X291372Y-11594984D01*
X443753Y-11775936D02*
X453277Y-11785460D01*
X453277Y-11785460D02*
X443753Y-11794984D01*
X443753Y-11794984D02*
X434229Y-11785460D01*
X434229Y-11785460D02*
X443753Y-11775936D01*
X443753Y-11775936D02*
X443753Y-11794984D01*
X548515Y-11794984D02*
X586610Y-11794984D01*
X586610Y-11794984D02*
X605658Y-11785460D01*
X605658Y-11785460D02*
X615182Y-11775936D01*
X615182Y-11775936D02*
X634229Y-11747365D01*
X634229Y-11747365D02*
X643753Y-11709269D01*
X643753Y-11709269D02*
X643753Y-11633079D01*
X643753Y-11633079D02*
X634229Y-11614031D01*
X634229Y-11614031D02*
X624705Y-11604508D01*
X624705Y-11604508D02*
X605658Y-11594984D01*
X605658Y-11594984D02*
X567563Y-11594984D01*
X567563Y-11594984D02*
X548515Y-11604508D01*
X548515Y-11604508D02*
X538991Y-11614031D01*
X538991Y-11614031D02*
X529467Y-11633079D01*
X529467Y-11633079D02*
X529467Y-11680698D01*
X529467Y-11680698D02*
X538991Y-11699746D01*
X538991Y-11699746D02*
X548515Y-11709269D01*
X548515Y-11709269D02*
X567563Y-11718793D01*
X567563Y-11718793D02*
X605658Y-11718793D01*
X605658Y-11718793D02*
X624705Y-11709269D01*
X624705Y-11709269D02*
X634229Y-11699746D01*
X634229Y-11699746D02*
X643753Y-11680698D01*
X767562Y-11594984D02*
X786610Y-11594984D01*
X786610Y-11594984D02*
X805658Y-11604508D01*
X805658Y-11604508D02*
X815182Y-11614031D01*
X815182Y-11614031D02*
X824705Y-11633079D01*
X824705Y-11633079D02*
X834229Y-11671174D01*
X834229Y-11671174D02*
X834229Y-11718793D01*
X834229Y-11718793D02*
X824705Y-11756888D01*
X824705Y-11756888D02*
X815182Y-11775936D01*
X815182Y-11775936D02*
X805658Y-11785460D01*
X805658Y-11785460D02*
X786610Y-11794984D01*
X786610Y-11794984D02*
X767562Y-11794984D01*
X767562Y-11794984D02*
X748515Y-11785460D01*
X748515Y-11785460D02*
X738991Y-11775936D01*
X738991Y-11775936D02*
X729467Y-11756888D01*
X729467Y-11756888D02*
X719943Y-11718793D01*
X719943Y-11718793D02*
X719943Y-11671174D01*
X719943Y-11671174D02*
X729467Y-11633079D01*
X729467Y-11633079D02*
X738991Y-11614031D01*
X738991Y-11614031D02*
X748515Y-11604508D01*
X748515Y-11604508D02*
X767562Y-11594984D01*
X958039Y-11594984D02*
X977086Y-11594984D01*
X977086Y-11594984D02*
X996134Y-11604508D01*
X996134Y-11604508D02*
X1005658Y-11614031D01*
X1005658Y-11614031D02*
X1015182Y-11633079D01*
X1015182Y-11633079D02*
X1024705Y-11671174D01*
X1024705Y-11671174D02*
X1024705Y-11718793D01*
X1024705Y-11718793D02*
X1015182Y-11756888D01*
X1015182Y-11756888D02*
X1005658Y-11775936D01*
X1005658Y-11775936D02*
X996134Y-11785460D01*
X996134Y-11785460D02*
X977086Y-11794984D01*
X977086Y-11794984D02*
X958039Y-11794984D01*
X958039Y-11794984D02*
X938991Y-11785460D01*
X938991Y-11785460D02*
X929467Y-11775936D01*
X929467Y-11775936D02*
X919943Y-11756888D01*
X919943Y-11756888D02*
X910420Y-11718793D01*
X910420Y-11718793D02*
X910420Y-11671174D01*
X910420Y-11671174D02*
X919943Y-11633079D01*
X919943Y-11633079D02*
X929467Y-11614031D01*
X929467Y-11614031D02*
X938991Y-11604508D01*
X938991Y-11604508D02*
X958039Y-11594984D01*
X1110420Y-11794984D02*
X1110420Y-11661650D01*
X1110420Y-11680698D02*
X1119944Y-11671174D01*
X1119944Y-11671174D02*
X1138991Y-11661650D01*
X1138991Y-11661650D02*
X1167563Y-11661650D01*
X1167563Y-11661650D02*
X1186610Y-11671174D01*
X1186610Y-11671174D02*
X1196134Y-11690222D01*
X1196134Y-11690222D02*
X1196134Y-11794984D01*
X1196134Y-11690222D02*
X1205658Y-11671174D01*
X1205658Y-11671174D02*
X1224705Y-11661650D01*
X1224705Y-11661650D02*
X1253277Y-11661650D01*
X1253277Y-11661650D02*
X1272325Y-11671174D01*
X1272325Y-11671174D02*
X1281848Y-11690222D01*
X1281848Y-11690222D02*
X1281848Y-11794984D01*
X1377086Y-11794984D02*
X1377086Y-11661650D01*
X1377086Y-11680698D02*
X1386610Y-11671174D01*
X1386610Y-11671174D02*
X1405658Y-11661650D01*
X1405658Y-11661650D02*
X1434229Y-11661650D01*
X1434229Y-11661650D02*
X1453277Y-11671174D01*
X1453277Y-11671174D02*
X1462801Y-11690222D01*
X1462801Y-11690222D02*
X1462801Y-11794984D01*
X1462801Y-11690222D02*
X1472324Y-11671174D01*
X1472324Y-11671174D02*
X1491372Y-11661650D01*
X1491372Y-11661650D02*
X1519943Y-11661650D01*
X1519943Y-11661650D02*
X1538991Y-11671174D01*
X1538991Y-11671174D02*
X1548515Y-11690222D01*
X1548515Y-11690222D02*
X1548515Y-11794984D01*
X1938991Y-11585460D02*
X1767563Y-11842603D01*
X2196134Y-11594984D02*
X2215182Y-11594984D01*
X2215182Y-11594984D02*
X2234229Y-11604508D01*
X2234229Y-11604508D02*
X2243753Y-11614031D01*
X2243753Y-11614031D02*
X2253277Y-11633079D01*
X2253277Y-11633079D02*
X2262801Y-11671174D01*
X2262801Y-11671174D02*
X2262801Y-11718793D01*
X2262801Y-11718793D02*
X2253277Y-11756888D01*
X2253277Y-11756888D02*
X2243753Y-11775936D01*
X2243753Y-11775936D02*
X2234229Y-11785460D01*
X2234229Y-11785460D02*
X2215182Y-11794984D01*
X2215182Y-11794984D02*
X2196134Y-11794984D01*
X2196134Y-11794984D02*
X2177087Y-11785460D01*
X2177087Y-11785460D02*
X2167563Y-11775936D01*
X2167563Y-11775936D02*
X2158039Y-11756888D01*
X2158039Y-11756888D02*
X2148515Y-11718793D01*
X2148515Y-11718793D02*
X2148515Y-11671174D01*
X2148515Y-11671174D02*
X2158039Y-11633079D01*
X2158039Y-11633079D02*
X2167563Y-11614031D01*
X2167563Y-11614031D02*
X2177087Y-11604508D01*
X2177087Y-11604508D02*
X2196134Y-11594984D01*
X2348515Y-11775936D02*
X2358039Y-11785460D01*
X2358039Y-11785460D02*
X2348515Y-11794984D01*
X2348515Y-11794984D02*
X2338991Y-11785460D01*
X2338991Y-11785460D02*
X2348515Y-11775936D01*
X2348515Y-11775936D02*
X2348515Y-11794984D01*
X2481848Y-11594984D02*
X2500896Y-11594984D01*
X2500896Y-11594984D02*
X2519944Y-11604508D01*
X2519944Y-11604508D02*
X2529468Y-11614031D01*
X2529468Y-11614031D02*
X2538991Y-11633079D01*
X2538991Y-11633079D02*
X2548515Y-11671174D01*
X2548515Y-11671174D02*
X2548515Y-11718793D01*
X2548515Y-11718793D02*
X2538991Y-11756888D01*
X2538991Y-11756888D02*
X2529468Y-11775936D01*
X2529468Y-11775936D02*
X2519944Y-11785460D01*
X2519944Y-11785460D02*
X2500896Y-11794984D01*
X2500896Y-11794984D02*
X2481848Y-11794984D01*
X2481848Y-11794984D02*
X2462801Y-11785460D01*
X2462801Y-11785460D02*
X2453277Y-11775936D01*
X2453277Y-11775936D02*
X2443753Y-11756888D01*
X2443753Y-11756888D02*
X2434229Y-11718793D01*
X2434229Y-11718793D02*
X2434229Y-11671174D01*
X2434229Y-11671174D02*
X2443753Y-11633079D01*
X2443753Y-11633079D02*
X2453277Y-11614031D01*
X2453277Y-11614031D02*
X2462801Y-11604508D01*
X2462801Y-11604508D02*
X2481848Y-11594984D01*
X2615182Y-11594984D02*
X2738991Y-11594984D01*
X2738991Y-11594984D02*
X2672325Y-11671174D01*
X2672325Y-11671174D02*
X2700896Y-11671174D01*
X2700896Y-11671174D02*
X2719944Y-11680698D01*
X2719944Y-11680698D02*
X2729468Y-11690222D01*
X2729468Y-11690222D02*
X2738991Y-11709269D01*
X2738991Y-11709269D02*
X2738991Y-11756888D01*
X2738991Y-11756888D02*
X2729468Y-11775936D01*
X2729468Y-11775936D02*
X2719944Y-11785460D01*
X2719944Y-11785460D02*
X2700896Y-11794984D01*
X2700896Y-11794984D02*
X2643753Y-11794984D01*
X2643753Y-11794984D02*
X2624706Y-11785460D01*
X2624706Y-11785460D02*
X2615182Y-11775936D01*
X2919944Y-11594984D02*
X2824706Y-11594984D01*
X2824706Y-11594984D02*
X2815182Y-11690222D01*
X2815182Y-11690222D02*
X2824706Y-11680698D01*
X2824706Y-11680698D02*
X2843753Y-11671174D01*
X2843753Y-11671174D02*
X2891372Y-11671174D01*
X2891372Y-11671174D02*
X2910420Y-11680698D01*
X2910420Y-11680698D02*
X2919944Y-11690222D01*
X2919944Y-11690222D02*
X2929467Y-11709269D01*
X2929467Y-11709269D02*
X2929467Y-11756888D01*
X2929467Y-11756888D02*
X2919944Y-11775936D01*
X2919944Y-11775936D02*
X2910420Y-11785460D01*
X2910420Y-11785460D02*
X2891372Y-11794984D01*
X2891372Y-11794984D02*
X2843753Y-11794984D01*
X2843753Y-11794984D02*
X2824706Y-11785460D01*
X2824706Y-11785460D02*
X2815182Y-11775936D01*
X3100896Y-11661650D02*
X3100896Y-11794984D01*
X3053277Y-11585460D02*
X3005658Y-11728317D01*
X3005658Y-11728317D02*
X3129467Y-11728317D01*
X3196134Y-11594984D02*
X3196134Y-11633079D01*
X3272325Y-11594984D02*
X3272325Y-11633079D01*
X3567563Y-11871174D02*
X3558039Y-11861650D01*
X3558039Y-11861650D02*
X3538991Y-11833079D01*
X3538991Y-11833079D02*
X3529468Y-11814031D01*
X3529468Y-11814031D02*
X3519944Y-11785460D01*
X3519944Y-11785460D02*
X3510420Y-11737841D01*
X3510420Y-11737841D02*
X3510420Y-11699746D01*
X3510420Y-11699746D02*
X3519944Y-11652127D01*
X3519944Y-11652127D02*
X3529468Y-11623555D01*
X3529468Y-11623555D02*
X3538991Y-11604508D01*
X3538991Y-11604508D02*
X3558039Y-11575936D01*
X3558039Y-11575936D02*
X3567563Y-11566412D01*
X3681848Y-11594984D02*
X3700896Y-11594984D01*
X3700896Y-11594984D02*
X3719944Y-11604508D01*
X3719944Y-11604508D02*
X3729468Y-11614031D01*
X3729468Y-11614031D02*
X3738991Y-11633079D01*
X3738991Y-11633079D02*
X3748515Y-11671174D01*
X3748515Y-11671174D02*
X3748515Y-11718793D01*
X3748515Y-11718793D02*
X3738991Y-11756888D01*
X3738991Y-11756888D02*
X3729468Y-11775936D01*
X3729468Y-11775936D02*
X3719944Y-11785460D01*
X3719944Y-11785460D02*
X3700896Y-11794984D01*
X3700896Y-11794984D02*
X3681848Y-11794984D01*
X3681848Y-11794984D02*
X3662801Y-11785460D01*
X3662801Y-11785460D02*
X3653277Y-11775936D01*
X3653277Y-11775936D02*
X3643753Y-11756888D01*
X3643753Y-11756888D02*
X3634229Y-11718793D01*
X3634229Y-11718793D02*
X3634229Y-11671174D01*
X3634229Y-11671174D02*
X3643753Y-11633079D01*
X3643753Y-11633079D02*
X3653277Y-11614031D01*
X3653277Y-11614031D02*
X3662801Y-11604508D01*
X3662801Y-11604508D02*
X3681848Y-11594984D01*
X3986610Y-11794984D02*
X3986610Y-11594984D01*
X4072325Y-11794984D02*
X4072325Y-11690222D01*
X4072325Y-11690222D02*
X4062801Y-11671174D01*
X4062801Y-11671174D02*
X4043753Y-11661650D01*
X4043753Y-11661650D02*
X4015182Y-11661650D01*
X4015182Y-11661650D02*
X3996134Y-11671174D01*
X3996134Y-11671174D02*
X3986610Y-11680698D01*
X4196134Y-11794984D02*
X4177087Y-11785460D01*
X4177087Y-11785460D02*
X4167563Y-11775936D01*
X4167563Y-11775936D02*
X4158039Y-11756888D01*
X4158039Y-11756888D02*
X4158039Y-11699746D01*
X4158039Y-11699746D02*
X4167563Y-11680698D01*
X4167563Y-11680698D02*
X4177087Y-11671174D01*
X4177087Y-11671174D02*
X4196134Y-11661650D01*
X4196134Y-11661650D02*
X4224706Y-11661650D01*
X4224706Y-11661650D02*
X4243753Y-11671174D01*
X4243753Y-11671174D02*
X4253277Y-11680698D01*
X4253277Y-11680698D02*
X4262801Y-11699746D01*
X4262801Y-11699746D02*
X4262801Y-11756888D01*
X4262801Y-11756888D02*
X4253277Y-11775936D01*
X4253277Y-11775936D02*
X4243753Y-11785460D01*
X4243753Y-11785460D02*
X4224706Y-11794984D01*
X4224706Y-11794984D02*
X4196134Y-11794984D01*
X4377087Y-11794984D02*
X4358039Y-11785460D01*
X4358039Y-11785460D02*
X4348515Y-11766412D01*
X4348515Y-11766412D02*
X4348515Y-11594984D01*
X4529468Y-11785460D02*
X4510420Y-11794984D01*
X4510420Y-11794984D02*
X4472325Y-11794984D01*
X4472325Y-11794984D02*
X4453277Y-11785460D01*
X4453277Y-11785460D02*
X4443753Y-11766412D01*
X4443753Y-11766412D02*
X4443753Y-11690222D01*
X4443753Y-11690222D02*
X4453277Y-11671174D01*
X4453277Y-11671174D02*
X4472325Y-11661650D01*
X4472325Y-11661650D02*
X4510420Y-11661650D01*
X4510420Y-11661650D02*
X4529468Y-11671174D01*
X4529468Y-11671174D02*
X4538992Y-11690222D01*
X4538992Y-11690222D02*
X4538992Y-11709269D01*
X4538992Y-11709269D02*
X4443753Y-11728317D01*
X4615182Y-11785460D02*
X4634230Y-11794984D01*
X4634230Y-11794984D02*
X4672325Y-11794984D01*
X4672325Y-11794984D02*
X4691373Y-11785460D01*
X4691373Y-11785460D02*
X4700896Y-11766412D01*
X4700896Y-11766412D02*
X4700896Y-11756888D01*
X4700896Y-11756888D02*
X4691373Y-11737841D01*
X4691373Y-11737841D02*
X4672325Y-11728317D01*
X4672325Y-11728317D02*
X4643753Y-11728317D01*
X4643753Y-11728317D02*
X4624706Y-11718793D01*
X4624706Y-11718793D02*
X4615182Y-11699746D01*
X4615182Y-11699746D02*
X4615182Y-11690222D01*
X4615182Y-11690222D02*
X4624706Y-11671174D01*
X4624706Y-11671174D02*
X4643753Y-11661650D01*
X4643753Y-11661650D02*
X4672325Y-11661650D01*
X4672325Y-11661650D02*
X4691373Y-11671174D01*
X4938992Y-11718793D02*
X5091373Y-11718793D01*
X5015182Y-11794984D02*
X5015182Y-11642603D01*
X5424706Y-11661650D02*
X5424706Y-11794984D01*
X5377087Y-11585460D02*
X5329468Y-11728317D01*
X5329468Y-11728317D02*
X5453277Y-11728317D01*
X5672325Y-11785460D02*
X5691373Y-11794984D01*
X5691373Y-11794984D02*
X5729468Y-11794984D01*
X5729468Y-11794984D02*
X5748515Y-11785460D01*
X5748515Y-11785460D02*
X5758039Y-11766412D01*
X5758039Y-11766412D02*
X5758039Y-11756888D01*
X5758039Y-11756888D02*
X5748515Y-11737841D01*
X5748515Y-11737841D02*
X5729468Y-11728317D01*
X5729468Y-11728317D02*
X5700896Y-11728317D01*
X5700896Y-11728317D02*
X5681849Y-11718793D01*
X5681849Y-11718793D02*
X5672325Y-11699746D01*
X5672325Y-11699746D02*
X5672325Y-11690222D01*
X5672325Y-11690222D02*
X5681849Y-11671174D01*
X5681849Y-11671174D02*
X5700896Y-11661650D01*
X5700896Y-11661650D02*
X5729468Y-11661650D01*
X5729468Y-11661650D02*
X5748515Y-11671174D01*
X5872325Y-11794984D02*
X5853277Y-11785460D01*
X5853277Y-11785460D02*
X5843754Y-11766412D01*
X5843754Y-11766412D02*
X5843754Y-11594984D01*
X5977087Y-11794984D02*
X5958039Y-11785460D01*
X5958039Y-11785460D02*
X5948515Y-11775936D01*
X5948515Y-11775936D02*
X5938992Y-11756888D01*
X5938992Y-11756888D02*
X5938992Y-11699746D01*
X5938992Y-11699746D02*
X5948515Y-11680698D01*
X5948515Y-11680698D02*
X5958039Y-11671174D01*
X5958039Y-11671174D02*
X5977087Y-11661650D01*
X5977087Y-11661650D02*
X6005658Y-11661650D01*
X6005658Y-11661650D02*
X6024706Y-11671174D01*
X6024706Y-11671174D02*
X6034230Y-11680698D01*
X6034230Y-11680698D02*
X6043754Y-11699746D01*
X6043754Y-11699746D02*
X6043754Y-11756888D01*
X6043754Y-11756888D02*
X6034230Y-11775936D01*
X6034230Y-11775936D02*
X6024706Y-11785460D01*
X6024706Y-11785460D02*
X6005658Y-11794984D01*
X6005658Y-11794984D02*
X5977087Y-11794984D01*
X6100896Y-11661650D02*
X6177087Y-11661650D01*
X6129468Y-11594984D02*
X6129468Y-11766412D01*
X6129468Y-11766412D02*
X6138992Y-11785460D01*
X6138992Y-11785460D02*
X6158039Y-11794984D01*
X6158039Y-11794984D02*
X6177087Y-11794984D01*
X6234230Y-11785460D02*
X6253277Y-11794984D01*
X6253277Y-11794984D02*
X6291373Y-11794984D01*
X6291373Y-11794984D02*
X6310420Y-11785460D01*
X6310420Y-11785460D02*
X6319944Y-11766412D01*
X6319944Y-11766412D02*
X6319944Y-11756888D01*
X6319944Y-11756888D02*
X6310420Y-11737841D01*
X6310420Y-11737841D02*
X6291373Y-11728317D01*
X6291373Y-11728317D02*
X6262801Y-11728317D01*
X6262801Y-11728317D02*
X6243754Y-11718793D01*
X6243754Y-11718793D02*
X6234230Y-11699746D01*
X6234230Y-11699746D02*
X6234230Y-11690222D01*
X6234230Y-11690222D02*
X6243754Y-11671174D01*
X6243754Y-11671174D02*
X6262801Y-11661650D01*
X6262801Y-11661650D02*
X6291373Y-11661650D01*
X6291373Y-11661650D02*
X6310420Y-11671174D01*
X6386611Y-11871174D02*
X6396135Y-11861650D01*
X6396135Y-11861650D02*
X6415182Y-11833079D01*
X6415182Y-11833079D02*
X6424706Y-11814031D01*
X6424706Y-11814031D02*
X6434230Y-11785460D01*
X6434230Y-11785460D02*
X6443754Y-11737841D01*
X6443754Y-11737841D02*
X6443754Y-11699746D01*
X6443754Y-11699746D02*
X6434230Y-11652127D01*
X6434230Y-11652127D02*
X6424706Y-11623555D01*
X6424706Y-11623555D02*
X6415182Y-11604508D01*
X6415182Y-11604508D02*
X6396135Y-11575936D01*
X6396135Y-11575936D02*
X6386611Y-11566412D01*
D12*
X-107500Y-11917500D02*
X-7500Y-12017500D01*
X-7500Y-11917500D02*
X-107500Y-12017500D01*
X-7500Y-11967500D02*
G75*
G02*
X-107500Y-11967500I-50000J0D01*
G01*
X-107500Y-11967500D02*
G75*
G02*
X-7500Y-11967500I50000J0D01*
G01*
D11*
X358039Y-12058984D02*
X243753Y-12058984D01*
X300896Y-12058984D02*
X300896Y-11858984D01*
X300896Y-11858984D02*
X281848Y-11887555D01*
X281848Y-11887555D02*
X262801Y-11906603D01*
X262801Y-11906603D02*
X243753Y-11916127D01*
X443753Y-12039936D02*
X453277Y-12049460D01*
X453277Y-12049460D02*
X443753Y-12058984D01*
X443753Y-12058984D02*
X434229Y-12049460D01*
X434229Y-12049460D02*
X443753Y-12039936D01*
X443753Y-12039936D02*
X443753Y-12058984D01*
X577086Y-11858984D02*
X596134Y-11858984D01*
X596134Y-11858984D02*
X615182Y-11868508D01*
X615182Y-11868508D02*
X624705Y-11878031D01*
X624705Y-11878031D02*
X634229Y-11897079D01*
X634229Y-11897079D02*
X643753Y-11935174D01*
X643753Y-11935174D02*
X643753Y-11982793D01*
X643753Y-11982793D02*
X634229Y-12020888D01*
X634229Y-12020888D02*
X624705Y-12039936D01*
X624705Y-12039936D02*
X615182Y-12049460D01*
X615182Y-12049460D02*
X596134Y-12058984D01*
X596134Y-12058984D02*
X577086Y-12058984D01*
X577086Y-12058984D02*
X558039Y-12049460D01*
X558039Y-12049460D02*
X548515Y-12039936D01*
X548515Y-12039936D02*
X538991Y-12020888D01*
X538991Y-12020888D02*
X529467Y-11982793D01*
X529467Y-11982793D02*
X529467Y-11935174D01*
X529467Y-11935174D02*
X538991Y-11897079D01*
X538991Y-11897079D02*
X548515Y-11878031D01*
X548515Y-11878031D02*
X558039Y-11868508D01*
X558039Y-11868508D02*
X577086Y-11858984D01*
X767562Y-11858984D02*
X786610Y-11858984D01*
X786610Y-11858984D02*
X805658Y-11868508D01*
X805658Y-11868508D02*
X815182Y-11878031D01*
X815182Y-11878031D02*
X824705Y-11897079D01*
X824705Y-11897079D02*
X834229Y-11935174D01*
X834229Y-11935174D02*
X834229Y-11982793D01*
X834229Y-11982793D02*
X824705Y-12020888D01*
X824705Y-12020888D02*
X815182Y-12039936D01*
X815182Y-12039936D02*
X805658Y-12049460D01*
X805658Y-12049460D02*
X786610Y-12058984D01*
X786610Y-12058984D02*
X767562Y-12058984D01*
X767562Y-12058984D02*
X748515Y-12049460D01*
X748515Y-12049460D02*
X738991Y-12039936D01*
X738991Y-12039936D02*
X729467Y-12020888D01*
X729467Y-12020888D02*
X719943Y-11982793D01*
X719943Y-11982793D02*
X719943Y-11935174D01*
X719943Y-11935174D02*
X729467Y-11897079D01*
X729467Y-11897079D02*
X738991Y-11878031D01*
X738991Y-11878031D02*
X748515Y-11868508D01*
X748515Y-11868508D02*
X767562Y-11858984D01*
X958039Y-11858984D02*
X977086Y-11858984D01*
X977086Y-11858984D02*
X996134Y-11868508D01*
X996134Y-11868508D02*
X1005658Y-11878031D01*
X1005658Y-11878031D02*
X1015182Y-11897079D01*
X1015182Y-11897079D02*
X1024705Y-11935174D01*
X1024705Y-11935174D02*
X1024705Y-11982793D01*
X1024705Y-11982793D02*
X1015182Y-12020888D01*
X1015182Y-12020888D02*
X1005658Y-12039936D01*
X1005658Y-12039936D02*
X996134Y-12049460D01*
X996134Y-12049460D02*
X977086Y-12058984D01*
X977086Y-12058984D02*
X958039Y-12058984D01*
X958039Y-12058984D02*
X938991Y-12049460D01*
X938991Y-12049460D02*
X929467Y-12039936D01*
X929467Y-12039936D02*
X919943Y-12020888D01*
X919943Y-12020888D02*
X910420Y-11982793D01*
X910420Y-11982793D02*
X910420Y-11935174D01*
X910420Y-11935174D02*
X919943Y-11897079D01*
X919943Y-11897079D02*
X929467Y-11878031D01*
X929467Y-11878031D02*
X938991Y-11868508D01*
X938991Y-11868508D02*
X958039Y-11858984D01*
X1110420Y-12058984D02*
X1110420Y-11925650D01*
X1110420Y-11944698D02*
X1119944Y-11935174D01*
X1119944Y-11935174D02*
X1138991Y-11925650D01*
X1138991Y-11925650D02*
X1167563Y-11925650D01*
X1167563Y-11925650D02*
X1186610Y-11935174D01*
X1186610Y-11935174D02*
X1196134Y-11954222D01*
X1196134Y-11954222D02*
X1196134Y-12058984D01*
X1196134Y-11954222D02*
X1205658Y-11935174D01*
X1205658Y-11935174D02*
X1224705Y-11925650D01*
X1224705Y-11925650D02*
X1253277Y-11925650D01*
X1253277Y-11925650D02*
X1272325Y-11935174D01*
X1272325Y-11935174D02*
X1281848Y-11954222D01*
X1281848Y-11954222D02*
X1281848Y-12058984D01*
X1377086Y-12058984D02*
X1377086Y-11925650D01*
X1377086Y-11944698D02*
X1386610Y-11935174D01*
X1386610Y-11935174D02*
X1405658Y-11925650D01*
X1405658Y-11925650D02*
X1434229Y-11925650D01*
X1434229Y-11925650D02*
X1453277Y-11935174D01*
X1453277Y-11935174D02*
X1462801Y-11954222D01*
X1462801Y-11954222D02*
X1462801Y-12058984D01*
X1462801Y-11954222D02*
X1472324Y-11935174D01*
X1472324Y-11935174D02*
X1491372Y-11925650D01*
X1491372Y-11925650D02*
X1519943Y-11925650D01*
X1519943Y-11925650D02*
X1538991Y-11935174D01*
X1538991Y-11935174D02*
X1548515Y-11954222D01*
X1548515Y-11954222D02*
X1548515Y-12058984D01*
X1938991Y-11849460D02*
X1767563Y-12106603D01*
X2196134Y-11858984D02*
X2215182Y-11858984D01*
X2215182Y-11858984D02*
X2234229Y-11868508D01*
X2234229Y-11868508D02*
X2243753Y-11878031D01*
X2243753Y-11878031D02*
X2253277Y-11897079D01*
X2253277Y-11897079D02*
X2262801Y-11935174D01*
X2262801Y-11935174D02*
X2262801Y-11982793D01*
X2262801Y-11982793D02*
X2253277Y-12020888D01*
X2253277Y-12020888D02*
X2243753Y-12039936D01*
X2243753Y-12039936D02*
X2234229Y-12049460D01*
X2234229Y-12049460D02*
X2215182Y-12058984D01*
X2215182Y-12058984D02*
X2196134Y-12058984D01*
X2196134Y-12058984D02*
X2177087Y-12049460D01*
X2177087Y-12049460D02*
X2167563Y-12039936D01*
X2167563Y-12039936D02*
X2158039Y-12020888D01*
X2158039Y-12020888D02*
X2148515Y-11982793D01*
X2148515Y-11982793D02*
X2148515Y-11935174D01*
X2148515Y-11935174D02*
X2158039Y-11897079D01*
X2158039Y-11897079D02*
X2167563Y-11878031D01*
X2167563Y-11878031D02*
X2177087Y-11868508D01*
X2177087Y-11868508D02*
X2196134Y-11858984D01*
X2348515Y-12039936D02*
X2358039Y-12049460D01*
X2358039Y-12049460D02*
X2348515Y-12058984D01*
X2348515Y-12058984D02*
X2338991Y-12049460D01*
X2338991Y-12049460D02*
X2348515Y-12039936D01*
X2348515Y-12039936D02*
X2348515Y-12058984D01*
X2481848Y-11858984D02*
X2500896Y-11858984D01*
X2500896Y-11858984D02*
X2519944Y-11868508D01*
X2519944Y-11868508D02*
X2529468Y-11878031D01*
X2529468Y-11878031D02*
X2538991Y-11897079D01*
X2538991Y-11897079D02*
X2548515Y-11935174D01*
X2548515Y-11935174D02*
X2548515Y-11982793D01*
X2548515Y-11982793D02*
X2538991Y-12020888D01*
X2538991Y-12020888D02*
X2529468Y-12039936D01*
X2529468Y-12039936D02*
X2519944Y-12049460D01*
X2519944Y-12049460D02*
X2500896Y-12058984D01*
X2500896Y-12058984D02*
X2481848Y-12058984D01*
X2481848Y-12058984D02*
X2462801Y-12049460D01*
X2462801Y-12049460D02*
X2453277Y-12039936D01*
X2453277Y-12039936D02*
X2443753Y-12020888D01*
X2443753Y-12020888D02*
X2434229Y-11982793D01*
X2434229Y-11982793D02*
X2434229Y-11935174D01*
X2434229Y-11935174D02*
X2443753Y-11897079D01*
X2443753Y-11897079D02*
X2453277Y-11878031D01*
X2453277Y-11878031D02*
X2462801Y-11868508D01*
X2462801Y-11868508D02*
X2481848Y-11858984D01*
X2615182Y-11858984D02*
X2738991Y-11858984D01*
X2738991Y-11858984D02*
X2672325Y-11935174D01*
X2672325Y-11935174D02*
X2700896Y-11935174D01*
X2700896Y-11935174D02*
X2719944Y-11944698D01*
X2719944Y-11944698D02*
X2729468Y-11954222D01*
X2729468Y-11954222D02*
X2738991Y-11973269D01*
X2738991Y-11973269D02*
X2738991Y-12020888D01*
X2738991Y-12020888D02*
X2729468Y-12039936D01*
X2729468Y-12039936D02*
X2719944Y-12049460D01*
X2719944Y-12049460D02*
X2700896Y-12058984D01*
X2700896Y-12058984D02*
X2643753Y-12058984D01*
X2643753Y-12058984D02*
X2624706Y-12049460D01*
X2624706Y-12049460D02*
X2615182Y-12039936D01*
X2834229Y-12058984D02*
X2872325Y-12058984D01*
X2872325Y-12058984D02*
X2891372Y-12049460D01*
X2891372Y-12049460D02*
X2900896Y-12039936D01*
X2900896Y-12039936D02*
X2919944Y-12011365D01*
X2919944Y-12011365D02*
X2929467Y-11973269D01*
X2929467Y-11973269D02*
X2929467Y-11897079D01*
X2929467Y-11897079D02*
X2919944Y-11878031D01*
X2919944Y-11878031D02*
X2910420Y-11868508D01*
X2910420Y-11868508D02*
X2891372Y-11858984D01*
X2891372Y-11858984D02*
X2853277Y-11858984D01*
X2853277Y-11858984D02*
X2834229Y-11868508D01*
X2834229Y-11868508D02*
X2824706Y-11878031D01*
X2824706Y-11878031D02*
X2815182Y-11897079D01*
X2815182Y-11897079D02*
X2815182Y-11944698D01*
X2815182Y-11944698D02*
X2824706Y-11963746D01*
X2824706Y-11963746D02*
X2834229Y-11973269D01*
X2834229Y-11973269D02*
X2853277Y-11982793D01*
X2853277Y-11982793D02*
X2891372Y-11982793D01*
X2891372Y-11982793D02*
X2910420Y-11973269D01*
X2910420Y-11973269D02*
X2919944Y-11963746D01*
X2919944Y-11963746D02*
X2929467Y-11944698D01*
X3100896Y-11925650D02*
X3100896Y-12058984D01*
X3053277Y-11849460D02*
X3005658Y-11992317D01*
X3005658Y-11992317D02*
X3129467Y-11992317D01*
X3196134Y-11858984D02*
X3196134Y-11897079D01*
X3272325Y-11858984D02*
X3272325Y-11897079D01*
X3567563Y-12135174D02*
X3558039Y-12125650D01*
X3558039Y-12125650D02*
X3538991Y-12097079D01*
X3538991Y-12097079D02*
X3529468Y-12078031D01*
X3529468Y-12078031D02*
X3519944Y-12049460D01*
X3519944Y-12049460D02*
X3510420Y-12001841D01*
X3510420Y-12001841D02*
X3510420Y-11963746D01*
X3510420Y-11963746D02*
X3519944Y-11916127D01*
X3519944Y-11916127D02*
X3529468Y-11887555D01*
X3529468Y-11887555D02*
X3538991Y-11868508D01*
X3538991Y-11868508D02*
X3558039Y-11839936D01*
X3558039Y-11839936D02*
X3567563Y-11830412D01*
X3729468Y-11925650D02*
X3729468Y-12058984D01*
X3681848Y-11849460D02*
X3634229Y-11992317D01*
X3634229Y-11992317D02*
X3758039Y-11992317D01*
X3919944Y-11925650D02*
X3919944Y-12058984D01*
X3872325Y-11849460D02*
X3824706Y-11992317D01*
X3824706Y-11992317D02*
X3948515Y-11992317D01*
X4177087Y-12058984D02*
X4177087Y-11858984D01*
X4262801Y-12058984D02*
X4262801Y-11954222D01*
X4262801Y-11954222D02*
X4253277Y-11935174D01*
X4253277Y-11935174D02*
X4234230Y-11925650D01*
X4234230Y-11925650D02*
X4205658Y-11925650D01*
X4205658Y-11925650D02*
X4186610Y-11935174D01*
X4186610Y-11935174D02*
X4177087Y-11944698D01*
X4386611Y-12058984D02*
X4367563Y-12049460D01*
X4367563Y-12049460D02*
X4358039Y-12039936D01*
X4358039Y-12039936D02*
X4348515Y-12020888D01*
X4348515Y-12020888D02*
X4348515Y-11963746D01*
X4348515Y-11963746D02*
X4358039Y-11944698D01*
X4358039Y-11944698D02*
X4367563Y-11935174D01*
X4367563Y-11935174D02*
X4386611Y-11925650D01*
X4386611Y-11925650D02*
X4415182Y-11925650D01*
X4415182Y-11925650D02*
X4434230Y-11935174D01*
X4434230Y-11935174D02*
X4443753Y-11944698D01*
X4443753Y-11944698D02*
X4453277Y-11963746D01*
X4453277Y-11963746D02*
X4453277Y-12020888D01*
X4453277Y-12020888D02*
X4443753Y-12039936D01*
X4443753Y-12039936D02*
X4434230Y-12049460D01*
X4434230Y-12049460D02*
X4415182Y-12058984D01*
X4415182Y-12058984D02*
X4386611Y-12058984D01*
X4567563Y-12058984D02*
X4548515Y-12049460D01*
X4548515Y-12049460D02*
X4538992Y-12030412D01*
X4538992Y-12030412D02*
X4538992Y-11858984D01*
X4719944Y-12049460D02*
X4700896Y-12058984D01*
X4700896Y-12058984D02*
X4662801Y-12058984D01*
X4662801Y-12058984D02*
X4643753Y-12049460D01*
X4643753Y-12049460D02*
X4634230Y-12030412D01*
X4634230Y-12030412D02*
X4634230Y-11954222D01*
X4634230Y-11954222D02*
X4643753Y-11935174D01*
X4643753Y-11935174D02*
X4662801Y-11925650D01*
X4662801Y-11925650D02*
X4700896Y-11925650D01*
X4700896Y-11925650D02*
X4719944Y-11935174D01*
X4719944Y-11935174D02*
X4729468Y-11954222D01*
X4729468Y-11954222D02*
X4729468Y-11973269D01*
X4729468Y-11973269D02*
X4634230Y-11992317D01*
X4805658Y-12049460D02*
X4824706Y-12058984D01*
X4824706Y-12058984D02*
X4862801Y-12058984D01*
X4862801Y-12058984D02*
X4881849Y-12049460D01*
X4881849Y-12049460D02*
X4891373Y-12030412D01*
X4891373Y-12030412D02*
X4891373Y-12020888D01*
X4891373Y-12020888D02*
X4881849Y-12001841D01*
X4881849Y-12001841D02*
X4862801Y-11992317D01*
X4862801Y-11992317D02*
X4834230Y-11992317D01*
X4834230Y-11992317D02*
X4815182Y-11982793D01*
X4815182Y-11982793D02*
X4805658Y-11963746D01*
X4805658Y-11963746D02*
X4805658Y-11954222D01*
X4805658Y-11954222D02*
X4815182Y-11935174D01*
X4815182Y-11935174D02*
X4834230Y-11925650D01*
X4834230Y-11925650D02*
X4862801Y-11925650D01*
X4862801Y-11925650D02*
X4881849Y-11935174D01*
X4958039Y-12135174D02*
X4967563Y-12125650D01*
X4967563Y-12125650D02*
X4986611Y-12097079D01*
X4986611Y-12097079D02*
X4996134Y-12078031D01*
X4996134Y-12078031D02*
X5005658Y-12049460D01*
X5005658Y-12049460D02*
X5015182Y-12001841D01*
X5015182Y-12001841D02*
X5015182Y-11963746D01*
X5015182Y-11963746D02*
X5005658Y-11916127D01*
X5005658Y-11916127D02*
X4996134Y-11887555D01*
X4996134Y-11887555D02*
X4986611Y-11868508D01*
X4986611Y-11868508D02*
X4967563Y-11839936D01*
X4967563Y-11839936D02*
X4958039Y-11830412D01*
D13*
X-164500Y-12153000D02*
X-7500Y-12310000D01*
X-7500Y-12153000D02*
X-164500Y-12310000D01*
X-86000Y-12153000D02*
X-86000Y-12310000D01*
X-164500Y-12231500D02*
X-7500Y-12231500D01*
D11*
X358039Y-12322984D02*
X243753Y-12322984D01*
X300896Y-12322984D02*
X300896Y-12122984D01*
X300896Y-12122984D02*
X281848Y-12151555D01*
X281848Y-12151555D02*
X262801Y-12170603D01*
X262801Y-12170603D02*
X243753Y-12180127D01*
X443753Y-12303936D02*
X453277Y-12313460D01*
X453277Y-12313460D02*
X443753Y-12322984D01*
X443753Y-12322984D02*
X434229Y-12313460D01*
X434229Y-12313460D02*
X443753Y-12303936D01*
X443753Y-12303936D02*
X443753Y-12322984D01*
X634229Y-12122984D02*
X538991Y-12122984D01*
X538991Y-12122984D02*
X529467Y-12218222D01*
X529467Y-12218222D02*
X538991Y-12208698D01*
X538991Y-12208698D02*
X558039Y-12199174D01*
X558039Y-12199174D02*
X605658Y-12199174D01*
X605658Y-12199174D02*
X624705Y-12208698D01*
X624705Y-12208698D02*
X634229Y-12218222D01*
X634229Y-12218222D02*
X643753Y-12237269D01*
X643753Y-12237269D02*
X643753Y-12284888D01*
X643753Y-12284888D02*
X634229Y-12303936D01*
X634229Y-12303936D02*
X624705Y-12313460D01*
X624705Y-12313460D02*
X605658Y-12322984D01*
X605658Y-12322984D02*
X558039Y-12322984D01*
X558039Y-12322984D02*
X538991Y-12313460D01*
X538991Y-12313460D02*
X529467Y-12303936D01*
X710420Y-12122984D02*
X843753Y-12122984D01*
X843753Y-12122984D02*
X758039Y-12322984D01*
X958039Y-12122984D02*
X977086Y-12122984D01*
X977086Y-12122984D02*
X996134Y-12132508D01*
X996134Y-12132508D02*
X1005658Y-12142031D01*
X1005658Y-12142031D02*
X1015182Y-12161079D01*
X1015182Y-12161079D02*
X1024705Y-12199174D01*
X1024705Y-12199174D02*
X1024705Y-12246793D01*
X1024705Y-12246793D02*
X1015182Y-12284888D01*
X1015182Y-12284888D02*
X1005658Y-12303936D01*
X1005658Y-12303936D02*
X996134Y-12313460D01*
X996134Y-12313460D02*
X977086Y-12322984D01*
X977086Y-12322984D02*
X958039Y-12322984D01*
X958039Y-12322984D02*
X938991Y-12313460D01*
X938991Y-12313460D02*
X929467Y-12303936D01*
X929467Y-12303936D02*
X919943Y-12284888D01*
X919943Y-12284888D02*
X910420Y-12246793D01*
X910420Y-12246793D02*
X910420Y-12199174D01*
X910420Y-12199174D02*
X919943Y-12161079D01*
X919943Y-12161079D02*
X929467Y-12142031D01*
X929467Y-12142031D02*
X938991Y-12132508D01*
X938991Y-12132508D02*
X958039Y-12122984D01*
X1110420Y-12322984D02*
X1110420Y-12189650D01*
X1110420Y-12208698D02*
X1119944Y-12199174D01*
X1119944Y-12199174D02*
X1138991Y-12189650D01*
X1138991Y-12189650D02*
X1167563Y-12189650D01*
X1167563Y-12189650D02*
X1186610Y-12199174D01*
X1186610Y-12199174D02*
X1196134Y-12218222D01*
X1196134Y-12218222D02*
X1196134Y-12322984D01*
X1196134Y-12218222D02*
X1205658Y-12199174D01*
X1205658Y-12199174D02*
X1224705Y-12189650D01*
X1224705Y-12189650D02*
X1253277Y-12189650D01*
X1253277Y-12189650D02*
X1272325Y-12199174D01*
X1272325Y-12199174D02*
X1281848Y-12218222D01*
X1281848Y-12218222D02*
X1281848Y-12322984D01*
X1377086Y-12322984D02*
X1377086Y-12189650D01*
X1377086Y-12208698D02*
X1386610Y-12199174D01*
X1386610Y-12199174D02*
X1405658Y-12189650D01*
X1405658Y-12189650D02*
X1434229Y-12189650D01*
X1434229Y-12189650D02*
X1453277Y-12199174D01*
X1453277Y-12199174D02*
X1462801Y-12218222D01*
X1462801Y-12218222D02*
X1462801Y-12322984D01*
X1462801Y-12218222D02*
X1472324Y-12199174D01*
X1472324Y-12199174D02*
X1491372Y-12189650D01*
X1491372Y-12189650D02*
X1519943Y-12189650D01*
X1519943Y-12189650D02*
X1538991Y-12199174D01*
X1538991Y-12199174D02*
X1548515Y-12218222D01*
X1548515Y-12218222D02*
X1548515Y-12322984D01*
X1938991Y-12113460D02*
X1767563Y-12370603D01*
X2196134Y-12122984D02*
X2215182Y-12122984D01*
X2215182Y-12122984D02*
X2234229Y-12132508D01*
X2234229Y-12132508D02*
X2243753Y-12142031D01*
X2243753Y-12142031D02*
X2253277Y-12161079D01*
X2253277Y-12161079D02*
X2262801Y-12199174D01*
X2262801Y-12199174D02*
X2262801Y-12246793D01*
X2262801Y-12246793D02*
X2253277Y-12284888D01*
X2253277Y-12284888D02*
X2243753Y-12303936D01*
X2243753Y-12303936D02*
X2234229Y-12313460D01*
X2234229Y-12313460D02*
X2215182Y-12322984D01*
X2215182Y-12322984D02*
X2196134Y-12322984D01*
X2196134Y-12322984D02*
X2177087Y-12313460D01*
X2177087Y-12313460D02*
X2167563Y-12303936D01*
X2167563Y-12303936D02*
X2158039Y-12284888D01*
X2158039Y-12284888D02*
X2148515Y-12246793D01*
X2148515Y-12246793D02*
X2148515Y-12199174D01*
X2148515Y-12199174D02*
X2158039Y-12161079D01*
X2158039Y-12161079D02*
X2167563Y-12142031D01*
X2167563Y-12142031D02*
X2177087Y-12132508D01*
X2177087Y-12132508D02*
X2196134Y-12122984D01*
X2348515Y-12303936D02*
X2358039Y-12313460D01*
X2358039Y-12313460D02*
X2348515Y-12322984D01*
X2348515Y-12322984D02*
X2338991Y-12313460D01*
X2338991Y-12313460D02*
X2348515Y-12303936D01*
X2348515Y-12303936D02*
X2348515Y-12322984D01*
X2481848Y-12122984D02*
X2500896Y-12122984D01*
X2500896Y-12122984D02*
X2519944Y-12132508D01*
X2519944Y-12132508D02*
X2529468Y-12142031D01*
X2529468Y-12142031D02*
X2538991Y-12161079D01*
X2538991Y-12161079D02*
X2548515Y-12199174D01*
X2548515Y-12199174D02*
X2548515Y-12246793D01*
X2548515Y-12246793D02*
X2538991Y-12284888D01*
X2538991Y-12284888D02*
X2529468Y-12303936D01*
X2529468Y-12303936D02*
X2519944Y-12313460D01*
X2519944Y-12313460D02*
X2500896Y-12322984D01*
X2500896Y-12322984D02*
X2481848Y-12322984D01*
X2481848Y-12322984D02*
X2462801Y-12313460D01*
X2462801Y-12313460D02*
X2453277Y-12303936D01*
X2453277Y-12303936D02*
X2443753Y-12284888D01*
X2443753Y-12284888D02*
X2434229Y-12246793D01*
X2434229Y-12246793D02*
X2434229Y-12199174D01*
X2434229Y-12199174D02*
X2443753Y-12161079D01*
X2443753Y-12161079D02*
X2453277Y-12142031D01*
X2453277Y-12142031D02*
X2462801Y-12132508D01*
X2462801Y-12132508D02*
X2481848Y-12122984D01*
X2719944Y-12122984D02*
X2681848Y-12122984D01*
X2681848Y-12122984D02*
X2662801Y-12132508D01*
X2662801Y-12132508D02*
X2653277Y-12142031D01*
X2653277Y-12142031D02*
X2634229Y-12170603D01*
X2634229Y-12170603D02*
X2624706Y-12208698D01*
X2624706Y-12208698D02*
X2624706Y-12284888D01*
X2624706Y-12284888D02*
X2634229Y-12303936D01*
X2634229Y-12303936D02*
X2643753Y-12313460D01*
X2643753Y-12313460D02*
X2662801Y-12322984D01*
X2662801Y-12322984D02*
X2700896Y-12322984D01*
X2700896Y-12322984D02*
X2719944Y-12313460D01*
X2719944Y-12313460D02*
X2729468Y-12303936D01*
X2729468Y-12303936D02*
X2738991Y-12284888D01*
X2738991Y-12284888D02*
X2738991Y-12237269D01*
X2738991Y-12237269D02*
X2729468Y-12218222D01*
X2729468Y-12218222D02*
X2719944Y-12208698D01*
X2719944Y-12208698D02*
X2700896Y-12199174D01*
X2700896Y-12199174D02*
X2662801Y-12199174D01*
X2662801Y-12199174D02*
X2643753Y-12208698D01*
X2643753Y-12208698D02*
X2634229Y-12218222D01*
X2634229Y-12218222D02*
X2624706Y-12237269D01*
X2929467Y-12322984D02*
X2815182Y-12322984D01*
X2872325Y-12322984D02*
X2872325Y-12122984D01*
X2872325Y-12122984D02*
X2853277Y-12151555D01*
X2853277Y-12151555D02*
X2834229Y-12170603D01*
X2834229Y-12170603D02*
X2815182Y-12180127D01*
X3043753Y-12208698D02*
X3024706Y-12199174D01*
X3024706Y-12199174D02*
X3015182Y-12189650D01*
X3015182Y-12189650D02*
X3005658Y-12170603D01*
X3005658Y-12170603D02*
X3005658Y-12161079D01*
X3005658Y-12161079D02*
X3015182Y-12142031D01*
X3015182Y-12142031D02*
X3024706Y-12132508D01*
X3024706Y-12132508D02*
X3043753Y-12122984D01*
X3043753Y-12122984D02*
X3081848Y-12122984D01*
X3081848Y-12122984D02*
X3100896Y-12132508D01*
X3100896Y-12132508D02*
X3110420Y-12142031D01*
X3110420Y-12142031D02*
X3119944Y-12161079D01*
X3119944Y-12161079D02*
X3119944Y-12170603D01*
X3119944Y-12170603D02*
X3110420Y-12189650D01*
X3110420Y-12189650D02*
X3100896Y-12199174D01*
X3100896Y-12199174D02*
X3081848Y-12208698D01*
X3081848Y-12208698D02*
X3043753Y-12208698D01*
X3043753Y-12208698D02*
X3024706Y-12218222D01*
X3024706Y-12218222D02*
X3015182Y-12227746D01*
X3015182Y-12227746D02*
X3005658Y-12246793D01*
X3005658Y-12246793D02*
X3005658Y-12284888D01*
X3005658Y-12284888D02*
X3015182Y-12303936D01*
X3015182Y-12303936D02*
X3024706Y-12313460D01*
X3024706Y-12313460D02*
X3043753Y-12322984D01*
X3043753Y-12322984D02*
X3081848Y-12322984D01*
X3081848Y-12322984D02*
X3100896Y-12313460D01*
X3100896Y-12313460D02*
X3110420Y-12303936D01*
X3110420Y-12303936D02*
X3119944Y-12284888D01*
X3119944Y-12284888D02*
X3119944Y-12246793D01*
X3119944Y-12246793D02*
X3110420Y-12227746D01*
X3110420Y-12227746D02*
X3100896Y-12218222D01*
X3100896Y-12218222D02*
X3081848Y-12208698D01*
X3196134Y-12122984D02*
X3196134Y-12161079D01*
X3272325Y-12122984D02*
X3272325Y-12161079D01*
X3567563Y-12399174D02*
X3558039Y-12389650D01*
X3558039Y-12389650D02*
X3538991Y-12361079D01*
X3538991Y-12361079D02*
X3529468Y-12342031D01*
X3529468Y-12342031D02*
X3519944Y-12313460D01*
X3519944Y-12313460D02*
X3510420Y-12265841D01*
X3510420Y-12265841D02*
X3510420Y-12227746D01*
X3510420Y-12227746D02*
X3519944Y-12180127D01*
X3519944Y-12180127D02*
X3529468Y-12151555D01*
X3529468Y-12151555D02*
X3538991Y-12132508D01*
X3538991Y-12132508D02*
X3558039Y-12103936D01*
X3558039Y-12103936D02*
X3567563Y-12094412D01*
X3729468Y-12189650D02*
X3729468Y-12322984D01*
X3681848Y-12113460D02*
X3634229Y-12256317D01*
X3634229Y-12256317D02*
X3758039Y-12256317D01*
X3986610Y-12322984D02*
X3986610Y-12122984D01*
X4072325Y-12322984D02*
X4072325Y-12218222D01*
X4072325Y-12218222D02*
X4062801Y-12199174D01*
X4062801Y-12199174D02*
X4043753Y-12189650D01*
X4043753Y-12189650D02*
X4015182Y-12189650D01*
X4015182Y-12189650D02*
X3996134Y-12199174D01*
X3996134Y-12199174D02*
X3986610Y-12208698D01*
X4196134Y-12322984D02*
X4177087Y-12313460D01*
X4177087Y-12313460D02*
X4167563Y-12303936D01*
X4167563Y-12303936D02*
X4158039Y-12284888D01*
X4158039Y-12284888D02*
X4158039Y-12227746D01*
X4158039Y-12227746D02*
X4167563Y-12208698D01*
X4167563Y-12208698D02*
X4177087Y-12199174D01*
X4177087Y-12199174D02*
X4196134Y-12189650D01*
X4196134Y-12189650D02*
X4224706Y-12189650D01*
X4224706Y-12189650D02*
X4243753Y-12199174D01*
X4243753Y-12199174D02*
X4253277Y-12208698D01*
X4253277Y-12208698D02*
X4262801Y-12227746D01*
X4262801Y-12227746D02*
X4262801Y-12284888D01*
X4262801Y-12284888D02*
X4253277Y-12303936D01*
X4253277Y-12303936D02*
X4243753Y-12313460D01*
X4243753Y-12313460D02*
X4224706Y-12322984D01*
X4224706Y-12322984D02*
X4196134Y-12322984D01*
X4377087Y-12322984D02*
X4358039Y-12313460D01*
X4358039Y-12313460D02*
X4348515Y-12294412D01*
X4348515Y-12294412D02*
X4348515Y-12122984D01*
X4529468Y-12313460D02*
X4510420Y-12322984D01*
X4510420Y-12322984D02*
X4472325Y-12322984D01*
X4472325Y-12322984D02*
X4453277Y-12313460D01*
X4453277Y-12313460D02*
X4443753Y-12294412D01*
X4443753Y-12294412D02*
X4443753Y-12218222D01*
X4443753Y-12218222D02*
X4453277Y-12199174D01*
X4453277Y-12199174D02*
X4472325Y-12189650D01*
X4472325Y-12189650D02*
X4510420Y-12189650D01*
X4510420Y-12189650D02*
X4529468Y-12199174D01*
X4529468Y-12199174D02*
X4538992Y-12218222D01*
X4538992Y-12218222D02*
X4538992Y-12237269D01*
X4538992Y-12237269D02*
X4443753Y-12256317D01*
X4615182Y-12313460D02*
X4634230Y-12322984D01*
X4634230Y-12322984D02*
X4672325Y-12322984D01*
X4672325Y-12322984D02*
X4691373Y-12313460D01*
X4691373Y-12313460D02*
X4700896Y-12294412D01*
X4700896Y-12294412D02*
X4700896Y-12284888D01*
X4700896Y-12284888D02*
X4691373Y-12265841D01*
X4691373Y-12265841D02*
X4672325Y-12256317D01*
X4672325Y-12256317D02*
X4643753Y-12256317D01*
X4643753Y-12256317D02*
X4624706Y-12246793D01*
X4624706Y-12246793D02*
X4615182Y-12227746D01*
X4615182Y-12227746D02*
X4615182Y-12218222D01*
X4615182Y-12218222D02*
X4624706Y-12199174D01*
X4624706Y-12199174D02*
X4643753Y-12189650D01*
X4643753Y-12189650D02*
X4672325Y-12189650D01*
X4672325Y-12189650D02*
X4691373Y-12199174D01*
X4767563Y-12399174D02*
X4777087Y-12389650D01*
X4777087Y-12389650D02*
X4796134Y-12361079D01*
X4796134Y-12361079D02*
X4805658Y-12342031D01*
X4805658Y-12342031D02*
X4815182Y-12313460D01*
X4815182Y-12313460D02*
X4824706Y-12265841D01*
X4824706Y-12265841D02*
X4824706Y-12227746D01*
X4824706Y-12227746D02*
X4815182Y-12180127D01*
X4815182Y-12180127D02*
X4805658Y-12151555D01*
X4805658Y-12151555D02*
X4796134Y-12132508D01*
X4796134Y-12132508D02*
X4777087Y-12103936D01*
X4777087Y-12103936D02*
X4767563Y-12094412D01*
M02*
