%TF.GenerationSoftware,KiCad,Pcbnew,10.0.4*%
%TF.CreationDate,2026-07-08T20:02:53+00:00*%
%TF.ProjectId,NodePad,4e6f6465-5061-4642-9e6b-696361645f70,0.1*%
%TF.SameCoordinates,Original*%
%TF.FileFunction,Soldermask,Bot*%
%TF.FilePolarity,Negative*%
%FSLAX46Y46*%
G04 Gerber Fmt 4.6, Leading zero omitted, Abs format (unit mm)*
G04 Created by KiCad (PCBNEW 10.0.4) date 2026-07-08 20:02:53*
%MOMM*%
%LPD*%
G01*
G04 APERTURE LIST*
G04 Aperture macros list*
%AMRoundRect*
0 Rectangle with rounded corners*
0 $1 Rounding radius*
0 $2 $3 $4 $5 $6 $7 $8 $9 X,Y pos of 4 corners*
0 Add a 4 corners polygon primitive as box body*
4,1,4,$2,$3,$4,$5,$6,$7,$8,$9,$2,$3,0*
0 Add four circle primitives for the rounded corners*
1,1,$1+$1,$2,$3*
1,1,$1+$1,$4,$5*
1,1,$1+$1,$6,$7*
1,1,$1+$1,$8,$9*
0 Add four rect primitives between the rounded corners*
20,1,$1+$1,$2,$3,$4,$5,0*
20,1,$1+$1,$4,$5,$6,$7,0*
20,1,$1+$1,$6,$7,$8,$9,0*
20,1,$1+$1,$8,$9,$2,$3,0*%
G04 Aperture macros list end*
%ADD10RoundRect,0.250000X-0.350000X-0.350000X0.350000X-0.350000X0.350000X0.350000X-0.350000X0.350000X0*%
%ADD11C,1.200000*%
%ADD12O,1.200000X2.400000*%
%ADD13O,1.200000X2.100000*%
%ADD14O,3.300000X1.500000*%
%ADD15O,2.300000X1.500000*%
%ADD16R,1.700000X1.700000*%
%ADD17O,1.700000X1.700000*%
%ADD18C,3.250000*%
%ADD19R,1.500000X1.500000*%
%ADD20C,1.500000*%
%ADD21C,2.300000*%
%ADD22C,0.650000*%
%ADD23O,1.000000X2.100000*%
%ADD24O,1.000000X1.600000*%
%ADD25C,2.700000*%
%ADD26RoundRect,0.250000X-0.550000X-0.550000X0.550000X-0.550000X0.550000X0.550000X-0.550000X0.550000X0*%
%ADD27C,1.600000*%
G04 APERTURE END LIST*
D10*
%TO.C,J10*%
X48500000Y-89000000D03*
D11*
X51000000Y-89000000D03*
X53000000Y-89000000D03*
X55500000Y-89000000D03*
X56000000Y-87500000D03*
X54000000Y-87500000D03*
X52000000Y-87500000D03*
X50000000Y-87500000D03*
X48000000Y-87500000D03*
D12*
X45600000Y-88250000D03*
D13*
X45600000Y-96750000D03*
D12*
X58400000Y-88250000D03*
D13*
X58400000Y-96750000D03*
%TD*%
D10*
%TO.C,J11*%
X54000000Y-89000000D03*
D11*
X56500000Y-89000000D03*
X58500000Y-89000000D03*
X61000000Y-89000000D03*
X61500000Y-87500000D03*
X59500000Y-87500000D03*
X57500000Y-87500000D03*
X55500000Y-87500000D03*
X53500000Y-87500000D03*
D12*
X51100000Y-88250000D03*
D13*
X51100000Y-96750000D03*
D12*
X63900000Y-88250000D03*
D13*
X63900000Y-96750000D03*
%TD*%
D14*
%TO.C,J12*%
X56975000Y-81750000D03*
X56975000Y-96250000D03*
D15*
X62935000Y-81750000D03*
X62935000Y-96250000D03*
%TD*%
D16*
%TO.C,J13*%
X65000000Y-89000000D03*
D17*
X67540000Y-89000000D03*
X65000000Y-91540000D03*
X67540000Y-91540000D03*
X65000000Y-94080000D03*
X67540000Y-94080000D03*
X65000000Y-96620000D03*
X67540000Y-96620000D03*
X65000000Y-99160000D03*
X67540000Y-99160000D03*
X65000000Y-101700000D03*
X67540000Y-101700000D03*
X65000000Y-104240000D03*
X67540000Y-104240000D03*
X65000000Y-106780000D03*
X67540000Y-106780000D03*
X65000000Y-109320000D03*
X67540000Y-109320000D03*
X65000000Y-111860000D03*
X67540000Y-111860000D03*
X65000000Y-114400000D03*
X67540000Y-114400000D03*
X65000000Y-116940000D03*
X67540000Y-116940000D03*
X65000000Y-119480000D03*
X67540000Y-119480000D03*
X65000000Y-122020000D03*
X67540000Y-122020000D03*
X65000000Y-124560000D03*
X67540000Y-124560000D03*
X65000000Y-127100000D03*
X67540000Y-127100000D03*
X65000000Y-129640000D03*
X67540000Y-129640000D03*
X65000000Y-132180000D03*
X67540000Y-132180000D03*
X65000000Y-134720000D03*
X67540000Y-134720000D03*
X65000000Y-137260000D03*
X67540000Y-137260000D03*
%TD*%
D16*
%TO.C,J15*%
X70500000Y-89000000D03*
D17*
X70500000Y-91540000D03*
X70500000Y-94080000D03*
X70500000Y-96620000D03*
%TD*%
D18*
%TO.C,J3*%
X78710000Y-86460000D03*
X107160000Y-86460000D03*
D19*
X81500000Y-89000000D03*
D20*
X82516000Y-90780000D03*
X83532000Y-89000000D03*
X84548000Y-90780000D03*
X85564000Y-89000000D03*
X86580000Y-90780000D03*
X87596000Y-89000000D03*
X88612000Y-90780000D03*
X78200000Y-95600000D03*
X80490000Y-95600000D03*
X89630000Y-95600000D03*
X91920000Y-95600000D03*
X97250000Y-89000000D03*
X98266000Y-90780000D03*
X99282000Y-89000000D03*
X100298000Y-90780000D03*
X101314000Y-89000000D03*
X102330000Y-90780000D03*
X103346000Y-89000000D03*
X104362000Y-90780000D03*
X93950000Y-95600000D03*
X96240000Y-95600000D03*
X105380000Y-95600000D03*
X107670000Y-95600000D03*
D21*
X76930000Y-89890000D03*
X108930000Y-89890000D03*
%TD*%
D18*
%TO.C,J4*%
X84210000Y-86460000D03*
X112660000Y-86460000D03*
D19*
X87000000Y-89000000D03*
D20*
X88016000Y-90780000D03*
X89032000Y-89000000D03*
X90048000Y-90780000D03*
X91064000Y-89000000D03*
X92080000Y-90780000D03*
X93096000Y-89000000D03*
X94112000Y-90780000D03*
X83700000Y-95600000D03*
X85990000Y-95600000D03*
X95130000Y-95600000D03*
X97420000Y-95600000D03*
X102750000Y-89000000D03*
X103766000Y-90780000D03*
X104782000Y-89000000D03*
X105798000Y-90780000D03*
X106814000Y-89000000D03*
X107830000Y-90780000D03*
X108846000Y-89000000D03*
X109862000Y-90780000D03*
X99450000Y-95600000D03*
X101740000Y-95600000D03*
X110880000Y-95600000D03*
X113170000Y-95600000D03*
D21*
X82430000Y-89890000D03*
X114430000Y-89890000D03*
%TD*%
D22*
%TO.C,J7*%
X12610000Y-91900000D03*
X18390000Y-91900000D03*
D23*
X11180000Y-91370000D03*
D24*
X11180000Y-95550000D03*
D23*
X19820000Y-91370000D03*
D24*
X19820000Y-95550000D03*
%TD*%
D10*
%TO.C,J8*%
X21000000Y-94500000D03*
D11*
X23500000Y-94500000D03*
X25500000Y-94500000D03*
X28000000Y-94500000D03*
X28500000Y-93000000D03*
X26500000Y-93000000D03*
X24500000Y-93000000D03*
X22500000Y-93000000D03*
X20500000Y-93000000D03*
D12*
X18100000Y-93750000D03*
D13*
X18100000Y-102250000D03*
D12*
X30900000Y-93750000D03*
D13*
X30900000Y-102250000D03*
%TD*%
D10*
%TO.C,J9*%
X26500000Y-94500000D03*
D11*
X29000000Y-94500000D03*
X31000000Y-94500000D03*
X33500000Y-94500000D03*
X34000000Y-93000000D03*
X32000000Y-93000000D03*
X30000000Y-93000000D03*
X28000000Y-93000000D03*
X26000000Y-93000000D03*
D12*
X23600000Y-93750000D03*
D13*
X23600000Y-102250000D03*
D12*
X36400000Y-93750000D03*
D13*
X36400000Y-102250000D03*
%TD*%
D25*
%TO.C,MH1*%
X37500000Y-94500000D03*
%TD*%
%TO.C,MH2*%
X43000000Y-94500000D03*
%TD*%
%TO.C,MH3*%
X48500000Y-94500000D03*
%TD*%
%TO.C,MH4*%
X54000000Y-94500000D03*
%TD*%
D26*
%TO.C,T1*%
X21000000Y-122000000D03*
D27*
X21000000Y-124540000D03*
X21000000Y-127080000D03*
X21000000Y-129620000D03*
X28620000Y-129620000D03*
X28620000Y-127080000D03*
X28620000Y-124540000D03*
X28620000Y-122000000D03*
%TD*%
M02*
