%TF.GenerationSoftware,KiCad,Pcbnew,10.0.4*%
%TF.CreationDate,2026-07-08T20:03:10+00:00*%
%TF.ProjectId,NodePad,4e6f6465-5061-4642-9e6b-696361645f70,0.1*%
%TF.SameCoordinates,Original*%
%TF.FileFunction,Drillmap*%
%TF.FilePolarity,Positive*%
%FSLAX45Y45*%
G04 Gerber Fmt 4.5, Leading zero omitted, Abs format (unit mm)*
G04 Created by KiCad (PCBNEW 10.0.4) date 2026-07-08 20:03:10*
%MOMM*%
%LPD*%
G01*
G04 APERTURE LIST*
%ADD10C,0.150000*%
%ADD11C,0.200000*%
%ADD12C,0.100000*%
%ADD13C,0.270000*%
%ADD14C,0.325000*%
G04 APERTURE END LIST*
D10*
X0Y0D02*
X10000000Y0D01*
X10000000Y0D02*
X10000000Y-10000000D01*
X10000000Y-10000000D02*
X0Y-10000000D01*
X0Y-10000000D02*
X0Y0D01*
X485000Y-350000D02*
G75*
G02*
X215000Y-350000I-135000J0D01*
G01*
X215000Y-350000D02*
G75*
G02*
X485000Y-350000I135000J0D01*
G01*
X9785000Y-350000D02*
G75*
G02*
X9515000Y-350000I-135000J0D01*
G01*
X9515000Y-350000D02*
G75*
G02*
X9785000Y-350000I135000J0D01*
G01*
X485000Y-9650000D02*
G75*
G02*
X215000Y-9650000I-135000J0D01*
G01*
X215000Y-9650000D02*
G75*
G02*
X485000Y-9650000I135000J0D01*
G01*
X9785000Y-9650000D02*
G75*
G02*
X9515000Y-9650000I-135000J0D01*
G01*
X9515000Y-9650000D02*
G75*
G02*
X9785000Y-9650000I135000J0D01*
G01*
D11*
D12*
X1228500Y-9157500D02*
X1293500Y-9222500D01*
X1293500Y-9157500D02*
X1228500Y-9222500D01*
X1806500Y-9157500D02*
X1871500Y-9222500D01*
X1871500Y-9157500D02*
X1806500Y-9222500D01*
D13*
X3885000Y-9450000D02*
G75*
G02*
X3615000Y-9450000I-135000J0D01*
G01*
X3615000Y-9450000D02*
G75*
G02*
X3885000Y-9450000I135000J0D01*
G01*
X4435000Y-9450000D02*
G75*
G02*
X4165000Y-9450000I-135000J0D01*
G01*
X4165000Y-9450000D02*
G75*
G02*
X4435000Y-9450000I135000J0D01*
G01*
X4985000Y-9450000D02*
G75*
G02*
X4715000Y-9450000I-135000J0D01*
G01*
X4715000Y-9450000D02*
G75*
G02*
X4985000Y-9450000I135000J0D01*
G01*
X5535000Y-9450000D02*
G75*
G02*
X5265000Y-9450000I-135000J0D01*
G01*
X5265000Y-9450000D02*
G75*
G02*
X5535000Y-9450000I135000J0D01*
G01*
D14*
X7871000Y-8483500D02*
X7871000Y-8808500D01*
X7708500Y-8646000D02*
X8033500Y-8646000D01*
X8421000Y-8483500D02*
X8421000Y-8808500D01*
X8258500Y-8646000D02*
X8583500Y-8646000D01*
X10716000Y-8483500D02*
X10716000Y-8808500D01*
X10553500Y-8646000D02*
X10878500Y-8646000D01*
X11266000Y-8483500D02*
X11266000Y-8808500D01*
X11103500Y-8646000D02*
X11428500Y-8646000D01*
D11*
X253277Y-10318984D02*
X253277Y-10118984D01*
X253277Y-10118984D02*
X300896Y-10118984D01*
X300896Y-10118984D02*
X329467Y-10128508D01*
X329467Y-10128508D02*
X348515Y-10147555D01*
X348515Y-10147555D02*
X358039Y-10166603D01*
X358039Y-10166603D02*
X367562Y-10204698D01*
X367562Y-10204698D02*
X367562Y-10233270D01*
X367562Y-10233270D02*
X358039Y-10271365D01*
X358039Y-10271365D02*
X348515Y-10290412D01*
X348515Y-10290412D02*
X329467Y-10309460D01*
X329467Y-10309460D02*
X300896Y-10318984D01*
X300896Y-10318984D02*
X253277Y-10318984D01*
X453277Y-10318984D02*
X453277Y-10185650D01*
X453277Y-10223746D02*
X462801Y-10204698D01*
X462801Y-10204698D02*
X472324Y-10195174D01*
X472324Y-10195174D02*
X491372Y-10185650D01*
X491372Y-10185650D02*
X510420Y-10185650D01*
X577086Y-10318984D02*
X577086Y-10185650D01*
X577086Y-10118984D02*
X567563Y-10128508D01*
X567563Y-10128508D02*
X577086Y-10138031D01*
X577086Y-10138031D02*
X586610Y-10128508D01*
X586610Y-10128508D02*
X577086Y-10118984D01*
X577086Y-10118984D02*
X577086Y-10138031D01*
X700896Y-10318984D02*
X681848Y-10309460D01*
X681848Y-10309460D02*
X672324Y-10290412D01*
X672324Y-10290412D02*
X672324Y-10118984D01*
X805658Y-10318984D02*
X786610Y-10309460D01*
X786610Y-10309460D02*
X777086Y-10290412D01*
X777086Y-10290412D02*
X777086Y-10118984D01*
X1034229Y-10318984D02*
X1034229Y-10118984D01*
X1034229Y-10118984D02*
X1100896Y-10261841D01*
X1100896Y-10261841D02*
X1167563Y-10118984D01*
X1167563Y-10118984D02*
X1167563Y-10318984D01*
X1348515Y-10318984D02*
X1348515Y-10214222D01*
X1348515Y-10214222D02*
X1338991Y-10195174D01*
X1338991Y-10195174D02*
X1319944Y-10185650D01*
X1319944Y-10185650D02*
X1281848Y-10185650D01*
X1281848Y-10185650D02*
X1262801Y-10195174D01*
X1348515Y-10309460D02*
X1329467Y-10318984D01*
X1329467Y-10318984D02*
X1281848Y-10318984D01*
X1281848Y-10318984D02*
X1262801Y-10309460D01*
X1262801Y-10309460D02*
X1253277Y-10290412D01*
X1253277Y-10290412D02*
X1253277Y-10271365D01*
X1253277Y-10271365D02*
X1262801Y-10252317D01*
X1262801Y-10252317D02*
X1281848Y-10242793D01*
X1281848Y-10242793D02*
X1329467Y-10242793D01*
X1329467Y-10242793D02*
X1348515Y-10233270D01*
X1443753Y-10185650D02*
X1443753Y-10385650D01*
X1443753Y-10195174D02*
X1462801Y-10185650D01*
X1462801Y-10185650D02*
X1500896Y-10185650D01*
X1500896Y-10185650D02*
X1519943Y-10195174D01*
X1519943Y-10195174D02*
X1529467Y-10204698D01*
X1529467Y-10204698D02*
X1538991Y-10223746D01*
X1538991Y-10223746D02*
X1538991Y-10280889D01*
X1538991Y-10280889D02*
X1529467Y-10299936D01*
X1529467Y-10299936D02*
X1519943Y-10309460D01*
X1519943Y-10309460D02*
X1500896Y-10318984D01*
X1500896Y-10318984D02*
X1462801Y-10318984D01*
X1462801Y-10318984D02*
X1443753Y-10309460D01*
X1624705Y-10299936D02*
X1634229Y-10309460D01*
X1634229Y-10309460D02*
X1624705Y-10318984D01*
X1624705Y-10318984D02*
X1615182Y-10309460D01*
X1615182Y-10309460D02*
X1624705Y-10299936D01*
X1624705Y-10299936D02*
X1624705Y-10318984D01*
X1624705Y-10195174D02*
X1634229Y-10204698D01*
X1634229Y-10204698D02*
X1624705Y-10214222D01*
X1624705Y-10214222D02*
X1615182Y-10204698D01*
X1615182Y-10204698D02*
X1624705Y-10195174D01*
X1624705Y-10195174D02*
X1624705Y-10214222D01*
D12*
X-72500Y-10615000D02*
X-7500Y-10680000D01*
X-7500Y-10615000D02*
X-72500Y-10680000D01*
D11*
X291372Y-10538984D02*
X310420Y-10538984D01*
X310420Y-10538984D02*
X329467Y-10548508D01*
X329467Y-10548508D02*
X338991Y-10558031D01*
X338991Y-10558031D02*
X348515Y-10577079D01*
X348515Y-10577079D02*
X358039Y-10615174D01*
X358039Y-10615174D02*
X358039Y-10662793D01*
X358039Y-10662793D02*
X348515Y-10700889D01*
X348515Y-10700889D02*
X338991Y-10719936D01*
X338991Y-10719936D02*
X329467Y-10729460D01*
X329467Y-10729460D02*
X310420Y-10738984D01*
X310420Y-10738984D02*
X291372Y-10738984D01*
X291372Y-10738984D02*
X272324Y-10729460D01*
X272324Y-10729460D02*
X262801Y-10719936D01*
X262801Y-10719936D02*
X253277Y-10700889D01*
X253277Y-10700889D02*
X243753Y-10662793D01*
X243753Y-10662793D02*
X243753Y-10615174D01*
X243753Y-10615174D02*
X253277Y-10577079D01*
X253277Y-10577079D02*
X262801Y-10558031D01*
X262801Y-10558031D02*
X272324Y-10548508D01*
X272324Y-10548508D02*
X291372Y-10538984D01*
X443753Y-10719936D02*
X453277Y-10729460D01*
X453277Y-10729460D02*
X443753Y-10738984D01*
X443753Y-10738984D02*
X434229Y-10729460D01*
X434229Y-10729460D02*
X443753Y-10719936D01*
X443753Y-10719936D02*
X443753Y-10738984D01*
X624705Y-10538984D02*
X586610Y-10538984D01*
X586610Y-10538984D02*
X567563Y-10548508D01*
X567563Y-10548508D02*
X558039Y-10558031D01*
X558039Y-10558031D02*
X538991Y-10586603D01*
X538991Y-10586603D02*
X529467Y-10624698D01*
X529467Y-10624698D02*
X529467Y-10700889D01*
X529467Y-10700889D02*
X538991Y-10719936D01*
X538991Y-10719936D02*
X548515Y-10729460D01*
X548515Y-10729460D02*
X567563Y-10738984D01*
X567563Y-10738984D02*
X605658Y-10738984D01*
X605658Y-10738984D02*
X624705Y-10729460D01*
X624705Y-10729460D02*
X634229Y-10719936D01*
X634229Y-10719936D02*
X643753Y-10700889D01*
X643753Y-10700889D02*
X643753Y-10653270D01*
X643753Y-10653270D02*
X634229Y-10634222D01*
X634229Y-10634222D02*
X624705Y-10624698D01*
X624705Y-10624698D02*
X605658Y-10615174D01*
X605658Y-10615174D02*
X567563Y-10615174D01*
X567563Y-10615174D02*
X548515Y-10624698D01*
X548515Y-10624698D02*
X538991Y-10634222D01*
X538991Y-10634222D02*
X529467Y-10653270D01*
X824705Y-10538984D02*
X729467Y-10538984D01*
X729467Y-10538984D02*
X719943Y-10634222D01*
X719943Y-10634222D02*
X729467Y-10624698D01*
X729467Y-10624698D02*
X748515Y-10615174D01*
X748515Y-10615174D02*
X796134Y-10615174D01*
X796134Y-10615174D02*
X815182Y-10624698D01*
X815182Y-10624698D02*
X824705Y-10634222D01*
X824705Y-10634222D02*
X834229Y-10653270D01*
X834229Y-10653270D02*
X834229Y-10700889D01*
X834229Y-10700889D02*
X824705Y-10719936D01*
X824705Y-10719936D02*
X815182Y-10729460D01*
X815182Y-10729460D02*
X796134Y-10738984D01*
X796134Y-10738984D02*
X748515Y-10738984D01*
X748515Y-10738984D02*
X729467Y-10729460D01*
X729467Y-10729460D02*
X719943Y-10719936D01*
X958039Y-10538984D02*
X977086Y-10538984D01*
X977086Y-10538984D02*
X996134Y-10548508D01*
X996134Y-10548508D02*
X1005658Y-10558031D01*
X1005658Y-10558031D02*
X1015182Y-10577079D01*
X1015182Y-10577079D02*
X1024705Y-10615174D01*
X1024705Y-10615174D02*
X1024705Y-10662793D01*
X1024705Y-10662793D02*
X1015182Y-10700889D01*
X1015182Y-10700889D02*
X1005658Y-10719936D01*
X1005658Y-10719936D02*
X996134Y-10729460D01*
X996134Y-10729460D02*
X977086Y-10738984D01*
X977086Y-10738984D02*
X958039Y-10738984D01*
X958039Y-10738984D02*
X938991Y-10729460D01*
X938991Y-10729460D02*
X929467Y-10719936D01*
X929467Y-10719936D02*
X919943Y-10700889D01*
X919943Y-10700889D02*
X910420Y-10662793D01*
X910420Y-10662793D02*
X910420Y-10615174D01*
X910420Y-10615174D02*
X919943Y-10577079D01*
X919943Y-10577079D02*
X929467Y-10558031D01*
X929467Y-10558031D02*
X938991Y-10548508D01*
X938991Y-10548508D02*
X958039Y-10538984D01*
X1110420Y-10738984D02*
X1110420Y-10605650D01*
X1110420Y-10624698D02*
X1119944Y-10615174D01*
X1119944Y-10615174D02*
X1138991Y-10605650D01*
X1138991Y-10605650D02*
X1167563Y-10605650D01*
X1167563Y-10605650D02*
X1186610Y-10615174D01*
X1186610Y-10615174D02*
X1196134Y-10634222D01*
X1196134Y-10634222D02*
X1196134Y-10738984D01*
X1196134Y-10634222D02*
X1205658Y-10615174D01*
X1205658Y-10615174D02*
X1224705Y-10605650D01*
X1224705Y-10605650D02*
X1253277Y-10605650D01*
X1253277Y-10605650D02*
X1272325Y-10615174D01*
X1272325Y-10615174D02*
X1281848Y-10634222D01*
X1281848Y-10634222D02*
X1281848Y-10738984D01*
X1377086Y-10738984D02*
X1377086Y-10605650D01*
X1377086Y-10624698D02*
X1386610Y-10615174D01*
X1386610Y-10615174D02*
X1405658Y-10605650D01*
X1405658Y-10605650D02*
X1434229Y-10605650D01*
X1434229Y-10605650D02*
X1453277Y-10615174D01*
X1453277Y-10615174D02*
X1462801Y-10634222D01*
X1462801Y-10634222D02*
X1462801Y-10738984D01*
X1462801Y-10634222D02*
X1472324Y-10615174D01*
X1472324Y-10615174D02*
X1491372Y-10605650D01*
X1491372Y-10605650D02*
X1519943Y-10605650D01*
X1519943Y-10605650D02*
X1538991Y-10615174D01*
X1538991Y-10615174D02*
X1548515Y-10634222D01*
X1548515Y-10634222D02*
X1548515Y-10738984D01*
X1938991Y-10529460D02*
X1767563Y-10786603D01*
X2196134Y-10538984D02*
X2215182Y-10538984D01*
X2215182Y-10538984D02*
X2234229Y-10548508D01*
X2234229Y-10548508D02*
X2243753Y-10558031D01*
X2243753Y-10558031D02*
X2253277Y-10577079D01*
X2253277Y-10577079D02*
X2262801Y-10615174D01*
X2262801Y-10615174D02*
X2262801Y-10662793D01*
X2262801Y-10662793D02*
X2253277Y-10700889D01*
X2253277Y-10700889D02*
X2243753Y-10719936D01*
X2243753Y-10719936D02*
X2234229Y-10729460D01*
X2234229Y-10729460D02*
X2215182Y-10738984D01*
X2215182Y-10738984D02*
X2196134Y-10738984D01*
X2196134Y-10738984D02*
X2177087Y-10729460D01*
X2177087Y-10729460D02*
X2167563Y-10719936D01*
X2167563Y-10719936D02*
X2158039Y-10700889D01*
X2158039Y-10700889D02*
X2148515Y-10662793D01*
X2148515Y-10662793D02*
X2148515Y-10615174D01*
X2148515Y-10615174D02*
X2158039Y-10577079D01*
X2158039Y-10577079D02*
X2167563Y-10558031D01*
X2167563Y-10558031D02*
X2177087Y-10548508D01*
X2177087Y-10548508D02*
X2196134Y-10538984D01*
X2348515Y-10719936D02*
X2358039Y-10729460D01*
X2358039Y-10729460D02*
X2348515Y-10738984D01*
X2348515Y-10738984D02*
X2338991Y-10729460D01*
X2338991Y-10729460D02*
X2348515Y-10719936D01*
X2348515Y-10719936D02*
X2348515Y-10738984D01*
X2481848Y-10538984D02*
X2500896Y-10538984D01*
X2500896Y-10538984D02*
X2519944Y-10548508D01*
X2519944Y-10548508D02*
X2529468Y-10558031D01*
X2529468Y-10558031D02*
X2538991Y-10577079D01*
X2538991Y-10577079D02*
X2548515Y-10615174D01*
X2548515Y-10615174D02*
X2548515Y-10662793D01*
X2548515Y-10662793D02*
X2538991Y-10700889D01*
X2538991Y-10700889D02*
X2529468Y-10719936D01*
X2529468Y-10719936D02*
X2519944Y-10729460D01*
X2519944Y-10729460D02*
X2500896Y-10738984D01*
X2500896Y-10738984D02*
X2481848Y-10738984D01*
X2481848Y-10738984D02*
X2462801Y-10729460D01*
X2462801Y-10729460D02*
X2453277Y-10719936D01*
X2453277Y-10719936D02*
X2443753Y-10700889D01*
X2443753Y-10700889D02*
X2434229Y-10662793D01*
X2434229Y-10662793D02*
X2434229Y-10615174D01*
X2434229Y-10615174D02*
X2443753Y-10577079D01*
X2443753Y-10577079D02*
X2453277Y-10558031D01*
X2453277Y-10558031D02*
X2462801Y-10548508D01*
X2462801Y-10548508D02*
X2481848Y-10538984D01*
X2624706Y-10558031D02*
X2634229Y-10548508D01*
X2634229Y-10548508D02*
X2653277Y-10538984D01*
X2653277Y-10538984D02*
X2700896Y-10538984D01*
X2700896Y-10538984D02*
X2719944Y-10548508D01*
X2719944Y-10548508D02*
X2729468Y-10558031D01*
X2729468Y-10558031D02*
X2738991Y-10577079D01*
X2738991Y-10577079D02*
X2738991Y-10596127D01*
X2738991Y-10596127D02*
X2729468Y-10624698D01*
X2729468Y-10624698D02*
X2615182Y-10738984D01*
X2615182Y-10738984D02*
X2738991Y-10738984D01*
X2919944Y-10538984D02*
X2824706Y-10538984D01*
X2824706Y-10538984D02*
X2815182Y-10634222D01*
X2815182Y-10634222D02*
X2824706Y-10624698D01*
X2824706Y-10624698D02*
X2843753Y-10615174D01*
X2843753Y-10615174D02*
X2891372Y-10615174D01*
X2891372Y-10615174D02*
X2910420Y-10624698D01*
X2910420Y-10624698D02*
X2919944Y-10634222D01*
X2919944Y-10634222D02*
X2929467Y-10653270D01*
X2929467Y-10653270D02*
X2929467Y-10700889D01*
X2929467Y-10700889D02*
X2919944Y-10719936D01*
X2919944Y-10719936D02*
X2910420Y-10729460D01*
X2910420Y-10729460D02*
X2891372Y-10738984D01*
X2891372Y-10738984D02*
X2843753Y-10738984D01*
X2843753Y-10738984D02*
X2824706Y-10729460D01*
X2824706Y-10729460D02*
X2815182Y-10719936D01*
X3100896Y-10538984D02*
X3062801Y-10538984D01*
X3062801Y-10538984D02*
X3043753Y-10548508D01*
X3043753Y-10548508D02*
X3034229Y-10558031D01*
X3034229Y-10558031D02*
X3015182Y-10586603D01*
X3015182Y-10586603D02*
X3005658Y-10624698D01*
X3005658Y-10624698D02*
X3005658Y-10700889D01*
X3005658Y-10700889D02*
X3015182Y-10719936D01*
X3015182Y-10719936D02*
X3024706Y-10729460D01*
X3024706Y-10729460D02*
X3043753Y-10738984D01*
X3043753Y-10738984D02*
X3081848Y-10738984D01*
X3081848Y-10738984D02*
X3100896Y-10729460D01*
X3100896Y-10729460D02*
X3110420Y-10719936D01*
X3110420Y-10719936D02*
X3119944Y-10700889D01*
X3119944Y-10700889D02*
X3119944Y-10653270D01*
X3119944Y-10653270D02*
X3110420Y-10634222D01*
X3110420Y-10634222D02*
X3100896Y-10624698D01*
X3100896Y-10624698D02*
X3081848Y-10615174D01*
X3081848Y-10615174D02*
X3043753Y-10615174D01*
X3043753Y-10615174D02*
X3024706Y-10624698D01*
X3024706Y-10624698D02*
X3015182Y-10634222D01*
X3015182Y-10634222D02*
X3005658Y-10653270D01*
X3196134Y-10538984D02*
X3196134Y-10577079D01*
X3272325Y-10538984D02*
X3272325Y-10577079D01*
X3567563Y-10815174D02*
X3558039Y-10805650D01*
X3558039Y-10805650D02*
X3538991Y-10777079D01*
X3538991Y-10777079D02*
X3529468Y-10758031D01*
X3529468Y-10758031D02*
X3519944Y-10729460D01*
X3519944Y-10729460D02*
X3510420Y-10681841D01*
X3510420Y-10681841D02*
X3510420Y-10643746D01*
X3510420Y-10643746D02*
X3519944Y-10596127D01*
X3519944Y-10596127D02*
X3529468Y-10567555D01*
X3529468Y-10567555D02*
X3538991Y-10548508D01*
X3538991Y-10548508D02*
X3558039Y-10519936D01*
X3558039Y-10519936D02*
X3567563Y-10510412D01*
X3634229Y-10558031D02*
X3643753Y-10548508D01*
X3643753Y-10548508D02*
X3662801Y-10538984D01*
X3662801Y-10538984D02*
X3710420Y-10538984D01*
X3710420Y-10538984D02*
X3729468Y-10548508D01*
X3729468Y-10548508D02*
X3738991Y-10558031D01*
X3738991Y-10558031D02*
X3748515Y-10577079D01*
X3748515Y-10577079D02*
X3748515Y-10596127D01*
X3748515Y-10596127D02*
X3738991Y-10624698D01*
X3738991Y-10624698D02*
X3624706Y-10738984D01*
X3624706Y-10738984D02*
X3748515Y-10738984D01*
X3986610Y-10738984D02*
X3986610Y-10538984D01*
X4072325Y-10738984D02*
X4072325Y-10634222D01*
X4072325Y-10634222D02*
X4062801Y-10615174D01*
X4062801Y-10615174D02*
X4043753Y-10605650D01*
X4043753Y-10605650D02*
X4015182Y-10605650D01*
X4015182Y-10605650D02*
X3996134Y-10615174D01*
X3996134Y-10615174D02*
X3986610Y-10624698D01*
X4196134Y-10738984D02*
X4177087Y-10729460D01*
X4177087Y-10729460D02*
X4167563Y-10719936D01*
X4167563Y-10719936D02*
X4158039Y-10700889D01*
X4158039Y-10700889D02*
X4158039Y-10643746D01*
X4158039Y-10643746D02*
X4167563Y-10624698D01*
X4167563Y-10624698D02*
X4177087Y-10615174D01*
X4177087Y-10615174D02*
X4196134Y-10605650D01*
X4196134Y-10605650D02*
X4224706Y-10605650D01*
X4224706Y-10605650D02*
X4243753Y-10615174D01*
X4243753Y-10615174D02*
X4253277Y-10624698D01*
X4253277Y-10624698D02*
X4262801Y-10643746D01*
X4262801Y-10643746D02*
X4262801Y-10700889D01*
X4262801Y-10700889D02*
X4253277Y-10719936D01*
X4253277Y-10719936D02*
X4243753Y-10729460D01*
X4243753Y-10729460D02*
X4224706Y-10738984D01*
X4224706Y-10738984D02*
X4196134Y-10738984D01*
X4377087Y-10738984D02*
X4358039Y-10729460D01*
X4358039Y-10729460D02*
X4348515Y-10710412D01*
X4348515Y-10710412D02*
X4348515Y-10538984D01*
X4529468Y-10729460D02*
X4510420Y-10738984D01*
X4510420Y-10738984D02*
X4472325Y-10738984D01*
X4472325Y-10738984D02*
X4453277Y-10729460D01*
X4453277Y-10729460D02*
X4443753Y-10710412D01*
X4443753Y-10710412D02*
X4443753Y-10634222D01*
X4443753Y-10634222D02*
X4453277Y-10615174D01*
X4453277Y-10615174D02*
X4472325Y-10605650D01*
X4472325Y-10605650D02*
X4510420Y-10605650D01*
X4510420Y-10605650D02*
X4529468Y-10615174D01*
X4529468Y-10615174D02*
X4538992Y-10634222D01*
X4538992Y-10634222D02*
X4538992Y-10653270D01*
X4538992Y-10653270D02*
X4443753Y-10672317D01*
X4615182Y-10729460D02*
X4634230Y-10738984D01*
X4634230Y-10738984D02*
X4672325Y-10738984D01*
X4672325Y-10738984D02*
X4691373Y-10729460D01*
X4691373Y-10729460D02*
X4700896Y-10710412D01*
X4700896Y-10710412D02*
X4700896Y-10700889D01*
X4700896Y-10700889D02*
X4691373Y-10681841D01*
X4691373Y-10681841D02*
X4672325Y-10672317D01*
X4672325Y-10672317D02*
X4643753Y-10672317D01*
X4643753Y-10672317D02*
X4624706Y-10662793D01*
X4624706Y-10662793D02*
X4615182Y-10643746D01*
X4615182Y-10643746D02*
X4615182Y-10634222D01*
X4615182Y-10634222D02*
X4624706Y-10615174D01*
X4624706Y-10615174D02*
X4643753Y-10605650D01*
X4643753Y-10605650D02*
X4672325Y-10605650D01*
X4672325Y-10605650D02*
X4691373Y-10615174D01*
X4767563Y-10815174D02*
X4777087Y-10805650D01*
X4777087Y-10805650D02*
X4796134Y-10777079D01*
X4796134Y-10777079D02*
X4805658Y-10758031D01*
X4805658Y-10758031D02*
X4815182Y-10729460D01*
X4815182Y-10729460D02*
X4824706Y-10681841D01*
X4824706Y-10681841D02*
X4824706Y-10643746D01*
X4824706Y-10643746D02*
X4815182Y-10596127D01*
X4815182Y-10596127D02*
X4805658Y-10567555D01*
X4805658Y-10567555D02*
X4796134Y-10548508D01*
X4796134Y-10548508D02*
X4777087Y-10519936D01*
X4777087Y-10519936D02*
X4767563Y-10510412D01*
X5129468Y-10815174D02*
X5119944Y-10805650D01*
X5119944Y-10805650D02*
X5100896Y-10777079D01*
X5100896Y-10777079D02*
X5091373Y-10758031D01*
X5091373Y-10758031D02*
X5081849Y-10729460D01*
X5081849Y-10729460D02*
X5072325Y-10681841D01*
X5072325Y-10681841D02*
X5072325Y-10643746D01*
X5072325Y-10643746D02*
X5081849Y-10596127D01*
X5081849Y-10596127D02*
X5091373Y-10567555D01*
X5091373Y-10567555D02*
X5100896Y-10548508D01*
X5100896Y-10548508D02*
X5119944Y-10519936D01*
X5119944Y-10519936D02*
X5129468Y-10510412D01*
X5205658Y-10605650D02*
X5205658Y-10738984D01*
X5205658Y-10624698D02*
X5215182Y-10615174D01*
X5215182Y-10615174D02*
X5234230Y-10605650D01*
X5234230Y-10605650D02*
X5262801Y-10605650D01*
X5262801Y-10605650D02*
X5281849Y-10615174D01*
X5281849Y-10615174D02*
X5291373Y-10634222D01*
X5291373Y-10634222D02*
X5291373Y-10738984D01*
X5415182Y-10738984D02*
X5396134Y-10729460D01*
X5396134Y-10729460D02*
X5386611Y-10719936D01*
X5386611Y-10719936D02*
X5377087Y-10700889D01*
X5377087Y-10700889D02*
X5377087Y-10643746D01*
X5377087Y-10643746D02*
X5386611Y-10624698D01*
X5386611Y-10624698D02*
X5396134Y-10615174D01*
X5396134Y-10615174D02*
X5415182Y-10605650D01*
X5415182Y-10605650D02*
X5443754Y-10605650D01*
X5443754Y-10605650D02*
X5462801Y-10615174D01*
X5462801Y-10615174D02*
X5472325Y-10624698D01*
X5472325Y-10624698D02*
X5481849Y-10643746D01*
X5481849Y-10643746D02*
X5481849Y-10700889D01*
X5481849Y-10700889D02*
X5472325Y-10719936D01*
X5472325Y-10719936D02*
X5462801Y-10729460D01*
X5462801Y-10729460D02*
X5443754Y-10738984D01*
X5443754Y-10738984D02*
X5415182Y-10738984D01*
X5538992Y-10605650D02*
X5615182Y-10605650D01*
X5567563Y-10538984D02*
X5567563Y-10710412D01*
X5567563Y-10710412D02*
X5577087Y-10729460D01*
X5577087Y-10729460D02*
X5596134Y-10738984D01*
X5596134Y-10738984D02*
X5615182Y-10738984D01*
X5834230Y-10605650D02*
X5834230Y-10805650D01*
X5834230Y-10615174D02*
X5853277Y-10605650D01*
X5853277Y-10605650D02*
X5891373Y-10605650D01*
X5891373Y-10605650D02*
X5910420Y-10615174D01*
X5910420Y-10615174D02*
X5919944Y-10624698D01*
X5919944Y-10624698D02*
X5929468Y-10643746D01*
X5929468Y-10643746D02*
X5929468Y-10700889D01*
X5929468Y-10700889D02*
X5919944Y-10719936D01*
X5919944Y-10719936D02*
X5910420Y-10729460D01*
X5910420Y-10729460D02*
X5891373Y-10738984D01*
X5891373Y-10738984D02*
X5853277Y-10738984D01*
X5853277Y-10738984D02*
X5834230Y-10729460D01*
X6043753Y-10738984D02*
X6024706Y-10729460D01*
X6024706Y-10729460D02*
X6015182Y-10710412D01*
X6015182Y-10710412D02*
X6015182Y-10538984D01*
X6205658Y-10738984D02*
X6205658Y-10634222D01*
X6205658Y-10634222D02*
X6196134Y-10615174D01*
X6196134Y-10615174D02*
X6177087Y-10605650D01*
X6177087Y-10605650D02*
X6138992Y-10605650D01*
X6138992Y-10605650D02*
X6119944Y-10615174D01*
X6205658Y-10729460D02*
X6186611Y-10738984D01*
X6186611Y-10738984D02*
X6138992Y-10738984D01*
X6138992Y-10738984D02*
X6119944Y-10729460D01*
X6119944Y-10729460D02*
X6110420Y-10710412D01*
X6110420Y-10710412D02*
X6110420Y-10691365D01*
X6110420Y-10691365D02*
X6119944Y-10672317D01*
X6119944Y-10672317D02*
X6138992Y-10662793D01*
X6138992Y-10662793D02*
X6186611Y-10662793D01*
X6186611Y-10662793D02*
X6205658Y-10653270D01*
X6272325Y-10605650D02*
X6348515Y-10605650D01*
X6300896Y-10538984D02*
X6300896Y-10710412D01*
X6300896Y-10710412D02*
X6310420Y-10729460D01*
X6310420Y-10729460D02*
X6329468Y-10738984D01*
X6329468Y-10738984D02*
X6348515Y-10738984D01*
X6491373Y-10729460D02*
X6472325Y-10738984D01*
X6472325Y-10738984D02*
X6434230Y-10738984D01*
X6434230Y-10738984D02*
X6415182Y-10729460D01*
X6415182Y-10729460D02*
X6405658Y-10710412D01*
X6405658Y-10710412D02*
X6405658Y-10634222D01*
X6405658Y-10634222D02*
X6415182Y-10615174D01*
X6415182Y-10615174D02*
X6434230Y-10605650D01*
X6434230Y-10605650D02*
X6472325Y-10605650D01*
X6472325Y-10605650D02*
X6491373Y-10615174D01*
X6491373Y-10615174D02*
X6500896Y-10634222D01*
X6500896Y-10634222D02*
X6500896Y-10653270D01*
X6500896Y-10653270D02*
X6405658Y-10672317D01*
X6672325Y-10738984D02*
X6672325Y-10538984D01*
X6672325Y-10729460D02*
X6653277Y-10738984D01*
X6653277Y-10738984D02*
X6615182Y-10738984D01*
X6615182Y-10738984D02*
X6596134Y-10729460D01*
X6596134Y-10729460D02*
X6586611Y-10719936D01*
X6586611Y-10719936D02*
X6577087Y-10700889D01*
X6577087Y-10700889D02*
X6577087Y-10643746D01*
X6577087Y-10643746D02*
X6586611Y-10624698D01*
X6586611Y-10624698D02*
X6596134Y-10615174D01*
X6596134Y-10615174D02*
X6615182Y-10605650D01*
X6615182Y-10605650D02*
X6653277Y-10605650D01*
X6653277Y-10605650D02*
X6672325Y-10615174D01*
X6748515Y-10815174D02*
X6758039Y-10805650D01*
X6758039Y-10805650D02*
X6777087Y-10777079D01*
X6777087Y-10777079D02*
X6786611Y-10758031D01*
X6786611Y-10758031D02*
X6796134Y-10729460D01*
X6796134Y-10729460D02*
X6805658Y-10681841D01*
X6805658Y-10681841D02*
X6805658Y-10643746D01*
X6805658Y-10643746D02*
X6796134Y-10596127D01*
X6796134Y-10596127D02*
X6786611Y-10567555D01*
X6786611Y-10567555D02*
X6777087Y-10548508D01*
X6777087Y-10548508D02*
X6758039Y-10519936D01*
X6758039Y-10519936D02*
X6748515Y-10510412D01*
X-7500Y-10911500D02*
G75*
G02*
X-207500Y-10911500I-100000J0D01*
G01*
X-207500Y-10911500D02*
G75*
G02*
X-7500Y-10911500I100000J0D01*
G01*
X243753Y-10822031D02*
X253277Y-10812508D01*
X253277Y-10812508D02*
X272324Y-10802984D01*
X272324Y-10802984D02*
X319944Y-10802984D01*
X319944Y-10802984D02*
X338991Y-10812508D01*
X338991Y-10812508D02*
X348515Y-10822031D01*
X348515Y-10822031D02*
X358039Y-10841079D01*
X358039Y-10841079D02*
X358039Y-10860127D01*
X358039Y-10860127D02*
X348515Y-10888698D01*
X348515Y-10888698D02*
X234229Y-11002984D01*
X234229Y-11002984D02*
X358039Y-11002984D01*
X443753Y-10983936D02*
X453277Y-10993460D01*
X453277Y-10993460D02*
X443753Y-11002984D01*
X443753Y-11002984D02*
X434229Y-10993460D01*
X434229Y-10993460D02*
X443753Y-10983936D01*
X443753Y-10983936D02*
X443753Y-11002984D01*
X519943Y-10802984D02*
X653277Y-10802984D01*
X653277Y-10802984D02*
X567563Y-11002984D01*
X767562Y-10802984D02*
X786610Y-10802984D01*
X786610Y-10802984D02*
X805658Y-10812508D01*
X805658Y-10812508D02*
X815182Y-10822031D01*
X815182Y-10822031D02*
X824705Y-10841079D01*
X824705Y-10841079D02*
X834229Y-10879174D01*
X834229Y-10879174D02*
X834229Y-10926793D01*
X834229Y-10926793D02*
X824705Y-10964889D01*
X824705Y-10964889D02*
X815182Y-10983936D01*
X815182Y-10983936D02*
X805658Y-10993460D01*
X805658Y-10993460D02*
X786610Y-11002984D01*
X786610Y-11002984D02*
X767562Y-11002984D01*
X767562Y-11002984D02*
X748515Y-10993460D01*
X748515Y-10993460D02*
X738991Y-10983936D01*
X738991Y-10983936D02*
X729467Y-10964889D01*
X729467Y-10964889D02*
X719943Y-10926793D01*
X719943Y-10926793D02*
X719943Y-10879174D01*
X719943Y-10879174D02*
X729467Y-10841079D01*
X729467Y-10841079D02*
X738991Y-10822031D01*
X738991Y-10822031D02*
X748515Y-10812508D01*
X748515Y-10812508D02*
X767562Y-10802984D01*
X958039Y-10802984D02*
X977086Y-10802984D01*
X977086Y-10802984D02*
X996134Y-10812508D01*
X996134Y-10812508D02*
X1005658Y-10822031D01*
X1005658Y-10822031D02*
X1015182Y-10841079D01*
X1015182Y-10841079D02*
X1024705Y-10879174D01*
X1024705Y-10879174D02*
X1024705Y-10926793D01*
X1024705Y-10926793D02*
X1015182Y-10964889D01*
X1015182Y-10964889D02*
X1005658Y-10983936D01*
X1005658Y-10983936D02*
X996134Y-10993460D01*
X996134Y-10993460D02*
X977086Y-11002984D01*
X977086Y-11002984D02*
X958039Y-11002984D01*
X958039Y-11002984D02*
X938991Y-10993460D01*
X938991Y-10993460D02*
X929467Y-10983936D01*
X929467Y-10983936D02*
X919943Y-10964889D01*
X919943Y-10964889D02*
X910420Y-10926793D01*
X910420Y-10926793D02*
X910420Y-10879174D01*
X910420Y-10879174D02*
X919943Y-10841079D01*
X919943Y-10841079D02*
X929467Y-10822031D01*
X929467Y-10822031D02*
X938991Y-10812508D01*
X938991Y-10812508D02*
X958039Y-10802984D01*
X1110420Y-11002984D02*
X1110420Y-10869650D01*
X1110420Y-10888698D02*
X1119944Y-10879174D01*
X1119944Y-10879174D02*
X1138991Y-10869650D01*
X1138991Y-10869650D02*
X1167563Y-10869650D01*
X1167563Y-10869650D02*
X1186610Y-10879174D01*
X1186610Y-10879174D02*
X1196134Y-10898222D01*
X1196134Y-10898222D02*
X1196134Y-11002984D01*
X1196134Y-10898222D02*
X1205658Y-10879174D01*
X1205658Y-10879174D02*
X1224705Y-10869650D01*
X1224705Y-10869650D02*
X1253277Y-10869650D01*
X1253277Y-10869650D02*
X1272325Y-10879174D01*
X1272325Y-10879174D02*
X1281848Y-10898222D01*
X1281848Y-10898222D02*
X1281848Y-11002984D01*
X1377086Y-11002984D02*
X1377086Y-10869650D01*
X1377086Y-10888698D02*
X1386610Y-10879174D01*
X1386610Y-10879174D02*
X1405658Y-10869650D01*
X1405658Y-10869650D02*
X1434229Y-10869650D01*
X1434229Y-10869650D02*
X1453277Y-10879174D01*
X1453277Y-10879174D02*
X1462801Y-10898222D01*
X1462801Y-10898222D02*
X1462801Y-11002984D01*
X1462801Y-10898222D02*
X1472324Y-10879174D01*
X1472324Y-10879174D02*
X1491372Y-10869650D01*
X1491372Y-10869650D02*
X1519943Y-10869650D01*
X1519943Y-10869650D02*
X1538991Y-10879174D01*
X1538991Y-10879174D02*
X1548515Y-10898222D01*
X1548515Y-10898222D02*
X1548515Y-11002984D01*
X1938991Y-10793460D02*
X1767563Y-11050603D01*
X2196134Y-10802984D02*
X2215182Y-10802984D01*
X2215182Y-10802984D02*
X2234229Y-10812508D01*
X2234229Y-10812508D02*
X2243753Y-10822031D01*
X2243753Y-10822031D02*
X2253277Y-10841079D01*
X2253277Y-10841079D02*
X2262801Y-10879174D01*
X2262801Y-10879174D02*
X2262801Y-10926793D01*
X2262801Y-10926793D02*
X2253277Y-10964889D01*
X2253277Y-10964889D02*
X2243753Y-10983936D01*
X2243753Y-10983936D02*
X2234229Y-10993460D01*
X2234229Y-10993460D02*
X2215182Y-11002984D01*
X2215182Y-11002984D02*
X2196134Y-11002984D01*
X2196134Y-11002984D02*
X2177087Y-10993460D01*
X2177087Y-10993460D02*
X2167563Y-10983936D01*
X2167563Y-10983936D02*
X2158039Y-10964889D01*
X2158039Y-10964889D02*
X2148515Y-10926793D01*
X2148515Y-10926793D02*
X2148515Y-10879174D01*
X2148515Y-10879174D02*
X2158039Y-10841079D01*
X2158039Y-10841079D02*
X2167563Y-10822031D01*
X2167563Y-10822031D02*
X2177087Y-10812508D01*
X2177087Y-10812508D02*
X2196134Y-10802984D01*
X2348515Y-10983936D02*
X2358039Y-10993460D01*
X2358039Y-10993460D02*
X2348515Y-11002984D01*
X2348515Y-11002984D02*
X2338991Y-10993460D01*
X2338991Y-10993460D02*
X2348515Y-10983936D01*
X2348515Y-10983936D02*
X2348515Y-11002984D01*
X2548515Y-11002984D02*
X2434229Y-11002984D01*
X2491372Y-11002984D02*
X2491372Y-10802984D01*
X2491372Y-10802984D02*
X2472325Y-10831555D01*
X2472325Y-10831555D02*
X2453277Y-10850603D01*
X2453277Y-10850603D02*
X2434229Y-10860127D01*
X2672325Y-10802984D02*
X2691372Y-10802984D01*
X2691372Y-10802984D02*
X2710420Y-10812508D01*
X2710420Y-10812508D02*
X2719944Y-10822031D01*
X2719944Y-10822031D02*
X2729468Y-10841079D01*
X2729468Y-10841079D02*
X2738991Y-10879174D01*
X2738991Y-10879174D02*
X2738991Y-10926793D01*
X2738991Y-10926793D02*
X2729468Y-10964889D01*
X2729468Y-10964889D02*
X2719944Y-10983936D01*
X2719944Y-10983936D02*
X2710420Y-10993460D01*
X2710420Y-10993460D02*
X2691372Y-11002984D01*
X2691372Y-11002984D02*
X2672325Y-11002984D01*
X2672325Y-11002984D02*
X2653277Y-10993460D01*
X2653277Y-10993460D02*
X2643753Y-10983936D01*
X2643753Y-10983936D02*
X2634229Y-10964889D01*
X2634229Y-10964889D02*
X2624706Y-10926793D01*
X2624706Y-10926793D02*
X2624706Y-10879174D01*
X2624706Y-10879174D02*
X2634229Y-10841079D01*
X2634229Y-10841079D02*
X2643753Y-10822031D01*
X2643753Y-10822031D02*
X2653277Y-10812508D01*
X2653277Y-10812508D02*
X2672325Y-10802984D01*
X2910420Y-10802984D02*
X2872325Y-10802984D01*
X2872325Y-10802984D02*
X2853277Y-10812508D01*
X2853277Y-10812508D02*
X2843753Y-10822031D01*
X2843753Y-10822031D02*
X2824706Y-10850603D01*
X2824706Y-10850603D02*
X2815182Y-10888698D01*
X2815182Y-10888698D02*
X2815182Y-10964889D01*
X2815182Y-10964889D02*
X2824706Y-10983936D01*
X2824706Y-10983936D02*
X2834229Y-10993460D01*
X2834229Y-10993460D02*
X2853277Y-11002984D01*
X2853277Y-11002984D02*
X2891372Y-11002984D01*
X2891372Y-11002984D02*
X2910420Y-10993460D01*
X2910420Y-10993460D02*
X2919944Y-10983936D01*
X2919944Y-10983936D02*
X2929467Y-10964889D01*
X2929467Y-10964889D02*
X2929467Y-10917270D01*
X2929467Y-10917270D02*
X2919944Y-10898222D01*
X2919944Y-10898222D02*
X2910420Y-10888698D01*
X2910420Y-10888698D02*
X2891372Y-10879174D01*
X2891372Y-10879174D02*
X2853277Y-10879174D01*
X2853277Y-10879174D02*
X2834229Y-10888698D01*
X2834229Y-10888698D02*
X2824706Y-10898222D01*
X2824706Y-10898222D02*
X2815182Y-10917270D01*
X2996134Y-10802984D02*
X3119944Y-10802984D01*
X3119944Y-10802984D02*
X3053277Y-10879174D01*
X3053277Y-10879174D02*
X3081848Y-10879174D01*
X3081848Y-10879174D02*
X3100896Y-10888698D01*
X3100896Y-10888698D02*
X3110420Y-10898222D01*
X3110420Y-10898222D02*
X3119944Y-10917270D01*
X3119944Y-10917270D02*
X3119944Y-10964889D01*
X3119944Y-10964889D02*
X3110420Y-10983936D01*
X3110420Y-10983936D02*
X3100896Y-10993460D01*
X3100896Y-10993460D02*
X3081848Y-11002984D01*
X3081848Y-11002984D02*
X3024706Y-11002984D01*
X3024706Y-11002984D02*
X3005658Y-10993460D01*
X3005658Y-10993460D02*
X2996134Y-10983936D01*
X3196134Y-10802984D02*
X3196134Y-10841079D01*
X3272325Y-10802984D02*
X3272325Y-10841079D01*
X3567563Y-11079174D02*
X3558039Y-11069650D01*
X3558039Y-11069650D02*
X3538991Y-11041079D01*
X3538991Y-11041079D02*
X3529468Y-11022031D01*
X3529468Y-11022031D02*
X3519944Y-10993460D01*
X3519944Y-10993460D02*
X3510420Y-10945841D01*
X3510420Y-10945841D02*
X3510420Y-10907746D01*
X3510420Y-10907746D02*
X3519944Y-10860127D01*
X3519944Y-10860127D02*
X3529468Y-10831555D01*
X3529468Y-10831555D02*
X3538991Y-10812508D01*
X3538991Y-10812508D02*
X3558039Y-10783936D01*
X3558039Y-10783936D02*
X3567563Y-10774412D01*
X3729468Y-10869650D02*
X3729468Y-11002984D01*
X3681848Y-10793460D02*
X3634229Y-10936317D01*
X3634229Y-10936317D02*
X3758039Y-10936317D01*
X3986610Y-11002984D02*
X3986610Y-10802984D01*
X4072325Y-11002984D02*
X4072325Y-10898222D01*
X4072325Y-10898222D02*
X4062801Y-10879174D01*
X4062801Y-10879174D02*
X4043753Y-10869650D01*
X4043753Y-10869650D02*
X4015182Y-10869650D01*
X4015182Y-10869650D02*
X3996134Y-10879174D01*
X3996134Y-10879174D02*
X3986610Y-10888698D01*
X4196134Y-11002984D02*
X4177087Y-10993460D01*
X4177087Y-10993460D02*
X4167563Y-10983936D01*
X4167563Y-10983936D02*
X4158039Y-10964889D01*
X4158039Y-10964889D02*
X4158039Y-10907746D01*
X4158039Y-10907746D02*
X4167563Y-10888698D01*
X4167563Y-10888698D02*
X4177087Y-10879174D01*
X4177087Y-10879174D02*
X4196134Y-10869650D01*
X4196134Y-10869650D02*
X4224706Y-10869650D01*
X4224706Y-10869650D02*
X4243753Y-10879174D01*
X4243753Y-10879174D02*
X4253277Y-10888698D01*
X4253277Y-10888698D02*
X4262801Y-10907746D01*
X4262801Y-10907746D02*
X4262801Y-10964889D01*
X4262801Y-10964889D02*
X4253277Y-10983936D01*
X4253277Y-10983936D02*
X4243753Y-10993460D01*
X4243753Y-10993460D02*
X4224706Y-11002984D01*
X4224706Y-11002984D02*
X4196134Y-11002984D01*
X4377087Y-11002984D02*
X4358039Y-10993460D01*
X4358039Y-10993460D02*
X4348515Y-10974412D01*
X4348515Y-10974412D02*
X4348515Y-10802984D01*
X4529468Y-10993460D02*
X4510420Y-11002984D01*
X4510420Y-11002984D02*
X4472325Y-11002984D01*
X4472325Y-11002984D02*
X4453277Y-10993460D01*
X4453277Y-10993460D02*
X4443753Y-10974412D01*
X4443753Y-10974412D02*
X4443753Y-10898222D01*
X4443753Y-10898222D02*
X4453277Y-10879174D01*
X4453277Y-10879174D02*
X4472325Y-10869650D01*
X4472325Y-10869650D02*
X4510420Y-10869650D01*
X4510420Y-10869650D02*
X4529468Y-10879174D01*
X4529468Y-10879174D02*
X4538992Y-10898222D01*
X4538992Y-10898222D02*
X4538992Y-10917270D01*
X4538992Y-10917270D02*
X4443753Y-10936317D01*
X4615182Y-10993460D02*
X4634230Y-11002984D01*
X4634230Y-11002984D02*
X4672325Y-11002984D01*
X4672325Y-11002984D02*
X4691373Y-10993460D01*
X4691373Y-10993460D02*
X4700896Y-10974412D01*
X4700896Y-10974412D02*
X4700896Y-10964889D01*
X4700896Y-10964889D02*
X4691373Y-10945841D01*
X4691373Y-10945841D02*
X4672325Y-10936317D01*
X4672325Y-10936317D02*
X4643753Y-10936317D01*
X4643753Y-10936317D02*
X4624706Y-10926793D01*
X4624706Y-10926793D02*
X4615182Y-10907746D01*
X4615182Y-10907746D02*
X4615182Y-10898222D01*
X4615182Y-10898222D02*
X4624706Y-10879174D01*
X4624706Y-10879174D02*
X4643753Y-10869650D01*
X4643753Y-10869650D02*
X4672325Y-10869650D01*
X4672325Y-10869650D02*
X4691373Y-10879174D01*
X4767563Y-11079174D02*
X4777087Y-11069650D01*
X4777087Y-11069650D02*
X4796134Y-11041079D01*
X4796134Y-11041079D02*
X4805658Y-11022031D01*
X4805658Y-11022031D02*
X4815182Y-10993460D01*
X4815182Y-10993460D02*
X4824706Y-10945841D01*
X4824706Y-10945841D02*
X4824706Y-10907746D01*
X4824706Y-10907746D02*
X4815182Y-10860127D01*
X4815182Y-10860127D02*
X4805658Y-10831555D01*
X4805658Y-10831555D02*
X4796134Y-10812508D01*
X4796134Y-10812508D02*
X4777087Y-10783936D01*
X4777087Y-10783936D02*
X4767563Y-10774412D01*
X5129468Y-11079174D02*
X5119944Y-11069650D01*
X5119944Y-11069650D02*
X5100896Y-11041079D01*
X5100896Y-11041079D02*
X5091373Y-11022031D01*
X5091373Y-11022031D02*
X5081849Y-10993460D01*
X5081849Y-10993460D02*
X5072325Y-10945841D01*
X5072325Y-10945841D02*
X5072325Y-10907746D01*
X5072325Y-10907746D02*
X5081849Y-10860127D01*
X5081849Y-10860127D02*
X5091373Y-10831555D01*
X5091373Y-10831555D02*
X5100896Y-10812508D01*
X5100896Y-10812508D02*
X5119944Y-10783936D01*
X5119944Y-10783936D02*
X5129468Y-10774412D01*
X5205658Y-10869650D02*
X5205658Y-11002984D01*
X5205658Y-10888698D02*
X5215182Y-10879174D01*
X5215182Y-10879174D02*
X5234230Y-10869650D01*
X5234230Y-10869650D02*
X5262801Y-10869650D01*
X5262801Y-10869650D02*
X5281849Y-10879174D01*
X5281849Y-10879174D02*
X5291373Y-10898222D01*
X5291373Y-10898222D02*
X5291373Y-11002984D01*
X5415182Y-11002984D02*
X5396134Y-10993460D01*
X5396134Y-10993460D02*
X5386611Y-10983936D01*
X5386611Y-10983936D02*
X5377087Y-10964889D01*
X5377087Y-10964889D02*
X5377087Y-10907746D01*
X5377087Y-10907746D02*
X5386611Y-10888698D01*
X5386611Y-10888698D02*
X5396134Y-10879174D01*
X5396134Y-10879174D02*
X5415182Y-10869650D01*
X5415182Y-10869650D02*
X5443754Y-10869650D01*
X5443754Y-10869650D02*
X5462801Y-10879174D01*
X5462801Y-10879174D02*
X5472325Y-10888698D01*
X5472325Y-10888698D02*
X5481849Y-10907746D01*
X5481849Y-10907746D02*
X5481849Y-10964889D01*
X5481849Y-10964889D02*
X5472325Y-10983936D01*
X5472325Y-10983936D02*
X5462801Y-10993460D01*
X5462801Y-10993460D02*
X5443754Y-11002984D01*
X5443754Y-11002984D02*
X5415182Y-11002984D01*
X5538992Y-10869650D02*
X5615182Y-10869650D01*
X5567563Y-10802984D02*
X5567563Y-10974412D01*
X5567563Y-10974412D02*
X5577087Y-10993460D01*
X5577087Y-10993460D02*
X5596134Y-11002984D01*
X5596134Y-11002984D02*
X5615182Y-11002984D01*
X5834230Y-10869650D02*
X5834230Y-11069650D01*
X5834230Y-10879174D02*
X5853277Y-10869650D01*
X5853277Y-10869650D02*
X5891373Y-10869650D01*
X5891373Y-10869650D02*
X5910420Y-10879174D01*
X5910420Y-10879174D02*
X5919944Y-10888698D01*
X5919944Y-10888698D02*
X5929468Y-10907746D01*
X5929468Y-10907746D02*
X5929468Y-10964889D01*
X5929468Y-10964889D02*
X5919944Y-10983936D01*
X5919944Y-10983936D02*
X5910420Y-10993460D01*
X5910420Y-10993460D02*
X5891373Y-11002984D01*
X5891373Y-11002984D02*
X5853277Y-11002984D01*
X5853277Y-11002984D02*
X5834230Y-10993460D01*
X6043753Y-11002984D02*
X6024706Y-10993460D01*
X6024706Y-10993460D02*
X6015182Y-10974412D01*
X6015182Y-10974412D02*
X6015182Y-10802984D01*
X6205658Y-11002984D02*
X6205658Y-10898222D01*
X6205658Y-10898222D02*
X6196134Y-10879174D01*
X6196134Y-10879174D02*
X6177087Y-10869650D01*
X6177087Y-10869650D02*
X6138992Y-10869650D01*
X6138992Y-10869650D02*
X6119944Y-10879174D01*
X6205658Y-10993460D02*
X6186611Y-11002984D01*
X6186611Y-11002984D02*
X6138992Y-11002984D01*
X6138992Y-11002984D02*
X6119944Y-10993460D01*
X6119944Y-10993460D02*
X6110420Y-10974412D01*
X6110420Y-10974412D02*
X6110420Y-10955365D01*
X6110420Y-10955365D02*
X6119944Y-10936317D01*
X6119944Y-10936317D02*
X6138992Y-10926793D01*
X6138992Y-10926793D02*
X6186611Y-10926793D01*
X6186611Y-10926793D02*
X6205658Y-10917270D01*
X6272325Y-10869650D02*
X6348515Y-10869650D01*
X6300896Y-10802984D02*
X6300896Y-10974412D01*
X6300896Y-10974412D02*
X6310420Y-10993460D01*
X6310420Y-10993460D02*
X6329468Y-11002984D01*
X6329468Y-11002984D02*
X6348515Y-11002984D01*
X6491373Y-10993460D02*
X6472325Y-11002984D01*
X6472325Y-11002984D02*
X6434230Y-11002984D01*
X6434230Y-11002984D02*
X6415182Y-10993460D01*
X6415182Y-10993460D02*
X6405658Y-10974412D01*
X6405658Y-10974412D02*
X6405658Y-10898222D01*
X6405658Y-10898222D02*
X6415182Y-10879174D01*
X6415182Y-10879174D02*
X6434230Y-10869650D01*
X6434230Y-10869650D02*
X6472325Y-10869650D01*
X6472325Y-10869650D02*
X6491373Y-10879174D01*
X6491373Y-10879174D02*
X6500896Y-10898222D01*
X6500896Y-10898222D02*
X6500896Y-10917270D01*
X6500896Y-10917270D02*
X6405658Y-10936317D01*
X6672325Y-11002984D02*
X6672325Y-10802984D01*
X6672325Y-10993460D02*
X6653277Y-11002984D01*
X6653277Y-11002984D02*
X6615182Y-11002984D01*
X6615182Y-11002984D02*
X6596134Y-10993460D01*
X6596134Y-10993460D02*
X6586611Y-10983936D01*
X6586611Y-10983936D02*
X6577087Y-10964889D01*
X6577087Y-10964889D02*
X6577087Y-10907746D01*
X6577087Y-10907746D02*
X6586611Y-10888698D01*
X6586611Y-10888698D02*
X6596134Y-10879174D01*
X6596134Y-10879174D02*
X6615182Y-10869650D01*
X6615182Y-10869650D02*
X6653277Y-10869650D01*
X6653277Y-10869650D02*
X6672325Y-10879174D01*
X6748515Y-11079174D02*
X6758039Y-11069650D01*
X6758039Y-11069650D02*
X6777087Y-11041079D01*
X6777087Y-11041079D02*
X6786611Y-11022031D01*
X6786611Y-11022031D02*
X6796134Y-10993460D01*
X6796134Y-10993460D02*
X6805658Y-10945841D01*
X6805658Y-10945841D02*
X6805658Y-10907746D01*
X6805658Y-10907746D02*
X6796134Y-10860127D01*
X6796134Y-10860127D02*
X6786611Y-10831555D01*
X6786611Y-10831555D02*
X6777087Y-10812508D01*
X6777087Y-10812508D02*
X6758039Y-10783936D01*
X6758039Y-10783936D02*
X6748515Y-10774412D01*
X-107500Y-11131500D02*
X-107500Y-11331500D01*
X-207500Y-11231500D02*
X-7500Y-11231500D01*
X234229Y-11122984D02*
X358039Y-11122984D01*
X358039Y-11122984D02*
X291372Y-11199174D01*
X291372Y-11199174D02*
X319944Y-11199174D01*
X319944Y-11199174D02*
X338991Y-11208698D01*
X338991Y-11208698D02*
X348515Y-11218222D01*
X348515Y-11218222D02*
X358039Y-11237269D01*
X358039Y-11237269D02*
X358039Y-11284888D01*
X358039Y-11284888D02*
X348515Y-11303936D01*
X348515Y-11303936D02*
X338991Y-11313460D01*
X338991Y-11313460D02*
X319944Y-11322984D01*
X319944Y-11322984D02*
X262801Y-11322984D01*
X262801Y-11322984D02*
X243753Y-11313460D01*
X243753Y-11313460D02*
X234229Y-11303936D01*
X443753Y-11303936D02*
X453277Y-11313460D01*
X453277Y-11313460D02*
X443753Y-11322984D01*
X443753Y-11322984D02*
X434229Y-11313460D01*
X434229Y-11313460D02*
X443753Y-11303936D01*
X443753Y-11303936D02*
X443753Y-11322984D01*
X529467Y-11142031D02*
X538991Y-11132508D01*
X538991Y-11132508D02*
X558039Y-11122984D01*
X558039Y-11122984D02*
X605658Y-11122984D01*
X605658Y-11122984D02*
X624705Y-11132508D01*
X624705Y-11132508D02*
X634229Y-11142031D01*
X634229Y-11142031D02*
X643753Y-11161079D01*
X643753Y-11161079D02*
X643753Y-11180127D01*
X643753Y-11180127D02*
X634229Y-11208698D01*
X634229Y-11208698D02*
X519943Y-11322984D01*
X519943Y-11322984D02*
X643753Y-11322984D01*
X824705Y-11122984D02*
X729467Y-11122984D01*
X729467Y-11122984D02*
X719943Y-11218222D01*
X719943Y-11218222D02*
X729467Y-11208698D01*
X729467Y-11208698D02*
X748515Y-11199174D01*
X748515Y-11199174D02*
X796134Y-11199174D01*
X796134Y-11199174D02*
X815182Y-11208698D01*
X815182Y-11208698D02*
X824705Y-11218222D01*
X824705Y-11218222D02*
X834229Y-11237269D01*
X834229Y-11237269D02*
X834229Y-11284888D01*
X834229Y-11284888D02*
X824705Y-11303936D01*
X824705Y-11303936D02*
X815182Y-11313460D01*
X815182Y-11313460D02*
X796134Y-11322984D01*
X796134Y-11322984D02*
X748515Y-11322984D01*
X748515Y-11322984D02*
X729467Y-11313460D01*
X729467Y-11313460D02*
X719943Y-11303936D01*
X958039Y-11122984D02*
X977086Y-11122984D01*
X977086Y-11122984D02*
X996134Y-11132508D01*
X996134Y-11132508D02*
X1005658Y-11142031D01*
X1005658Y-11142031D02*
X1015182Y-11161079D01*
X1015182Y-11161079D02*
X1024705Y-11199174D01*
X1024705Y-11199174D02*
X1024705Y-11246793D01*
X1024705Y-11246793D02*
X1015182Y-11284888D01*
X1015182Y-11284888D02*
X1005658Y-11303936D01*
X1005658Y-11303936D02*
X996134Y-11313460D01*
X996134Y-11313460D02*
X977086Y-11322984D01*
X977086Y-11322984D02*
X958039Y-11322984D01*
X958039Y-11322984D02*
X938991Y-11313460D01*
X938991Y-11313460D02*
X929467Y-11303936D01*
X929467Y-11303936D02*
X919943Y-11284888D01*
X919943Y-11284888D02*
X910420Y-11246793D01*
X910420Y-11246793D02*
X910420Y-11199174D01*
X910420Y-11199174D02*
X919943Y-11161079D01*
X919943Y-11161079D02*
X929467Y-11142031D01*
X929467Y-11142031D02*
X938991Y-11132508D01*
X938991Y-11132508D02*
X958039Y-11122984D01*
X1110420Y-11322984D02*
X1110420Y-11189650D01*
X1110420Y-11208698D02*
X1119944Y-11199174D01*
X1119944Y-11199174D02*
X1138991Y-11189650D01*
X1138991Y-11189650D02*
X1167563Y-11189650D01*
X1167563Y-11189650D02*
X1186610Y-11199174D01*
X1186610Y-11199174D02*
X1196134Y-11218222D01*
X1196134Y-11218222D02*
X1196134Y-11322984D01*
X1196134Y-11218222D02*
X1205658Y-11199174D01*
X1205658Y-11199174D02*
X1224705Y-11189650D01*
X1224705Y-11189650D02*
X1253277Y-11189650D01*
X1253277Y-11189650D02*
X1272325Y-11199174D01*
X1272325Y-11199174D02*
X1281848Y-11218222D01*
X1281848Y-11218222D02*
X1281848Y-11322984D01*
X1377086Y-11322984D02*
X1377086Y-11189650D01*
X1377086Y-11208698D02*
X1386610Y-11199174D01*
X1386610Y-11199174D02*
X1405658Y-11189650D01*
X1405658Y-11189650D02*
X1434229Y-11189650D01*
X1434229Y-11189650D02*
X1453277Y-11199174D01*
X1453277Y-11199174D02*
X1462801Y-11218222D01*
X1462801Y-11218222D02*
X1462801Y-11322984D01*
X1462801Y-11218222D02*
X1472324Y-11199174D01*
X1472324Y-11199174D02*
X1491372Y-11189650D01*
X1491372Y-11189650D02*
X1519943Y-11189650D01*
X1519943Y-11189650D02*
X1538991Y-11199174D01*
X1538991Y-11199174D02*
X1548515Y-11218222D01*
X1548515Y-11218222D02*
X1548515Y-11322984D01*
X1938991Y-11113460D02*
X1767563Y-11370603D01*
X2196134Y-11122984D02*
X2215182Y-11122984D01*
X2215182Y-11122984D02*
X2234229Y-11132508D01*
X2234229Y-11132508D02*
X2243753Y-11142031D01*
X2243753Y-11142031D02*
X2253277Y-11161079D01*
X2253277Y-11161079D02*
X2262801Y-11199174D01*
X2262801Y-11199174D02*
X2262801Y-11246793D01*
X2262801Y-11246793D02*
X2253277Y-11284888D01*
X2253277Y-11284888D02*
X2243753Y-11303936D01*
X2243753Y-11303936D02*
X2234229Y-11313460D01*
X2234229Y-11313460D02*
X2215182Y-11322984D01*
X2215182Y-11322984D02*
X2196134Y-11322984D01*
X2196134Y-11322984D02*
X2177087Y-11313460D01*
X2177087Y-11313460D02*
X2167563Y-11303936D01*
X2167563Y-11303936D02*
X2158039Y-11284888D01*
X2158039Y-11284888D02*
X2148515Y-11246793D01*
X2148515Y-11246793D02*
X2148515Y-11199174D01*
X2148515Y-11199174D02*
X2158039Y-11161079D01*
X2158039Y-11161079D02*
X2167563Y-11142031D01*
X2167563Y-11142031D02*
X2177087Y-11132508D01*
X2177087Y-11132508D02*
X2196134Y-11122984D01*
X2348515Y-11303936D02*
X2358039Y-11313460D01*
X2358039Y-11313460D02*
X2348515Y-11322984D01*
X2348515Y-11322984D02*
X2338991Y-11313460D01*
X2338991Y-11313460D02*
X2348515Y-11303936D01*
X2348515Y-11303936D02*
X2348515Y-11322984D01*
X2548515Y-11322984D02*
X2434229Y-11322984D01*
X2491372Y-11322984D02*
X2491372Y-11122984D01*
X2491372Y-11122984D02*
X2472325Y-11151555D01*
X2472325Y-11151555D02*
X2453277Y-11170603D01*
X2453277Y-11170603D02*
X2434229Y-11180127D01*
X2624706Y-11142031D02*
X2634229Y-11132508D01*
X2634229Y-11132508D02*
X2653277Y-11122984D01*
X2653277Y-11122984D02*
X2700896Y-11122984D01*
X2700896Y-11122984D02*
X2719944Y-11132508D01*
X2719944Y-11132508D02*
X2729468Y-11142031D01*
X2729468Y-11142031D02*
X2738991Y-11161079D01*
X2738991Y-11161079D02*
X2738991Y-11180127D01*
X2738991Y-11180127D02*
X2729468Y-11208698D01*
X2729468Y-11208698D02*
X2615182Y-11322984D01*
X2615182Y-11322984D02*
X2738991Y-11322984D01*
X2853277Y-11208698D02*
X2834229Y-11199174D01*
X2834229Y-11199174D02*
X2824706Y-11189650D01*
X2824706Y-11189650D02*
X2815182Y-11170603D01*
X2815182Y-11170603D02*
X2815182Y-11161079D01*
X2815182Y-11161079D02*
X2824706Y-11142031D01*
X2824706Y-11142031D02*
X2834229Y-11132508D01*
X2834229Y-11132508D02*
X2853277Y-11122984D01*
X2853277Y-11122984D02*
X2891372Y-11122984D01*
X2891372Y-11122984D02*
X2910420Y-11132508D01*
X2910420Y-11132508D02*
X2919944Y-11142031D01*
X2919944Y-11142031D02*
X2929467Y-11161079D01*
X2929467Y-11161079D02*
X2929467Y-11170603D01*
X2929467Y-11170603D02*
X2919944Y-11189650D01*
X2919944Y-11189650D02*
X2910420Y-11199174D01*
X2910420Y-11199174D02*
X2891372Y-11208698D01*
X2891372Y-11208698D02*
X2853277Y-11208698D01*
X2853277Y-11208698D02*
X2834229Y-11218222D01*
X2834229Y-11218222D02*
X2824706Y-11227746D01*
X2824706Y-11227746D02*
X2815182Y-11246793D01*
X2815182Y-11246793D02*
X2815182Y-11284888D01*
X2815182Y-11284888D02*
X2824706Y-11303936D01*
X2824706Y-11303936D02*
X2834229Y-11313460D01*
X2834229Y-11313460D02*
X2853277Y-11322984D01*
X2853277Y-11322984D02*
X2891372Y-11322984D01*
X2891372Y-11322984D02*
X2910420Y-11313460D01*
X2910420Y-11313460D02*
X2919944Y-11303936D01*
X2919944Y-11303936D02*
X2929467Y-11284888D01*
X2929467Y-11284888D02*
X2929467Y-11246793D01*
X2929467Y-11246793D02*
X2919944Y-11227746D01*
X2919944Y-11227746D02*
X2910420Y-11218222D01*
X2910420Y-11218222D02*
X2891372Y-11208698D01*
X3053277Y-11122984D02*
X3072325Y-11122984D01*
X3072325Y-11122984D02*
X3091372Y-11132508D01*
X3091372Y-11132508D02*
X3100896Y-11142031D01*
X3100896Y-11142031D02*
X3110420Y-11161079D01*
X3110420Y-11161079D02*
X3119944Y-11199174D01*
X3119944Y-11199174D02*
X3119944Y-11246793D01*
X3119944Y-11246793D02*
X3110420Y-11284888D01*
X3110420Y-11284888D02*
X3100896Y-11303936D01*
X3100896Y-11303936D02*
X3091372Y-11313460D01*
X3091372Y-11313460D02*
X3072325Y-11322984D01*
X3072325Y-11322984D02*
X3053277Y-11322984D01*
X3053277Y-11322984D02*
X3034229Y-11313460D01*
X3034229Y-11313460D02*
X3024706Y-11303936D01*
X3024706Y-11303936D02*
X3015182Y-11284888D01*
X3015182Y-11284888D02*
X3005658Y-11246793D01*
X3005658Y-11246793D02*
X3005658Y-11199174D01*
X3005658Y-11199174D02*
X3015182Y-11161079D01*
X3015182Y-11161079D02*
X3024706Y-11142031D01*
X3024706Y-11142031D02*
X3034229Y-11132508D01*
X3034229Y-11132508D02*
X3053277Y-11122984D01*
X3196134Y-11122984D02*
X3196134Y-11161079D01*
X3272325Y-11122984D02*
X3272325Y-11161079D01*
X3567563Y-11399174D02*
X3558039Y-11389650D01*
X3558039Y-11389650D02*
X3538991Y-11361079D01*
X3538991Y-11361079D02*
X3529468Y-11342031D01*
X3529468Y-11342031D02*
X3519944Y-11313460D01*
X3519944Y-11313460D02*
X3510420Y-11265841D01*
X3510420Y-11265841D02*
X3510420Y-11227746D01*
X3510420Y-11227746D02*
X3519944Y-11180127D01*
X3519944Y-11180127D02*
X3529468Y-11151555D01*
X3529468Y-11151555D02*
X3538991Y-11132508D01*
X3538991Y-11132508D02*
X3558039Y-11103936D01*
X3558039Y-11103936D02*
X3567563Y-11094412D01*
X3729468Y-11189650D02*
X3729468Y-11322984D01*
X3681848Y-11113460D02*
X3634229Y-11256317D01*
X3634229Y-11256317D02*
X3758039Y-11256317D01*
X3986610Y-11322984D02*
X3986610Y-11122984D01*
X4072325Y-11322984D02*
X4072325Y-11218222D01*
X4072325Y-11218222D02*
X4062801Y-11199174D01*
X4062801Y-11199174D02*
X4043753Y-11189650D01*
X4043753Y-11189650D02*
X4015182Y-11189650D01*
X4015182Y-11189650D02*
X3996134Y-11199174D01*
X3996134Y-11199174D02*
X3986610Y-11208698D01*
X4196134Y-11322984D02*
X4177087Y-11313460D01*
X4177087Y-11313460D02*
X4167563Y-11303936D01*
X4167563Y-11303936D02*
X4158039Y-11284888D01*
X4158039Y-11284888D02*
X4158039Y-11227746D01*
X4158039Y-11227746D02*
X4167563Y-11208698D01*
X4167563Y-11208698D02*
X4177087Y-11199174D01*
X4177087Y-11199174D02*
X4196134Y-11189650D01*
X4196134Y-11189650D02*
X4224706Y-11189650D01*
X4224706Y-11189650D02*
X4243753Y-11199174D01*
X4243753Y-11199174D02*
X4253277Y-11208698D01*
X4253277Y-11208698D02*
X4262801Y-11227746D01*
X4262801Y-11227746D02*
X4262801Y-11284888D01*
X4262801Y-11284888D02*
X4253277Y-11303936D01*
X4253277Y-11303936D02*
X4243753Y-11313460D01*
X4243753Y-11313460D02*
X4224706Y-11322984D01*
X4224706Y-11322984D02*
X4196134Y-11322984D01*
X4377087Y-11322984D02*
X4358039Y-11313460D01*
X4358039Y-11313460D02*
X4348515Y-11294412D01*
X4348515Y-11294412D02*
X4348515Y-11122984D01*
X4529468Y-11313460D02*
X4510420Y-11322984D01*
X4510420Y-11322984D02*
X4472325Y-11322984D01*
X4472325Y-11322984D02*
X4453277Y-11313460D01*
X4453277Y-11313460D02*
X4443753Y-11294412D01*
X4443753Y-11294412D02*
X4443753Y-11218222D01*
X4443753Y-11218222D02*
X4453277Y-11199174D01*
X4453277Y-11199174D02*
X4472325Y-11189650D01*
X4472325Y-11189650D02*
X4510420Y-11189650D01*
X4510420Y-11189650D02*
X4529468Y-11199174D01*
X4529468Y-11199174D02*
X4538992Y-11218222D01*
X4538992Y-11218222D02*
X4538992Y-11237269D01*
X4538992Y-11237269D02*
X4443753Y-11256317D01*
X4615182Y-11313460D02*
X4634230Y-11322984D01*
X4634230Y-11322984D02*
X4672325Y-11322984D01*
X4672325Y-11322984D02*
X4691373Y-11313460D01*
X4691373Y-11313460D02*
X4700896Y-11294412D01*
X4700896Y-11294412D02*
X4700896Y-11284888D01*
X4700896Y-11284888D02*
X4691373Y-11265841D01*
X4691373Y-11265841D02*
X4672325Y-11256317D01*
X4672325Y-11256317D02*
X4643753Y-11256317D01*
X4643753Y-11256317D02*
X4624706Y-11246793D01*
X4624706Y-11246793D02*
X4615182Y-11227746D01*
X4615182Y-11227746D02*
X4615182Y-11218222D01*
X4615182Y-11218222D02*
X4624706Y-11199174D01*
X4624706Y-11199174D02*
X4643753Y-11189650D01*
X4643753Y-11189650D02*
X4672325Y-11189650D01*
X4672325Y-11189650D02*
X4691373Y-11199174D01*
X4767563Y-11399174D02*
X4777087Y-11389650D01*
X4777087Y-11389650D02*
X4796134Y-11361079D01*
X4796134Y-11361079D02*
X4805658Y-11342031D01*
X4805658Y-11342031D02*
X4815182Y-11313460D01*
X4815182Y-11313460D02*
X4824706Y-11265841D01*
X4824706Y-11265841D02*
X4824706Y-11227746D01*
X4824706Y-11227746D02*
X4815182Y-11180127D01*
X4815182Y-11180127D02*
X4805658Y-11151555D01*
X4805658Y-11151555D02*
X4796134Y-11132508D01*
X4796134Y-11132508D02*
X4777087Y-11103936D01*
X4777087Y-11103936D02*
X4767563Y-11094412D01*
X5129468Y-11399174D02*
X5119944Y-11389650D01*
X5119944Y-11389650D02*
X5100896Y-11361079D01*
X5100896Y-11361079D02*
X5091373Y-11342031D01*
X5091373Y-11342031D02*
X5081849Y-11313460D01*
X5081849Y-11313460D02*
X5072325Y-11265841D01*
X5072325Y-11265841D02*
X5072325Y-11227746D01*
X5072325Y-11227746D02*
X5081849Y-11180127D01*
X5081849Y-11180127D02*
X5091373Y-11151555D01*
X5091373Y-11151555D02*
X5100896Y-11132508D01*
X5100896Y-11132508D02*
X5119944Y-11103936D01*
X5119944Y-11103936D02*
X5129468Y-11094412D01*
X5205658Y-11189650D02*
X5205658Y-11322984D01*
X5205658Y-11208698D02*
X5215182Y-11199174D01*
X5215182Y-11199174D02*
X5234230Y-11189650D01*
X5234230Y-11189650D02*
X5262801Y-11189650D01*
X5262801Y-11189650D02*
X5281849Y-11199174D01*
X5281849Y-11199174D02*
X5291373Y-11218222D01*
X5291373Y-11218222D02*
X5291373Y-11322984D01*
X5415182Y-11322984D02*
X5396134Y-11313460D01*
X5396134Y-11313460D02*
X5386611Y-11303936D01*
X5386611Y-11303936D02*
X5377087Y-11284888D01*
X5377087Y-11284888D02*
X5377087Y-11227746D01*
X5377087Y-11227746D02*
X5386611Y-11208698D01*
X5386611Y-11208698D02*
X5396134Y-11199174D01*
X5396134Y-11199174D02*
X5415182Y-11189650D01*
X5415182Y-11189650D02*
X5443754Y-11189650D01*
X5443754Y-11189650D02*
X5462801Y-11199174D01*
X5462801Y-11199174D02*
X5472325Y-11208698D01*
X5472325Y-11208698D02*
X5481849Y-11227746D01*
X5481849Y-11227746D02*
X5481849Y-11284888D01*
X5481849Y-11284888D02*
X5472325Y-11303936D01*
X5472325Y-11303936D02*
X5462801Y-11313460D01*
X5462801Y-11313460D02*
X5443754Y-11322984D01*
X5443754Y-11322984D02*
X5415182Y-11322984D01*
X5538992Y-11189650D02*
X5615182Y-11189650D01*
X5567563Y-11122984D02*
X5567563Y-11294412D01*
X5567563Y-11294412D02*
X5577087Y-11313460D01*
X5577087Y-11313460D02*
X5596134Y-11322984D01*
X5596134Y-11322984D02*
X5615182Y-11322984D01*
X5834230Y-11189650D02*
X5834230Y-11389650D01*
X5834230Y-11199174D02*
X5853277Y-11189650D01*
X5853277Y-11189650D02*
X5891373Y-11189650D01*
X5891373Y-11189650D02*
X5910420Y-11199174D01*
X5910420Y-11199174D02*
X5919944Y-11208698D01*
X5919944Y-11208698D02*
X5929468Y-11227746D01*
X5929468Y-11227746D02*
X5929468Y-11284888D01*
X5929468Y-11284888D02*
X5919944Y-11303936D01*
X5919944Y-11303936D02*
X5910420Y-11313460D01*
X5910420Y-11313460D02*
X5891373Y-11322984D01*
X5891373Y-11322984D02*
X5853277Y-11322984D01*
X5853277Y-11322984D02*
X5834230Y-11313460D01*
X6043753Y-11322984D02*
X6024706Y-11313460D01*
X6024706Y-11313460D02*
X6015182Y-11294412D01*
X6015182Y-11294412D02*
X6015182Y-11122984D01*
X6205658Y-11322984D02*
X6205658Y-11218222D01*
X6205658Y-11218222D02*
X6196134Y-11199174D01*
X6196134Y-11199174D02*
X6177087Y-11189650D01*
X6177087Y-11189650D02*
X6138992Y-11189650D01*
X6138992Y-11189650D02*
X6119944Y-11199174D01*
X6205658Y-11313460D02*
X6186611Y-11322984D01*
X6186611Y-11322984D02*
X6138992Y-11322984D01*
X6138992Y-11322984D02*
X6119944Y-11313460D01*
X6119944Y-11313460D02*
X6110420Y-11294412D01*
X6110420Y-11294412D02*
X6110420Y-11275365D01*
X6110420Y-11275365D02*
X6119944Y-11256317D01*
X6119944Y-11256317D02*
X6138992Y-11246793D01*
X6138992Y-11246793D02*
X6186611Y-11246793D01*
X6186611Y-11246793D02*
X6205658Y-11237269D01*
X6272325Y-11189650D02*
X6348515Y-11189650D01*
X6300896Y-11122984D02*
X6300896Y-11294412D01*
X6300896Y-11294412D02*
X6310420Y-11313460D01*
X6310420Y-11313460D02*
X6329468Y-11322984D01*
X6329468Y-11322984D02*
X6348515Y-11322984D01*
X6491373Y-11313460D02*
X6472325Y-11322984D01*
X6472325Y-11322984D02*
X6434230Y-11322984D01*
X6434230Y-11322984D02*
X6415182Y-11313460D01*
X6415182Y-11313460D02*
X6405658Y-11294412D01*
X6405658Y-11294412D02*
X6405658Y-11218222D01*
X6405658Y-11218222D02*
X6415182Y-11199174D01*
X6415182Y-11199174D02*
X6434230Y-11189650D01*
X6434230Y-11189650D02*
X6472325Y-11189650D01*
X6472325Y-11189650D02*
X6491373Y-11199174D01*
X6491373Y-11199174D02*
X6500896Y-11218222D01*
X6500896Y-11218222D02*
X6500896Y-11237269D01*
X6500896Y-11237269D02*
X6405658Y-11256317D01*
X6672325Y-11322984D02*
X6672325Y-11122984D01*
X6672325Y-11313460D02*
X6653277Y-11322984D01*
X6653277Y-11322984D02*
X6615182Y-11322984D01*
X6615182Y-11322984D02*
X6596134Y-11313460D01*
X6596134Y-11313460D02*
X6586611Y-11303936D01*
X6586611Y-11303936D02*
X6577087Y-11284888D01*
X6577087Y-11284888D02*
X6577087Y-11227746D01*
X6577087Y-11227746D02*
X6586611Y-11208698D01*
X6586611Y-11208698D02*
X6596134Y-11199174D01*
X6596134Y-11199174D02*
X6615182Y-11189650D01*
X6615182Y-11189650D02*
X6653277Y-11189650D01*
X6653277Y-11189650D02*
X6672325Y-11199174D01*
X6748515Y-11399174D02*
X6758039Y-11389650D01*
X6758039Y-11389650D02*
X6777087Y-11361079D01*
X6777087Y-11361079D02*
X6786611Y-11342031D01*
X6786611Y-11342031D02*
X6796134Y-11313460D01*
X6796134Y-11313460D02*
X6805658Y-11265841D01*
X6805658Y-11265841D02*
X6805658Y-11227746D01*
X6805658Y-11227746D02*
X6796134Y-11180127D01*
X6796134Y-11180127D02*
X6786611Y-11151555D01*
X6786611Y-11151555D02*
X6777087Y-11132508D01*
X6777087Y-11132508D02*
X6758039Y-11103936D01*
X6758039Y-11103936D02*
X6748515Y-11094412D01*
M02*
