%TF.GenerationSoftware,KiCad,Pcbnew,10.0.4*%
%TF.CreationDate,2026-07-08T20:02:53+00:00*%
%TF.ProjectId,NodePad,4e6f6465-5061-4642-9e6b-696361645f70,0.1*%
%TF.SameCoordinates,Original*%
%TF.FileFunction,Paste,Top*%
%TF.FilePolarity,Positive*%
%FSLAX46Y46*%
G04 Gerber Fmt 4.6, Leading zero omitted, Abs format (unit mm)*
G04 Created by KiCad (PCBNEW 10.0.4) date 2026-07-08 20:02:53*
%MOMM*%
%LPD*%
G01*
G04 APERTURE LIST*
G04 Aperture macros list*
%AMRoundRect*
0 Rectangle with rounded corners*
0 $1 Rounding radius*
0 $2 $3 $4 $5 $6 $7 $8 $9 X,Y pos of 4 corners*
0 Add a 4 corners polygon primitive as box body*
4,1,4,$2,$3,$4,$5,$6,$7,$8,$9,$2,$3,0*
0 Add four circle primitives for the rounded corners*
1,1,$1+$1,$2,$3*
1,1,$1+$1,$4,$5*
1,1,$1+$1,$6,$7*
1,1,$1+$1,$8,$9*
0 Add four rect primitives between the rounded corners*
20,1,$1+$1,$2,$3,$4,$5,0*
20,1,$1+$1,$4,$5,$6,$7,0*
20,1,$1+$1,$6,$7,$8,$9,0*
20,1,$1+$1,$8,$9,$2,$3,0*%
G04 Aperture macros list end*
%ADD10R,5.100000X5.100000*%
%ADD11RoundRect,0.140000X-0.140000X-0.170000X0.140000X-0.170000X0.140000X0.170000X-0.140000X0.170000X0*%
%ADD12RoundRect,0.250000X-0.250000X-0.475000X0.250000X-0.475000X0.250000X0.475000X-0.250000X0.475000X0*%
%ADD13RoundRect,0.250000X-0.325000X-1.100000X0.325000X-1.100000X0.325000X1.100000X-0.325000X1.100000X0*%
%ADD14RoundRect,0.225000X-0.225000X-0.250000X0.225000X-0.250000X0.225000X0.250000X-0.225000X0.250000X0*%
%ADD15RoundRect,0.250000X-0.325000X-0.650000X0.325000X-0.650000X0.325000X0.650000X-0.325000X0.650000X0*%
%ADD16RoundRect,0.250000X-1.250000X-0.550000X1.250000X-0.550000X1.250000X0.550000X-1.250000X0.550000X0*%
%ADD17RoundRect,0.218750X-0.218750X-0.256250X0.218750X-0.256250X0.218750X0.256250X-0.218750X0.256250X0*%
%ADD18RoundRect,0.250000X-1.000000X-0.900000X1.000000X-0.900000X1.000000X0.900000X-1.000000X0.900000X0*%
%ADD19RoundRect,0.112500X-0.187500X-0.112500X0.187500X-0.112500X0.187500X0.112500X-0.187500X0.112500X0*%
%ADD20RoundRect,0.150000X0.150000X0.200000X-0.150000X0.200000X-0.150000X-0.200000X0.150000X-0.200000X0*%
%ADD21R,0.480000X0.180000*%
%ADD22R,0.760000X0.490000*%
%ADD23R,2.600000X0.300000*%
%ADD24R,2.400000X0.740000*%
%ADD25R,0.600000X1.450000*%
%ADD26R,0.300000X1.450000*%
%ADD27R,4.000000X7.000000*%
%ADD28RoundRect,0.150000X-0.587500X-0.150000X0.587500X-0.150000X0.587500X0.150000X-0.587500X0.150000X0*%
%ADD29RoundRect,0.135000X-0.135000X-0.185000X0.135000X-0.185000X0.135000X0.185000X-0.135000X0.185000X0*%
%ADD30R,1.600000X1.400000*%
%ADD31RoundRect,0.250001X-0.654999X-0.654999X0.654999X-0.654999X0.654999X0.654999X-0.654999X0.654999X0*%
%ADD32RoundRect,0.075000X-0.200000X-0.075000X0.200000X-0.075000X0.200000X0.075000X-0.200000X0.075000X0*%
%ADD33RoundRect,0.075000X-0.075000X-0.200000X0.075000X-0.200000X0.075000X0.200000X-0.075000X0.200000X0*%
%ADD34RoundRect,0.150000X-0.512500X-0.150000X0.512500X-0.150000X0.512500X0.150000X-0.512500X0.150000X0*%
%ADD35RoundRect,0.250000X-0.380000X-0.380000X0.380000X-0.380000X0.380000X0.380000X-0.380000X0.380000X0*%
%ADD36RoundRect,0.050000X-0.387500X-0.050000X0.387500X-0.050000X0.387500X0.050000X-0.387500X0.050000X0*%
%ADD37RoundRect,0.050000X-0.050000X-0.387500X0.050000X-0.387500X0.050000X0.387500X-0.050000X0.387500X0*%
%ADD38RoundRect,0.087500X-0.250000X-0.087500X0.250000X-0.087500X0.250000X0.087500X-0.250000X0.087500X0*%
%ADD39RoundRect,0.075000X-0.650000X-0.075000X0.650000X-0.075000X0.650000X0.075000X-0.650000X0.075000X0*%
%ADD40RoundRect,0.150000X-0.825000X-0.150000X0.825000X-0.150000X0.825000X0.150000X-0.825000X0.150000X0*%
%ADD41R,1.400000X1.200000*%
G04 APERTURE END LIST*
D10*
%TO.C,BT1*%
X-2800000Y-45000000D03*
X22800000Y-45000000D03*
%TD*%
D11*
%TO.C,C1*%
X15020000Y-45000000D03*
X15980000Y-45000000D03*
%TD*%
D12*
%TO.C,C10*%
X20050000Y-45000000D03*
X21950000Y-45000000D03*
%TD*%
%TO.C,C11*%
X25550000Y-45000000D03*
X27450000Y-45000000D03*
%TD*%
D11*
%TO.C,C12*%
X31520000Y-45000000D03*
X32480000Y-45000000D03*
%TD*%
%TO.C,C13*%
X37020000Y-45000000D03*
X37980000Y-45000000D03*
%TD*%
%TO.C,C15*%
X42520000Y-45000000D03*
X43480000Y-45000000D03*
%TD*%
%TO.C,C16*%
X48020000Y-45000000D03*
X48980000Y-45000000D03*
%TD*%
%TO.C,C2*%
X53520000Y-45000000D03*
X54480000Y-45000000D03*
%TD*%
D12*
%TO.C,C3*%
X58550000Y-45000000D03*
X60450000Y-45000000D03*
%TD*%
D11*
%TO.C,C4*%
X64520000Y-45000000D03*
X65480000Y-45000000D03*
%TD*%
%TO.C,C5*%
X70020000Y-45000000D03*
X70980000Y-45000000D03*
%TD*%
%TO.C,C6*%
X75520000Y-45000000D03*
X76480000Y-45000000D03*
%TD*%
D12*
%TO.C,C_AVDD_BULK_1*%
X80550000Y-45000000D03*
X82450000Y-45000000D03*
%TD*%
%TO.C,C_AVDD_BULK_2*%
X86050000Y-45000000D03*
X87950000Y-45000000D03*
%TD*%
%TO.C,C_AVDD_BULK_3*%
X91550000Y-45000000D03*
X93450000Y-45000000D03*
%TD*%
%TO.C,C_AVDD_BULK_4*%
X9050000Y-50500000D03*
X10950000Y-50500000D03*
%TD*%
D11*
%TO.C,C_AVDD_HF_1*%
X15020000Y-50500000D03*
X15980000Y-50500000D03*
%TD*%
%TO.C,C_AVDD_HF_2*%
X20520000Y-50500000D03*
X21480000Y-50500000D03*
%TD*%
%TO.C,C_AVDD_HF_3*%
X26020000Y-50500000D03*
X26980000Y-50500000D03*
%TD*%
%TO.C,C_AVDD_HF_4*%
X31520000Y-50500000D03*
X32480000Y-50500000D03*
%TD*%
%TO.C,C_BAT_1*%
X37020000Y-50500000D03*
X37980000Y-50500000D03*
%TD*%
D12*
%TO.C,C_BLK_3V3_AUX_01*%
X42050000Y-50500000D03*
X43950000Y-50500000D03*
%TD*%
%TO.C,C_BLK_3V3_AUX_02*%
X47550000Y-50500000D03*
X49450000Y-50500000D03*
%TD*%
%TO.C,C_BLK_3V3_AUX_03*%
X53050000Y-50500000D03*
X54950000Y-50500000D03*
%TD*%
%TO.C,C_BLK_5V_01*%
X58550000Y-50500000D03*
X60450000Y-50500000D03*
%TD*%
%TO.C,C_BLK_5V_02*%
X64050000Y-50500000D03*
X65950000Y-50500000D03*
%TD*%
%TO.C,C_BLK_5V_03*%
X69550000Y-50500000D03*
X71450000Y-50500000D03*
%TD*%
%TO.C,C_BLK_5V_04*%
X75050000Y-50500000D03*
X76950000Y-50500000D03*
%TD*%
D13*
%TO.C,C_BS_J3*%
X80025000Y-50500000D03*
X82975000Y-50500000D03*
%TD*%
%TO.C,C_BS_J4*%
X85525000Y-50500000D03*
X88475000Y-50500000D03*
%TD*%
D14*
%TO.C,C_CM5_BULK_1*%
X91725000Y-50500000D03*
X93275000Y-50500000D03*
%TD*%
%TO.C,C_CM5_BULK_2*%
X9225000Y-56000000D03*
X10775000Y-56000000D03*
%TD*%
%TO.C,C_CM5_BULK_3*%
X14725000Y-56000000D03*
X16275000Y-56000000D03*
%TD*%
%TO.C,C_CM5_BULK_4*%
X20225000Y-56000000D03*
X21775000Y-56000000D03*
%TD*%
%TO.C,C_CM5_BULK_5*%
X25725000Y-56000000D03*
X27275000Y-56000000D03*
%TD*%
%TO.C,C_CM5_BULK_6*%
X31225000Y-56000000D03*
X32775000Y-56000000D03*
%TD*%
D11*
%TO.C,C_CM5_HF_1*%
X37020000Y-56000000D03*
X37980000Y-56000000D03*
%TD*%
%TO.C,C_CM5_HF_10*%
X42520000Y-56000000D03*
X43480000Y-56000000D03*
%TD*%
%TO.C,C_CM5_HF_2*%
X48020000Y-56000000D03*
X48980000Y-56000000D03*
%TD*%
%TO.C,C_CM5_HF_3*%
X53520000Y-56000000D03*
X54480000Y-56000000D03*
%TD*%
%TO.C,C_CM5_HF_4*%
X59020000Y-56000000D03*
X59980000Y-56000000D03*
%TD*%
%TO.C,C_CM5_HF_5*%
X64520000Y-56000000D03*
X65480000Y-56000000D03*
%TD*%
%TO.C,C_CM5_HF_6*%
X70020000Y-56000000D03*
X70980000Y-56000000D03*
%TD*%
%TO.C,C_CM5_HF_7*%
X75520000Y-56000000D03*
X76480000Y-56000000D03*
%TD*%
%TO.C,C_CM5_HF_8*%
X81020000Y-56000000D03*
X81980000Y-56000000D03*
%TD*%
%TO.C,C_CM5_HF_9*%
X86520000Y-56000000D03*
X87480000Y-56000000D03*
%TD*%
%TO.C,C_DEC_3V3_AUX_01*%
X92020000Y-56000000D03*
X92980000Y-56000000D03*
%TD*%
%TO.C,C_DEC_3V3_AUX_02*%
X9520000Y-61500000D03*
X10480000Y-61500000D03*
%TD*%
%TO.C,C_DEC_3V3_AUX_03*%
X15020000Y-61500000D03*
X15980000Y-61500000D03*
%TD*%
%TO.C,C_DEC_3V3_AUX_04*%
X20520000Y-61500000D03*
X21480000Y-61500000D03*
%TD*%
%TO.C,C_DEC_3V3_AUX_05*%
X26020000Y-61500000D03*
X26980000Y-61500000D03*
%TD*%
%TO.C,C_DEC_3V3_AUX_06*%
X31520000Y-61500000D03*
X32480000Y-61500000D03*
%TD*%
%TO.C,C_DEC_3V3_AUX_07*%
X37020000Y-61500000D03*
X37980000Y-61500000D03*
%TD*%
%TO.C,C_DEC_3V3_AUX_08*%
X42520000Y-61500000D03*
X43480000Y-61500000D03*
%TD*%
%TO.C,C_DEC_3V3_AUX_09*%
X48020000Y-61500000D03*
X48980000Y-61500000D03*
%TD*%
%TO.C,C_DEC_3V3_AUX_10*%
X53520000Y-61500000D03*
X54480000Y-61500000D03*
%TD*%
%TO.C,C_DEC_5V_01*%
X59020000Y-61500000D03*
X59980000Y-61500000D03*
%TD*%
%TO.C,C_DEC_5V_02*%
X64520000Y-61500000D03*
X65480000Y-61500000D03*
%TD*%
%TO.C,C_DEC_5V_03*%
X70020000Y-61500000D03*
X70980000Y-61500000D03*
%TD*%
%TO.C,C_DEC_5V_04*%
X75520000Y-61500000D03*
X76480000Y-61500000D03*
%TD*%
%TO.C,C_DEC_5V_05*%
X81020000Y-61500000D03*
X81980000Y-61500000D03*
%TD*%
%TO.C,C_DEC_5V_06*%
X86520000Y-61500000D03*
X87480000Y-61500000D03*
%TD*%
%TO.C,C_DEC_5V_07*%
X92020000Y-61500000D03*
X92980000Y-61500000D03*
%TD*%
%TO.C,C_DEC_5V_08*%
X9520000Y-67000000D03*
X10480000Y-67000000D03*
%TD*%
%TO.C,C_DEC_5V_09*%
X15020000Y-67000000D03*
X15980000Y-67000000D03*
%TD*%
%TO.C,C_DEC_5V_10*%
X20520000Y-67000000D03*
X21480000Y-67000000D03*
%TD*%
%TO.C,C_DEC_5V_11*%
X26020000Y-67000000D03*
X26980000Y-67000000D03*
%TD*%
%TO.C,C_DEC_5V_12*%
X31520000Y-67000000D03*
X32480000Y-67000000D03*
%TD*%
D13*
%TO.C,C_EMI*%
X36025000Y-67000000D03*
X38975000Y-67000000D03*
%TD*%
D11*
%TO.C,C_HUB_1*%
X42520000Y-67000000D03*
X43480000Y-67000000D03*
%TD*%
%TO.C,C_HUB_2*%
X48020000Y-67000000D03*
X48980000Y-67000000D03*
%TD*%
%TO.C,C_HUB_3*%
X53520000Y-67000000D03*
X54480000Y-67000000D03*
%TD*%
%TO.C,C_HUB_4*%
X59020000Y-67000000D03*
X59980000Y-67000000D03*
%TD*%
%TO.C,C_HUB_5*%
X64520000Y-67000000D03*
X65480000Y-67000000D03*
%TD*%
%TO.C,C_HUB_6*%
X70020000Y-67000000D03*
X70980000Y-67000000D03*
%TD*%
%TO.C,C_HUB_7*%
X75520000Y-67000000D03*
X76480000Y-67000000D03*
%TD*%
%TO.C,C_HUB_8*%
X81020000Y-67000000D03*
X81980000Y-67000000D03*
%TD*%
D14*
%TO.C,C_HUB_BULK*%
X86225000Y-67000000D03*
X87775000Y-67000000D03*
%TD*%
%TO.C,C_HUB_LDO*%
X91725000Y-67000000D03*
X93275000Y-67000000D03*
%TD*%
D11*
%TO.C,C_M2E_1*%
X9520000Y-72500000D03*
X10480000Y-72500000D03*
%TD*%
%TO.C,C_M2E_2*%
X15020000Y-72500000D03*
X15980000Y-72500000D03*
%TD*%
%TO.C,C_M2E_3*%
X20520000Y-72500000D03*
X21480000Y-72500000D03*
%TD*%
D14*
%TO.C,C_M2E_BULK*%
X25725000Y-72500000D03*
X27275000Y-72500000D03*
%TD*%
D11*
%TO.C,C_M2M_1*%
X31520000Y-72500000D03*
X32480000Y-72500000D03*
%TD*%
%TO.C,C_M2M_2*%
X37020000Y-72500000D03*
X37980000Y-72500000D03*
%TD*%
%TO.C,C_M2M_3*%
X42520000Y-72500000D03*
X43480000Y-72500000D03*
%TD*%
%TO.C,C_M2M_4*%
X48020000Y-72500000D03*
X48980000Y-72500000D03*
%TD*%
D12*
%TO.C,C_M2M_BULK*%
X53050000Y-72500000D03*
X54950000Y-72500000D03*
%TD*%
D13*
%TO.C,C_POE_BULK*%
X58025000Y-72500000D03*
X60975000Y-72500000D03*
%TD*%
D15*
%TO.C,C_POE_HF*%
X63525000Y-72500000D03*
X66475000Y-72500000D03*
%TD*%
D13*
%TO.C,C_POE_SEC*%
X69025000Y-72500000D03*
X71975000Y-72500000D03*
%TD*%
D11*
%TO.C,C_PWR_EN_DLY*%
X75520000Y-72500000D03*
X76480000Y-72500000D03*
%TD*%
%TO.C,C_RESET_DB*%
X81020000Y-72500000D03*
X81980000Y-72500000D03*
%TD*%
%TO.C,C_RTC_1*%
X86520000Y-72500000D03*
X87480000Y-72500000D03*
%TD*%
%TO.C,C_RTC_2*%
X92020000Y-72500000D03*
X92980000Y-72500000D03*
%TD*%
%TO.C,C_RTL_1*%
X9520000Y-78000000D03*
X10480000Y-78000000D03*
%TD*%
%TO.C,C_RTL_2*%
X15020000Y-78000000D03*
X15980000Y-78000000D03*
%TD*%
%TO.C,C_RTL_3*%
X20520000Y-78000000D03*
X21480000Y-78000000D03*
%TD*%
%TO.C,C_RTL_4*%
X26020000Y-78000000D03*
X26980000Y-78000000D03*
%TD*%
%TO.C,C_RTL_5*%
X31520000Y-78000000D03*
X32480000Y-78000000D03*
%TD*%
%TO.C,C_RTL_6*%
X37020000Y-78000000D03*
X37980000Y-78000000D03*
%TD*%
D14*
%TO.C,C_RTL_BULK*%
X42225000Y-78000000D03*
X43775000Y-78000000D03*
%TD*%
D15*
%TO.C,C_VB_J10*%
X47025000Y-78000000D03*
X49975000Y-78000000D03*
%TD*%
%TO.C,C_VB_J11*%
X52525000Y-78000000D03*
X55475000Y-78000000D03*
%TD*%
%TO.C,C_VB_J8*%
X58025000Y-78000000D03*
X60975000Y-78000000D03*
%TD*%
%TO.C,C_VB_J9*%
X63525000Y-78000000D03*
X66475000Y-78000000D03*
%TD*%
D16*
%TO.C,C_VIN_BULK*%
X68300000Y-78000000D03*
X72700000Y-78000000D03*
%TD*%
D11*
%TO.C,C_VIN_HF*%
X75520000Y-78000000D03*
X76480000Y-78000000D03*
%TD*%
D17*
%TO.C,D1*%
X80712500Y-78000000D03*
X82287500Y-78000000D03*
%TD*%
%TO.C,D2*%
X86212500Y-78000000D03*
X87787500Y-78000000D03*
%TD*%
%TO.C,D3*%
X91712500Y-78000000D03*
X93287500Y-78000000D03*
%TD*%
%TO.C,D4*%
X9212500Y-83500000D03*
X10787500Y-83500000D03*
%TD*%
%TO.C,D5*%
X14712500Y-83500000D03*
X16287500Y-83500000D03*
%TD*%
D18*
%TO.C,D6*%
X18850000Y-83500000D03*
X23150000Y-83500000D03*
%TD*%
D19*
%TO.C,D_BAT*%
X25450000Y-83500000D03*
X27550000Y-83500000D03*
%TD*%
D20*
%TO.C,D_HDMI_CTL_1*%
X31300000Y-83500000D03*
X32700000Y-83500000D03*
%TD*%
%TO.C,D_HDMI_CTL_2*%
X36800000Y-83500000D03*
X38200000Y-83500000D03*
%TD*%
D18*
%TO.C,D_POE_1*%
X40850000Y-83500000D03*
X45150000Y-83500000D03*
%TD*%
%TO.C,D_POE_2*%
X46350000Y-83500000D03*
X50650000Y-83500000D03*
%TD*%
%TO.C,D_POE_3*%
X51850000Y-83500000D03*
X56150000Y-83500000D03*
%TD*%
%TO.C,D_POE_4*%
X57350000Y-83500000D03*
X61650000Y-83500000D03*
%TD*%
%TO.C,D_POE_OR*%
X62850000Y-83500000D03*
X67150000Y-83500000D03*
%TD*%
%TO.C,D_POE_SEC*%
X68350000Y-83500000D03*
X72650000Y-83500000D03*
%TD*%
%TO.C,D_POE_TVS*%
X73850000Y-83500000D03*
X78150000Y-83500000D03*
%TD*%
%TO.C,D_TVS_J10*%
X79350000Y-83500000D03*
X83650000Y-83500000D03*
%TD*%
%TO.C,D_TVS_J11*%
X84850000Y-83500000D03*
X89150000Y-83500000D03*
%TD*%
%TO.C,D_TVS_J8*%
X90350000Y-83500000D03*
X94650000Y-83500000D03*
%TD*%
%TO.C,D_TVS_J9*%
X7850000Y-89000000D03*
X12150000Y-89000000D03*
%TD*%
D17*
%TO.C,FB_AVDD_1*%
X14712500Y-89000000D03*
X16287500Y-89000000D03*
%TD*%
%TO.C,FB_AVDD_2*%
X20212500Y-89000000D03*
X21787500Y-89000000D03*
%TD*%
%TO.C,FB_AVDD_3*%
X25712500Y-89000000D03*
X27287500Y-89000000D03*
%TD*%
%TO.C,FB_AVDD_4*%
X31212500Y-89000000D03*
X32787500Y-89000000D03*
%TD*%
%TO.C,FB_HDMI_5V*%
X36712500Y-89000000D03*
X38287500Y-89000000D03*
%TD*%
D21*
%TO.C,J1*%
X41940000Y-85675000D03*
X44060000Y-85675000D03*
X41940000Y-86025000D03*
X44060000Y-86025000D03*
X41940000Y-86375000D03*
X44060000Y-86375000D03*
X41940000Y-86725000D03*
X44060000Y-86725000D03*
X41940000Y-87075000D03*
X44060000Y-87075000D03*
X41940000Y-87425000D03*
X44060000Y-87425000D03*
X41940000Y-87775000D03*
X44060000Y-87775000D03*
X41940000Y-88125000D03*
X44060000Y-88125000D03*
X41940000Y-88475000D03*
X44060000Y-88475000D03*
X41940000Y-88825000D03*
X44060000Y-88825000D03*
X41940000Y-89175000D03*
X44060000Y-89175000D03*
X41940000Y-89525000D03*
X44060000Y-89525000D03*
X41940000Y-89875000D03*
X44060000Y-89875000D03*
X41940000Y-90225000D03*
X44060000Y-90225000D03*
X41940000Y-90575000D03*
X44060000Y-90575000D03*
X41940000Y-90925000D03*
X44060000Y-90925000D03*
X41940000Y-91275000D03*
X44060000Y-91275000D03*
X41940000Y-91625000D03*
X44060000Y-91625000D03*
X41940000Y-91975000D03*
X44060000Y-91975000D03*
X41940000Y-92325000D03*
X44060000Y-92325000D03*
D22*
X43000000Y-83845000D03*
X43000000Y-94155000D03*
%TD*%
D23*
%TO.C,J12*%
X56215000Y-84500000D03*
X56215000Y-85000000D03*
X56215000Y-85500000D03*
X56215000Y-86000000D03*
X56215000Y-86500000D03*
X56215000Y-87000000D03*
X56215000Y-87500000D03*
X56215000Y-88000000D03*
X56215000Y-88500000D03*
X56215000Y-89000000D03*
X56215000Y-89500000D03*
X56215000Y-90000000D03*
X56215000Y-90500000D03*
X56215000Y-91000000D03*
X56215000Y-91500000D03*
X56215000Y-92000000D03*
X56215000Y-92500000D03*
X56215000Y-93000000D03*
X56215000Y-93500000D03*
%TD*%
D21*
%TO.C,J2*%
X74940000Y-85675000D03*
X77060000Y-85675000D03*
X74940000Y-86025000D03*
X77060000Y-86025000D03*
X74940000Y-86375000D03*
X77060000Y-86375000D03*
X74940000Y-86725000D03*
X77060000Y-86725000D03*
X74940000Y-87075000D03*
X77060000Y-87075000D03*
X74940000Y-87425000D03*
X77060000Y-87425000D03*
X74940000Y-87775000D03*
X77060000Y-87775000D03*
X74940000Y-88125000D03*
X77060000Y-88125000D03*
X74940000Y-88475000D03*
X77060000Y-88475000D03*
X74940000Y-88825000D03*
X77060000Y-88825000D03*
X74940000Y-89175000D03*
X77060000Y-89175000D03*
X74940000Y-89525000D03*
X77060000Y-89525000D03*
X74940000Y-89875000D03*
X77060000Y-89875000D03*
X74940000Y-90225000D03*
X77060000Y-90225000D03*
X74940000Y-90575000D03*
X77060000Y-90575000D03*
X74940000Y-90925000D03*
X77060000Y-90925000D03*
X74940000Y-91275000D03*
X77060000Y-91275000D03*
X74940000Y-91625000D03*
X77060000Y-91625000D03*
X74940000Y-91975000D03*
X77060000Y-91975000D03*
X74940000Y-92325000D03*
X77060000Y-92325000D03*
D22*
X76000000Y-83845000D03*
X76000000Y-94155000D03*
%TD*%
D24*
%TO.C,J5*%
X90550000Y-65505000D03*
X94450000Y-65505000D03*
X90550000Y-66775000D03*
X94450000Y-66775000D03*
X90550000Y-68045000D03*
X94450000Y-68045000D03*
X90550000Y-69315000D03*
X94450000Y-69315000D03*
X90550000Y-70585000D03*
X94450000Y-70585000D03*
X90550000Y-71855000D03*
X94450000Y-71855000D03*
X90550000Y-73125000D03*
X94450000Y-73125000D03*
X90550000Y-74395000D03*
X94450000Y-74395000D03*
X90550000Y-75665000D03*
X94450000Y-75665000D03*
X90550000Y-76935000D03*
X94450000Y-76935000D03*
X90550000Y-78205000D03*
X94450000Y-78205000D03*
X90550000Y-79475000D03*
X94450000Y-79475000D03*
X90550000Y-80745000D03*
X94450000Y-80745000D03*
X90550000Y-82015000D03*
X94450000Y-82015000D03*
X90550000Y-83285000D03*
X94450000Y-83285000D03*
X90550000Y-84555000D03*
X94450000Y-84555000D03*
X90550000Y-85825000D03*
X94450000Y-85825000D03*
X90550000Y-87095000D03*
X94450000Y-87095000D03*
X90550000Y-88365000D03*
X94450000Y-88365000D03*
X90550000Y-89635000D03*
X94450000Y-89635000D03*
X90550000Y-90905000D03*
X94450000Y-90905000D03*
X90550000Y-92175000D03*
X94450000Y-92175000D03*
X90550000Y-93445000D03*
X94450000Y-93445000D03*
X90550000Y-94715000D03*
X94450000Y-94715000D03*
X90550000Y-95985000D03*
X94450000Y-95985000D03*
X90550000Y-97255000D03*
X94450000Y-97255000D03*
X90550000Y-98525000D03*
X94450000Y-98525000D03*
X90550000Y-99795000D03*
X94450000Y-99795000D03*
X90550000Y-101065000D03*
X94450000Y-101065000D03*
X90550000Y-102335000D03*
X94450000Y-102335000D03*
X90550000Y-103605000D03*
X94450000Y-103605000D03*
X90550000Y-104875000D03*
X94450000Y-104875000D03*
X90550000Y-106145000D03*
X94450000Y-106145000D03*
X90550000Y-107415000D03*
X94450000Y-107415000D03*
X90550000Y-108685000D03*
X94450000Y-108685000D03*
X90550000Y-109955000D03*
X94450000Y-109955000D03*
X90550000Y-111225000D03*
X94450000Y-111225000D03*
X90550000Y-112495000D03*
X94450000Y-112495000D03*
%TD*%
%TO.C,J6*%
X8050000Y-71005000D03*
X11950000Y-71005000D03*
X8050000Y-72275000D03*
X11950000Y-72275000D03*
X8050000Y-73545000D03*
X11950000Y-73545000D03*
X8050000Y-74815000D03*
X11950000Y-74815000D03*
X8050000Y-76085000D03*
X11950000Y-76085000D03*
X8050000Y-77355000D03*
X11950000Y-77355000D03*
X8050000Y-78625000D03*
X11950000Y-78625000D03*
X8050000Y-79895000D03*
X11950000Y-79895000D03*
X8050000Y-81165000D03*
X11950000Y-81165000D03*
X8050000Y-82435000D03*
X11950000Y-82435000D03*
X8050000Y-83705000D03*
X11950000Y-83705000D03*
X8050000Y-84975000D03*
X11950000Y-84975000D03*
X8050000Y-86245000D03*
X11950000Y-86245000D03*
X8050000Y-87515000D03*
X11950000Y-87515000D03*
X8050000Y-88785000D03*
X11950000Y-88785000D03*
X8050000Y-90055000D03*
X11950000Y-90055000D03*
X8050000Y-91325000D03*
X11950000Y-91325000D03*
X8050000Y-92595000D03*
X11950000Y-92595000D03*
X8050000Y-93865000D03*
X11950000Y-93865000D03*
X8050000Y-95135000D03*
X11950000Y-95135000D03*
X8050000Y-96405000D03*
X11950000Y-96405000D03*
X8050000Y-97675000D03*
X11950000Y-97675000D03*
X8050000Y-98945000D03*
X11950000Y-98945000D03*
X8050000Y-100215000D03*
X11950000Y-100215000D03*
X8050000Y-101485000D03*
X11950000Y-101485000D03*
X8050000Y-102755000D03*
X11950000Y-102755000D03*
X8050000Y-104025000D03*
X11950000Y-104025000D03*
X8050000Y-105295000D03*
X11950000Y-105295000D03*
X8050000Y-106565000D03*
X11950000Y-106565000D03*
X8050000Y-107835000D03*
X11950000Y-107835000D03*
X8050000Y-109105000D03*
X11950000Y-109105000D03*
X8050000Y-110375000D03*
X11950000Y-110375000D03*
X8050000Y-111645000D03*
X11950000Y-111645000D03*
X8050000Y-112915000D03*
X11950000Y-112915000D03*
X8050000Y-114185000D03*
X11950000Y-114185000D03*
X8050000Y-115455000D03*
X11950000Y-115455000D03*
X8050000Y-116725000D03*
X11950000Y-116725000D03*
X8050000Y-117995000D03*
X11950000Y-117995000D03*
%TD*%
D25*
%TO.C,J7*%
X12250000Y-90455000D03*
X13050000Y-90455000D03*
D26*
X14250000Y-90455000D03*
X15250000Y-90455000D03*
X15750000Y-90455000D03*
X16750000Y-90455000D03*
D25*
X17950000Y-90455000D03*
X18750000Y-90455000D03*
X18750000Y-90455000D03*
X17950000Y-90455000D03*
D26*
X17250000Y-90455000D03*
X16250000Y-90455000D03*
X14750000Y-90455000D03*
X13750000Y-90455000D03*
D25*
X13050000Y-90455000D03*
X12250000Y-90455000D03*
%TD*%
D27*
%TO.C,L1*%
X27000000Y-94500000D03*
X37000000Y-94500000D03*
%TD*%
D28*
%TO.C,Q_DDC_1*%
X58562500Y-93550000D03*
X58562500Y-95450000D03*
X60437500Y-94500000D03*
%TD*%
%TO.C,Q_DDC_2*%
X64062500Y-93550000D03*
X64062500Y-95450000D03*
X65937500Y-94500000D03*
%TD*%
D29*
%TO.C,R1*%
X69990000Y-94500000D03*
X71010000Y-94500000D03*
%TD*%
%TO.C,R2*%
X75490000Y-94500000D03*
X76510000Y-94500000D03*
%TD*%
%TO.C,R3*%
X80990000Y-94500000D03*
X82010000Y-94500000D03*
%TD*%
%TO.C,R4*%
X86490000Y-94500000D03*
X87510000Y-94500000D03*
%TD*%
%TO.C,R5*%
X91990000Y-94500000D03*
X93010000Y-94500000D03*
%TD*%
%TO.C,R6*%
X9490000Y-100000000D03*
X10510000Y-100000000D03*
%TD*%
%TO.C,R7*%
X14990000Y-100000000D03*
X16010000Y-100000000D03*
%TD*%
%TO.C,R_BOOT0_PU*%
X20490000Y-100000000D03*
X21510000Y-100000000D03*
%TD*%
%TO.C,R_BOOT1_PU*%
X25990000Y-100000000D03*
X27010000Y-100000000D03*
%TD*%
%TO.C,R_BOOT2_PU*%
X31490000Y-100000000D03*
X32510000Y-100000000D03*
%TD*%
%TO.C,R_BS_J3_1*%
X36990000Y-100000000D03*
X38010000Y-100000000D03*
%TD*%
%TO.C,R_BS_J3_2*%
X42490000Y-100000000D03*
X43510000Y-100000000D03*
%TD*%
%TO.C,R_BS_J3_3*%
X47990000Y-100000000D03*
X49010000Y-100000000D03*
%TD*%
%TO.C,R_BS_J3_4*%
X53490000Y-100000000D03*
X54510000Y-100000000D03*
%TD*%
%TO.C,R_BS_J3_5*%
X58990000Y-100000000D03*
X60010000Y-100000000D03*
%TD*%
%TO.C,R_BS_J3_6*%
X64490000Y-100000000D03*
X65510000Y-100000000D03*
%TD*%
%TO.C,R_BS_J3_7*%
X69990000Y-100000000D03*
X71010000Y-100000000D03*
%TD*%
%TO.C,R_BS_J3_8*%
X75490000Y-100000000D03*
X76510000Y-100000000D03*
%TD*%
%TO.C,R_BS_J4_1*%
X80990000Y-100000000D03*
X82010000Y-100000000D03*
%TD*%
%TO.C,R_BS_J4_2*%
X86490000Y-100000000D03*
X87510000Y-100000000D03*
%TD*%
%TO.C,R_BS_J4_3*%
X91990000Y-100000000D03*
X93010000Y-100000000D03*
%TD*%
%TO.C,R_BS_J4_4*%
X9490000Y-105500000D03*
X10510000Y-105500000D03*
%TD*%
%TO.C,R_BS_J4_5*%
X14990000Y-105500000D03*
X16010000Y-105500000D03*
%TD*%
%TO.C,R_BS_J4_6*%
X20490000Y-105500000D03*
X21510000Y-105500000D03*
%TD*%
%TO.C,R_BS_J4_7*%
X25990000Y-105500000D03*
X27010000Y-105500000D03*
%TD*%
%TO.C,R_BS_J4_8*%
X31490000Y-105500000D03*
X32510000Y-105500000D03*
%TD*%
%TO.C,R_D1*%
X36990000Y-105500000D03*
X38010000Y-105500000D03*
%TD*%
%TO.C,R_D2*%
X42490000Y-105500000D03*
X43510000Y-105500000D03*
%TD*%
%TO.C,R_D3*%
X47990000Y-105500000D03*
X49010000Y-105500000D03*
%TD*%
%TO.C,R_D4*%
X53490000Y-105500000D03*
X54510000Y-105500000D03*
%TD*%
%TO.C,R_D5*%
X58990000Y-105500000D03*
X60010000Y-105500000D03*
%TD*%
%TO.C,R_DDC_G_1*%
X64490000Y-105500000D03*
X65510000Y-105500000D03*
%TD*%
%TO.C,R_DDC_G_2*%
X69990000Y-105500000D03*
X71010000Y-105500000D03*
%TD*%
%TO.C,R_DDC_HI_1*%
X75490000Y-105500000D03*
X76510000Y-105500000D03*
%TD*%
%TO.C,R_DDC_HI_2*%
X80990000Y-105500000D03*
X82010000Y-105500000D03*
%TD*%
%TO.C,R_DDC_LO_1*%
X86490000Y-105500000D03*
X87510000Y-105500000D03*
%TD*%
%TO.C,R_DDC_LO_2*%
X91990000Y-105500000D03*
X93010000Y-105500000D03*
%TD*%
%TO.C,R_DDC_SCL*%
X9490000Y-111000000D03*
X10510000Y-111000000D03*
%TD*%
%TO.C,R_DDC_SCL_SER*%
X14990000Y-111000000D03*
X16010000Y-111000000D03*
%TD*%
%TO.C,R_DDC_SDA*%
X20490000Y-111000000D03*
X21510000Y-111000000D03*
%TD*%
%TO.C,R_DDC_SDA_SER*%
X25990000Y-111000000D03*
X27010000Y-111000000D03*
%TD*%
%TO.C,R_E_OPT_1*%
X31490000Y-111000000D03*
X32510000Y-111000000D03*
%TD*%
%TO.C,R_E_OPT_2*%
X36990000Y-111000000D03*
X38010000Y-111000000D03*
%TD*%
%TO.C,R_E_OPT_3*%
X42490000Y-111000000D03*
X43510000Y-111000000D03*
%TD*%
%TO.C,R_E_OPT_4*%
X47990000Y-111000000D03*
X49010000Y-111000000D03*
%TD*%
%TO.C,R_HUB_BP*%
X53490000Y-111000000D03*
X54510000Y-111000000D03*
%TD*%
%TO.C,R_HUB_RST*%
X58990000Y-111000000D03*
X60010000Y-111000000D03*
%TD*%
%TO.C,R_I2C1_SCL_PU*%
X64490000Y-111000000D03*
X65510000Y-111000000D03*
%TD*%
%TO.C,R_I2C1_SDA_PU*%
X69990000Y-111000000D03*
X71010000Y-111000000D03*
%TD*%
%TO.C,R_ILIM_J10*%
X75490000Y-111000000D03*
X76510000Y-111000000D03*
%TD*%
%TO.C,R_ILIM_J11*%
X80990000Y-111000000D03*
X82010000Y-111000000D03*
%TD*%
%TO.C,R_ILIM_J8*%
X86490000Y-111000000D03*
X87510000Y-111000000D03*
%TD*%
%TO.C,R_ILIM_J9*%
X91990000Y-111000000D03*
X93010000Y-111000000D03*
%TD*%
%TO.C,R_INT_PU*%
X9490000Y-116500000D03*
X10510000Y-116500000D03*
%TD*%
%TO.C,R_M2M_PERST*%
X14990000Y-116500000D03*
X16010000Y-116500000D03*
%TD*%
%TO.C,R_MASKROM_PU*%
X20490000Y-116500000D03*
X21510000Y-116500000D03*
%TD*%
%TO.C,R_NVME_ACT_PU*%
X25990000Y-116500000D03*
X27010000Y-116500000D03*
%TD*%
%TO.C,R_PCIE0_TERM_N*%
X31490000Y-116500000D03*
X32510000Y-116500000D03*
%TD*%
%TO.C,R_PCIE0_TERM_P*%
X36990000Y-116500000D03*
X38010000Y-116500000D03*
%TD*%
%TO.C,R_POE_CLASS*%
X42490000Y-116500000D03*
X43510000Y-116500000D03*
%TD*%
%TO.C,R_POE_SIG*%
X47990000Y-116500000D03*
X49010000Y-116500000D03*
%TD*%
%TO.C,R_PU_PCIE0_CLKREQ*%
X53490000Y-116500000D03*
X54510000Y-116500000D03*
%TD*%
%TO.C,R_PU_PCIE0_PERST*%
X58990000Y-116500000D03*
X60010000Y-116500000D03*
%TD*%
%TO.C,R_PU_PCIE1_CLKREQ*%
X64490000Y-116500000D03*
X65510000Y-116500000D03*
%TD*%
%TO.C,R_PU_PCIE1_PERST*%
X69990000Y-116500000D03*
X71010000Y-116500000D03*
%TD*%
%TO.C,R_PWR_EN_DLY*%
X75490000Y-116500000D03*
X76510000Y-116500000D03*
%TD*%
%TO.C,R_RESET_PU*%
X80990000Y-116500000D03*
X82010000Y-116500000D03*
%TD*%
%TO.C,R_SCL_PU*%
X86490000Y-116500000D03*
X87510000Y-116500000D03*
%TD*%
%TO.C,R_SDA_PU*%
X91990000Y-116500000D03*
X93010000Y-116500000D03*
%TD*%
D30*
%TO.C,SW1*%
X6400000Y-120500000D03*
X13600000Y-120500000D03*
X6400000Y-123500000D03*
X13600000Y-123500000D03*
%TD*%
%TO.C,SW2*%
X11900000Y-120500000D03*
X19100000Y-120500000D03*
X11900000Y-123500000D03*
X19100000Y-123500000D03*
%TD*%
D31*
%TO.C,U10*%
X51750000Y-119750000D03*
X51750000Y-122000000D03*
X51750000Y-124250000D03*
X54000000Y-119750000D03*
X54000000Y-122000000D03*
X54000000Y-124250000D03*
X56250000Y-119750000D03*
X56250000Y-122000000D03*
X56250000Y-124250000D03*
D32*
X49200000Y-117800000D03*
X49200000Y-118200000D03*
X49200000Y-118600000D03*
X49200000Y-119000000D03*
X49200000Y-119400000D03*
X49200000Y-119800000D03*
X49200000Y-120200000D03*
X49200000Y-120600000D03*
X49200000Y-121000000D03*
X49200000Y-121400000D03*
X49200000Y-121800000D03*
X49200000Y-122200000D03*
X49200000Y-122600000D03*
X49200000Y-123000000D03*
X49200000Y-123400000D03*
X49200000Y-123800000D03*
X49200000Y-124200000D03*
X49200000Y-124600000D03*
X49200000Y-125000000D03*
X49200000Y-125400000D03*
X49200000Y-125800000D03*
X49200000Y-126200000D03*
D33*
X49800000Y-126800000D03*
X50200000Y-126800000D03*
X50600000Y-126800000D03*
X51000000Y-126800000D03*
X51400000Y-126800000D03*
X51800000Y-126800000D03*
X52200000Y-126800000D03*
X52600000Y-126800000D03*
X53000000Y-126800000D03*
X53400000Y-126800000D03*
X53800000Y-126800000D03*
X54200000Y-126800000D03*
X54600000Y-126800000D03*
X55000000Y-126800000D03*
X55400000Y-126800000D03*
X55800000Y-126800000D03*
X56200000Y-126800000D03*
X56600000Y-126800000D03*
X57000000Y-126800000D03*
X57400000Y-126800000D03*
X57800000Y-126800000D03*
X58200000Y-126800000D03*
D32*
X58800000Y-126200000D03*
X58800000Y-125800000D03*
X58800000Y-125400000D03*
X58800000Y-125000000D03*
X58800000Y-124600000D03*
X58800000Y-124200000D03*
X58800000Y-123800000D03*
X58800000Y-123400000D03*
X58800000Y-123000000D03*
X58800000Y-122600000D03*
X58800000Y-122200000D03*
X58800000Y-121800000D03*
X58800000Y-121400000D03*
X58800000Y-121000000D03*
X58800000Y-120600000D03*
X58800000Y-120200000D03*
X58800000Y-119800000D03*
X58800000Y-119400000D03*
X58800000Y-119000000D03*
X58800000Y-118600000D03*
X58800000Y-118200000D03*
X58800000Y-117800000D03*
D33*
X58200000Y-117200000D03*
X57800000Y-117200000D03*
X57400000Y-117200000D03*
X57000000Y-117200000D03*
X56600000Y-117200000D03*
X56200000Y-117200000D03*
X55800000Y-117200000D03*
X55400000Y-117200000D03*
X55000000Y-117200000D03*
X54600000Y-117200000D03*
X54200000Y-117200000D03*
X53800000Y-117200000D03*
X53400000Y-117200000D03*
X53000000Y-117200000D03*
X52600000Y-117200000D03*
X52200000Y-117200000D03*
X51800000Y-117200000D03*
X51400000Y-117200000D03*
X51000000Y-117200000D03*
X50600000Y-117200000D03*
X50200000Y-117200000D03*
X49800000Y-117200000D03*
%TD*%
D34*
%TO.C,U11*%
X58362500Y-121050000D03*
X58362500Y-122000000D03*
X58362500Y-122950000D03*
X60637500Y-122950000D03*
X60637500Y-122000000D03*
X60637500Y-121050000D03*
%TD*%
%TO.C,U12*%
X63862500Y-121050000D03*
X63862500Y-122000000D03*
X63862500Y-122950000D03*
X66137500Y-122950000D03*
X66137500Y-122000000D03*
X66137500Y-121050000D03*
%TD*%
%TO.C,U13*%
X69362500Y-121050000D03*
X69362500Y-122000000D03*
X69362500Y-122950000D03*
X71637500Y-122950000D03*
X71637500Y-122000000D03*
X71637500Y-121050000D03*
%TD*%
%TO.C,U14*%
X74862500Y-121050000D03*
X74862500Y-122000000D03*
X74862500Y-122950000D03*
X77137500Y-122950000D03*
X77137500Y-122000000D03*
X77137500Y-121050000D03*
%TD*%
D35*
%TO.C,U2*%
X79930000Y-120430000D03*
X79930000Y-122000000D03*
X79930000Y-123570000D03*
X81500000Y-120430000D03*
X81500000Y-122000000D03*
X81500000Y-123570000D03*
X83070000Y-120430000D03*
X83070000Y-122000000D03*
X83070000Y-123570000D03*
D36*
X77087500Y-118250000D03*
X77087500Y-118750000D03*
X77087500Y-119250000D03*
X77087500Y-119750000D03*
X77087500Y-120250000D03*
X77087500Y-120750000D03*
X77087500Y-121250000D03*
X77087500Y-121750000D03*
X77087500Y-122250000D03*
X77087500Y-122750000D03*
X77087500Y-123250000D03*
X77087500Y-123750000D03*
X77087500Y-124250000D03*
X77087500Y-124750000D03*
X77087500Y-125250000D03*
X77087500Y-125750000D03*
D37*
X77750000Y-126412500D03*
X78250000Y-126412500D03*
X78750000Y-126412500D03*
X79250000Y-126412500D03*
X79750000Y-126412500D03*
X80250000Y-126412500D03*
X80750000Y-126412500D03*
X81250000Y-126412500D03*
X81750000Y-126412500D03*
X82250000Y-126412500D03*
X82750000Y-126412500D03*
X83250000Y-126412500D03*
X83750000Y-126412500D03*
X84250000Y-126412500D03*
X84750000Y-126412500D03*
X85250000Y-126412500D03*
D36*
X85912500Y-125750000D03*
X85912500Y-125250000D03*
X85912500Y-124750000D03*
X85912500Y-124250000D03*
X85912500Y-123750000D03*
X85912500Y-123250000D03*
X85912500Y-122750000D03*
X85912500Y-122250000D03*
X85912500Y-121750000D03*
X85912500Y-121250000D03*
X85912500Y-120750000D03*
X85912500Y-120250000D03*
X85912500Y-119750000D03*
X85912500Y-119250000D03*
X85912500Y-118750000D03*
X85912500Y-118250000D03*
D37*
X85250000Y-117587500D03*
X84750000Y-117587500D03*
X84250000Y-117587500D03*
X83750000Y-117587500D03*
X83250000Y-117587500D03*
X82750000Y-117587500D03*
X82250000Y-117587500D03*
X81750000Y-117587500D03*
X81250000Y-117587500D03*
X80750000Y-117587500D03*
X80250000Y-117587500D03*
X79750000Y-117587500D03*
X79250000Y-117587500D03*
X78750000Y-117587500D03*
X78250000Y-117587500D03*
X77750000Y-117587500D03*
%TD*%
D38*
%TO.C,U3*%
X86287500Y-121500000D03*
X86287500Y-122000000D03*
X86287500Y-122500000D03*
X87712500Y-122500000D03*
X87712500Y-122000000D03*
X87712500Y-121500000D03*
%TD*%
D34*
%TO.C,U4*%
X91362500Y-121050000D03*
X91362500Y-122000000D03*
X91362500Y-122950000D03*
X93637500Y-122950000D03*
X93637500Y-121050000D03*
%TD*%
D39*
%TO.C,U5*%
X7800000Y-126500000D03*
X7800000Y-127000000D03*
X7800000Y-127500000D03*
X7800000Y-128000000D03*
X7800000Y-128500000D03*
X12200000Y-128500000D03*
X12200000Y-128000000D03*
X12200000Y-127500000D03*
X12200000Y-127000000D03*
X12200000Y-126500000D03*
%TD*%
D40*
%TO.C,U6*%
X13025000Y-123055000D03*
X13025000Y-124325000D03*
X13025000Y-125595000D03*
X13025000Y-126865000D03*
X13025000Y-128135000D03*
X13025000Y-129405000D03*
X13025000Y-130675000D03*
X13025000Y-131945000D03*
X17975000Y-131945000D03*
X17975000Y-130675000D03*
X17975000Y-129405000D03*
X17975000Y-128135000D03*
X17975000Y-126865000D03*
X17975000Y-125595000D03*
X17975000Y-124325000D03*
X17975000Y-123055000D03*
%TD*%
%TO.C,U7*%
X18525000Y-125595000D03*
X18525000Y-126865000D03*
X18525000Y-128135000D03*
X18525000Y-129405000D03*
X23475000Y-129405000D03*
X23475000Y-128135000D03*
X23475000Y-126865000D03*
X23475000Y-125595000D03*
%TD*%
D34*
%TO.C,U_HDMI_ESD_1*%
X25362500Y-126550000D03*
X25362500Y-127500000D03*
X25362500Y-128450000D03*
X27637500Y-128450000D03*
X27637500Y-127500000D03*
X27637500Y-126550000D03*
%TD*%
%TO.C,U_HDMI_ESD_2*%
X30862500Y-126550000D03*
X30862500Y-127500000D03*
X30862500Y-128450000D03*
X33137500Y-128450000D03*
X33137500Y-127500000D03*
X33137500Y-126550000D03*
%TD*%
%TO.C,U_HDMI_ESD_3*%
X36362500Y-126550000D03*
X36362500Y-127500000D03*
X36362500Y-128450000D03*
X38637500Y-128450000D03*
X38637500Y-127500000D03*
X38637500Y-126550000D03*
%TD*%
%TO.C,U_HDMI_ESD_4*%
X41862500Y-126550000D03*
X41862500Y-127500000D03*
X41862500Y-128450000D03*
X44137500Y-128450000D03*
X44137500Y-127500000D03*
X44137500Y-126550000D03*
%TD*%
D41*
%TO.C,Y1*%
X47400000Y-128350000D03*
X49600000Y-128350000D03*
X49600000Y-126650000D03*
X47400000Y-126650000D03*
%TD*%
%TO.C,Y_HUB*%
X52900000Y-128350000D03*
X55100000Y-128350000D03*
X55100000Y-126650000D03*
X52900000Y-126650000D03*
%TD*%
M02*
