M48
; DRILL file KiCad 10.0.4 date 2026-07-08T20:03:10
; FORMAT={-:-/ absolute / metric / decimal}
; #@! TF.CreationDate,2026-07-08T20:03:10+00:00
; #@! TF.GenerationSoftware,Kicad,Pcbnew,10.0.4
; #@! TF.FileFunction,Plated,1,4,PTH
FMAT,2
METRIC
; #@! TA.AperFunction,Plated,PTH,ComponentDrill
T1C0.600
; #@! TA.AperFunction,Plated,PTH,ComponentDrill
T2C0.700
; #@! TA.AperFunction,Plated,PTH,ComponentDrill
T3C0.800
; #@! TA.AperFunction,Plated,PTH,ComponentDrill
T4C0.890
; #@! TA.AperFunction,Plated,PTH,ComponentDrill
T5C0.900
; #@! TA.AperFunction,Plated,PTH,ComponentDrill
T6C1.000
; #@! TA.AperFunction,Plated,PTH,ComponentDrill
T7C1.570
%
G90
G05
T2
X20.5Y-93.0
X21.0Y-94.5
X22.5Y-93.0
X23.5Y-94.5
X24.5Y-93.0
X25.5Y-94.5
X26.0Y-93.0
X26.5Y-93.0
X26.5Y-94.5
X28.0Y-93.0
X28.0Y-94.5
X28.5Y-93.0
X29.0Y-94.5
X30.0Y-93.0
X31.0Y-94.5
X32.0Y-93.0
X33.5Y-94.5
X34.0Y-93.0
X48.0Y-87.5
X48.5Y-89.0
X50.0Y-87.5
X51.0Y-89.0
X52.0Y-87.5
X53.0Y-89.0
X53.5Y-87.5
X54.0Y-87.5
X54.0Y-89.0
X55.5Y-87.5
X55.5Y-89.0
X56.0Y-87.5
X56.5Y-89.0
X57.5Y-87.5
X58.5Y-89.0
X59.5Y-87.5
X61.0Y-89.0
X61.5Y-87.5
T3
X21.0Y-122.0
X21.0Y-124.54
X21.0Y-127.08
X21.0Y-129.62
X28.62Y-122.0
X28.62Y-124.54
X28.62Y-127.08
X28.62Y-129.62
T4
X78.2Y-95.6
X80.49Y-95.6
X81.5Y-89.0
X82.516Y-90.78
X83.532Y-89.0
X83.7Y-95.6
X84.548Y-90.78
X85.564Y-89.0
X85.99Y-95.6
X86.58Y-90.78
X87.0Y-89.0
X87.596Y-89.0
X88.016Y-90.78
X88.612Y-90.78
X89.032Y-89.0
X89.63Y-95.6
X90.048Y-90.78
X91.064Y-89.0
X91.92Y-95.6
X92.08Y-90.78
X93.096Y-89.0
X93.95Y-95.6
X94.112Y-90.78
X95.13Y-95.6
X96.24Y-95.6
X97.25Y-89.0
X97.42Y-95.6
X98.266Y-90.78
X99.282Y-89.0
X99.45Y-95.6
X100.298Y-90.78
X101.314Y-89.0
X101.74Y-95.6
X102.33Y-90.78
X102.75Y-89.0
X103.346Y-89.0
X103.766Y-90.78
X104.362Y-90.78
X104.782Y-89.0
X105.38Y-95.6
X105.798Y-90.78
X106.814Y-89.0
X107.67Y-95.6
X107.83Y-90.78
X108.846Y-89.0
X109.862Y-90.78
X110.88Y-95.6
X113.17Y-95.6
T6
X65.0Y-89.0
X65.0Y-91.54
X65.0Y-94.08
X65.0Y-96.62
X65.0Y-99.16
X65.0Y-101.7
X65.0Y-104.24
X65.0Y-106.78
X65.0Y-109.32
X65.0Y-111.86
X65.0Y-114.4
X65.0Y-116.94
X65.0Y-119.48
X65.0Y-122.02
X65.0Y-124.56
X65.0Y-127.1
X65.0Y-129.64
X65.0Y-132.18
X65.0Y-134.72
X65.0Y-137.26
X67.54Y-89.0
X67.54Y-91.54
X67.54Y-94.08
X67.54Y-96.62
X67.54Y-99.16
X67.54Y-101.7
X67.54Y-104.24
X67.54Y-106.78
X67.54Y-109.32
X67.54Y-111.86
X67.54Y-114.4
X67.54Y-116.94
X67.54Y-119.48
X67.54Y-122.02
X67.54Y-124.56
X67.54Y-127.1
X67.54Y-129.64
X67.54Y-132.18
X67.54Y-134.72
X67.54Y-137.26
X70.5Y-89.0
X70.5Y-91.54
X70.5Y-94.08
X70.5Y-96.62
T7
X76.93Y-89.89
X82.43Y-89.89
X108.93Y-89.89
X114.43Y-89.89
T1
X11.18Y-90.82G85X11.18Y-91.92
G05
X11.18Y-95.25G85X11.18Y-95.85
G05
X18.1Y-93.2G85X18.1Y-94.3
G05
X18.1Y-101.85G85X18.1Y-102.65
G05
X19.82Y-90.82G85X19.82Y-91.92
G05
X19.82Y-95.25G85X19.82Y-95.85
G05
X23.6Y-93.2G85X23.6Y-94.3
G05
X23.6Y-101.85G85X23.6Y-102.65
G05
X30.9Y-93.2G85X30.9Y-94.3
G05
X30.9Y-101.85G85X30.9Y-102.65
G05
X36.4Y-93.2G85X36.4Y-94.3
G05
X36.4Y-101.85G85X36.4Y-102.65
G05
X45.6Y-87.7G85X45.6Y-88.8
G05
X45.6Y-96.35G85X45.6Y-97.15
G05
X51.1Y-87.7G85X51.1Y-88.8
G05
X51.1Y-96.35G85X51.1Y-97.15
G05
X58.4Y-87.7G85X58.4Y-88.8
G05
X58.4Y-96.35G85X58.4Y-97.15
G05
X63.9Y-87.7G85X63.9Y-88.8
G05
X63.9Y-96.35G85X63.9Y-97.15
G05
T5
X56.075Y-81.75G85X57.875Y-81.75
G05
X56.075Y-96.25G85X57.875Y-96.25
G05
X62.535Y-81.75G85X63.335Y-81.75
G05
X62.535Y-96.25G85X63.335Y-96.25
G05
M30
