%TF.GenerationSoftware,KiCad,Pcbnew,10.0.4*%
%TF.CreationDate,2026-07-08T20:02:53+00:00*%
%TF.ProjectId,NodePad,4e6f6465-5061-4642-9e6b-696361645f70,0.1*%
%TF.SameCoordinates,Original*%
%TF.FileFunction,Legend,Bot*%
%TF.FilePolarity,Positive*%
%FSLAX46Y46*%
G04 Gerber Fmt 4.6, Leading zero omitted, Abs format (unit mm)*
G04 Created by KiCad (PCBNEW 10.0.4) date 2026-07-08 20:02:53*
%MOMM*%
%LPD*%
G01*
G04 APERTURE LIST*
G04 Aperture macros list*
%AMRoundRect*
0 Rectangle with rounded corners*
0 $1 Rounding radius*
0 $2 $3 $4 $5 $6 $7 $8 $9 X,Y pos of 4 corners*
0 Add a 4 corners polygon primitive as box body*
4,1,4,$2,$3,$4,$5,$6,$7,$8,$9,$2,$3,0*
0 Add four circle primitives for the rounded corners*
1,1,$1+$1,$2,$3*
1,1,$1+$1,$4,$5*
1,1,$1+$1,$6,$7*
1,1,$1+$1,$8,$9*
0 Add four rect primitives between the rounded corners*
20,1,$1+$1,$2,$3,$4,$5,0*
20,1,$1+$1,$4,$5,$6,$7,0*
20,1,$1+$1,$6,$7,$8,$9,0*
20,1,$1+$1,$8,$9,$2,$3,0*%
G04 Aperture macros list end*
%ADD10C,0.300000*%
%ADD11C,0.150000*%
%ADD12RoundRect,0.250000X-0.350000X-0.350000X0.350000X-0.350000X0.350000X0.350000X-0.350000X0.350000X0*%
%ADD13C,1.200000*%
%ADD14O,1.200000X2.400000*%
%ADD15O,1.200000X2.100000*%
%ADD16O,3.300000X1.500000*%
%ADD17O,2.300000X1.500000*%
%ADD18R,1.700000X1.700000*%
%ADD19O,1.700000X1.700000*%
%ADD20C,3.250000*%
%ADD21R,1.500000X1.500000*%
%ADD22C,1.500000*%
%ADD23C,2.300000*%
%ADD24C,0.650000*%
%ADD25O,1.000000X2.100000*%
%ADD26O,1.000000X1.600000*%
%ADD27C,2.700000*%
%ADD28RoundRect,0.250000X-0.550000X-0.550000X0.550000X-0.550000X0.550000X0.550000X-0.550000X0.550000X0*%
%ADD29C,1.600000*%
G04 APERTURE END LIST*
D10*
X65142858Y-7644400D02*
X64857144Y-7739638D01*
X64857144Y-7739638D02*
X64380953Y-7739638D01*
X64380953Y-7739638D02*
X64190477Y-7644400D01*
X64190477Y-7644400D02*
X64095239Y-7549161D01*
X64095239Y-7549161D02*
X64000001Y-7358685D01*
X64000001Y-7358685D02*
X64000001Y-7168209D01*
X64000001Y-7168209D02*
X64095239Y-6977733D01*
X64095239Y-6977733D02*
X64190477Y-6882495D01*
X64190477Y-6882495D02*
X64380953Y-6787257D01*
X64380953Y-6787257D02*
X64761906Y-6692019D01*
X64761906Y-6692019D02*
X64952382Y-6596780D01*
X64952382Y-6596780D02*
X65047620Y-6501542D01*
X65047620Y-6501542D02*
X65142858Y-6311066D01*
X65142858Y-6311066D02*
X65142858Y-6120590D01*
X65142858Y-6120590D02*
X65047620Y-5930114D01*
X65047620Y-5930114D02*
X64952382Y-5834876D01*
X64952382Y-5834876D02*
X64761906Y-5739638D01*
X64761906Y-5739638D02*
X64285715Y-5739638D01*
X64285715Y-5739638D02*
X64000001Y-5834876D01*
X62285715Y-7739638D02*
X62285715Y-6692019D01*
X62285715Y-6692019D02*
X62380953Y-6501542D01*
X62380953Y-6501542D02*
X62571429Y-6406304D01*
X62571429Y-6406304D02*
X62952382Y-6406304D01*
X62952382Y-6406304D02*
X63142858Y-6501542D01*
X62285715Y-7644400D02*
X62476191Y-7739638D01*
X62476191Y-7739638D02*
X62952382Y-7739638D01*
X62952382Y-7739638D02*
X63142858Y-7644400D01*
X63142858Y-7644400D02*
X63238096Y-7453923D01*
X63238096Y-7453923D02*
X63238096Y-7263447D01*
X63238096Y-7263447D02*
X63142858Y-7072971D01*
X63142858Y-7072971D02*
X62952382Y-6977733D01*
X62952382Y-6977733D02*
X62476191Y-6977733D01*
X62476191Y-6977733D02*
X62285715Y-6882495D01*
X61333334Y-7739638D02*
X61333334Y-6406304D01*
X61333334Y-6596780D02*
X61238096Y-6501542D01*
X61238096Y-6501542D02*
X61047620Y-6406304D01*
X61047620Y-6406304D02*
X60761905Y-6406304D01*
X60761905Y-6406304D02*
X60571429Y-6501542D01*
X60571429Y-6501542D02*
X60476191Y-6692019D01*
X60476191Y-6692019D02*
X60476191Y-7739638D01*
X60476191Y-6692019D02*
X60380953Y-6501542D01*
X60380953Y-6501542D02*
X60190477Y-6406304D01*
X60190477Y-6406304D02*
X59904763Y-6406304D01*
X59904763Y-6406304D02*
X59714286Y-6501542D01*
X59714286Y-6501542D02*
X59619048Y-6692019D01*
X59619048Y-6692019D02*
X59619048Y-7739638D01*
X58666667Y-7739638D02*
X58666667Y-6406304D01*
X58666667Y-6787257D02*
X58571429Y-6596780D01*
X58571429Y-6596780D02*
X58476191Y-6501542D01*
X58476191Y-6501542D02*
X58285715Y-6406304D01*
X58285715Y-6406304D02*
X58095238Y-6406304D01*
X56571429Y-7739638D02*
X56571429Y-6692019D01*
X56571429Y-6692019D02*
X56666667Y-6501542D01*
X56666667Y-6501542D02*
X56857143Y-6406304D01*
X56857143Y-6406304D02*
X57238096Y-6406304D01*
X57238096Y-6406304D02*
X57428572Y-6501542D01*
X56571429Y-7644400D02*
X56761905Y-7739638D01*
X56761905Y-7739638D02*
X57238096Y-7739638D01*
X57238096Y-7739638D02*
X57428572Y-7644400D01*
X57428572Y-7644400D02*
X57523810Y-7453923D01*
X57523810Y-7453923D02*
X57523810Y-7263447D01*
X57523810Y-7263447D02*
X57428572Y-7072971D01*
X57428572Y-7072971D02*
X57238096Y-6977733D01*
X57238096Y-6977733D02*
X56761905Y-6977733D01*
X56761905Y-6977733D02*
X56571429Y-6882495D01*
X55904762Y-6406304D02*
X55142858Y-6406304D01*
X55619048Y-5739638D02*
X55619048Y-7453923D01*
X55619048Y-7453923D02*
X55523810Y-7644400D01*
X55523810Y-7644400D02*
X55333334Y-7739638D01*
X55333334Y-7739638D02*
X55142858Y-7739638D01*
X54476191Y-7739638D02*
X54476191Y-5739638D01*
X53619048Y-7739638D02*
X53619048Y-6692019D01*
X53619048Y-6692019D02*
X53714286Y-6501542D01*
X53714286Y-6501542D02*
X53904762Y-6406304D01*
X53904762Y-6406304D02*
X54190477Y-6406304D01*
X54190477Y-6406304D02*
X54380953Y-6501542D01*
X54380953Y-6501542D02*
X54476191Y-6596780D01*
X51238095Y-7644400D02*
X50952381Y-7739638D01*
X50952381Y-7739638D02*
X50476190Y-7739638D01*
X50476190Y-7739638D02*
X50285714Y-7644400D01*
X50285714Y-7644400D02*
X50190476Y-7549161D01*
X50190476Y-7549161D02*
X50095238Y-7358685D01*
X50095238Y-7358685D02*
X50095238Y-7168209D01*
X50095238Y-7168209D02*
X50190476Y-6977733D01*
X50190476Y-6977733D02*
X50285714Y-6882495D01*
X50285714Y-6882495D02*
X50476190Y-6787257D01*
X50476190Y-6787257D02*
X50857143Y-6692019D01*
X50857143Y-6692019D02*
X51047619Y-6596780D01*
X51047619Y-6596780D02*
X51142857Y-6501542D01*
X51142857Y-6501542D02*
X51238095Y-6311066D01*
X51238095Y-6311066D02*
X51238095Y-6120590D01*
X51238095Y-6120590D02*
X51142857Y-5930114D01*
X51142857Y-5930114D02*
X51047619Y-5834876D01*
X51047619Y-5834876D02*
X50857143Y-5739638D01*
X50857143Y-5739638D02*
X50380952Y-5739638D01*
X50380952Y-5739638D02*
X50095238Y-5834876D01*
X48380952Y-7739638D02*
X48380952Y-6692019D01*
X48380952Y-6692019D02*
X48476190Y-6501542D01*
X48476190Y-6501542D02*
X48666666Y-6406304D01*
X48666666Y-6406304D02*
X49047619Y-6406304D01*
X49047619Y-6406304D02*
X49238095Y-6501542D01*
X48380952Y-7644400D02*
X48571428Y-7739638D01*
X48571428Y-7739638D02*
X49047619Y-7739638D01*
X49047619Y-7739638D02*
X49238095Y-7644400D01*
X49238095Y-7644400D02*
X49333333Y-7453923D01*
X49333333Y-7453923D02*
X49333333Y-7263447D01*
X49333333Y-7263447D02*
X49238095Y-7072971D01*
X49238095Y-7072971D02*
X49047619Y-6977733D01*
X49047619Y-6977733D02*
X48571428Y-6977733D01*
X48571428Y-6977733D02*
X48380952Y-6882495D01*
X47428571Y-7739638D02*
X47428571Y-6406304D01*
X47428571Y-6596780D02*
X47333333Y-6501542D01*
X47333333Y-6501542D02*
X47142857Y-6406304D01*
X47142857Y-6406304D02*
X46857142Y-6406304D01*
X46857142Y-6406304D02*
X46666666Y-6501542D01*
X46666666Y-6501542D02*
X46571428Y-6692019D01*
X46571428Y-6692019D02*
X46571428Y-7739638D01*
X46571428Y-6692019D02*
X46476190Y-6501542D01*
X46476190Y-6501542D02*
X46285714Y-6406304D01*
X46285714Y-6406304D02*
X46000000Y-6406304D01*
X46000000Y-6406304D02*
X45809523Y-6501542D01*
X45809523Y-6501542D02*
X45714285Y-6692019D01*
X45714285Y-6692019D02*
X45714285Y-7739638D01*
X44761904Y-7739638D02*
X44761904Y-6406304D01*
X44761904Y-5739638D02*
X44857142Y-5834876D01*
X44857142Y-5834876D02*
X44761904Y-5930114D01*
X44761904Y-5930114D02*
X44666666Y-5834876D01*
X44666666Y-5834876D02*
X44761904Y-5739638D01*
X44761904Y-5739638D02*
X44761904Y-5930114D01*
X42380951Y-7644400D02*
X42095237Y-7739638D01*
X42095237Y-7739638D02*
X41619046Y-7739638D01*
X41619046Y-7739638D02*
X41428570Y-7644400D01*
X41428570Y-7644400D02*
X41333332Y-7549161D01*
X41333332Y-7549161D02*
X41238094Y-7358685D01*
X41238094Y-7358685D02*
X41238094Y-7168209D01*
X41238094Y-7168209D02*
X41333332Y-6977733D01*
X41333332Y-6977733D02*
X41428570Y-6882495D01*
X41428570Y-6882495D02*
X41619046Y-6787257D01*
X41619046Y-6787257D02*
X41999999Y-6692019D01*
X41999999Y-6692019D02*
X42190475Y-6596780D01*
X42190475Y-6596780D02*
X42285713Y-6501542D01*
X42285713Y-6501542D02*
X42380951Y-6311066D01*
X42380951Y-6311066D02*
X42380951Y-6120590D01*
X42380951Y-6120590D02*
X42285713Y-5930114D01*
X42285713Y-5930114D02*
X42190475Y-5834876D01*
X42190475Y-5834876D02*
X41999999Y-5739638D01*
X41999999Y-5739638D02*
X41523808Y-5739638D01*
X41523808Y-5739638D02*
X41238094Y-5834876D01*
X40380951Y-7739638D02*
X40380951Y-6406304D01*
X40380951Y-5739638D02*
X40476189Y-5834876D01*
X40476189Y-5834876D02*
X40380951Y-5930114D01*
X40380951Y-5930114D02*
X40285713Y-5834876D01*
X40285713Y-5834876D02*
X40380951Y-5739638D01*
X40380951Y-5739638D02*
X40380951Y-5930114D01*
X39428570Y-6406304D02*
X39428570Y-7739638D01*
X39428570Y-6596780D02*
X39333332Y-6501542D01*
X39333332Y-6501542D02*
X39142856Y-6406304D01*
X39142856Y-6406304D02*
X38857141Y-6406304D01*
X38857141Y-6406304D02*
X38666665Y-6501542D01*
X38666665Y-6501542D02*
X38571427Y-6692019D01*
X38571427Y-6692019D02*
X38571427Y-7739638D01*
X36761903Y-6406304D02*
X36761903Y-8025352D01*
X36761903Y-8025352D02*
X36857141Y-8215828D01*
X36857141Y-8215828D02*
X36952379Y-8311066D01*
X36952379Y-8311066D02*
X37142856Y-8406304D01*
X37142856Y-8406304D02*
X37428570Y-8406304D01*
X37428570Y-8406304D02*
X37619046Y-8311066D01*
X36761903Y-7644400D02*
X36952379Y-7739638D01*
X36952379Y-7739638D02*
X37333332Y-7739638D01*
X37333332Y-7739638D02*
X37523808Y-7644400D01*
X37523808Y-7644400D02*
X37619046Y-7549161D01*
X37619046Y-7549161D02*
X37714284Y-7358685D01*
X37714284Y-7358685D02*
X37714284Y-6787257D01*
X37714284Y-6787257D02*
X37619046Y-6596780D01*
X37619046Y-6596780D02*
X37523808Y-6501542D01*
X37523808Y-6501542D02*
X37333332Y-6406304D01*
X37333332Y-6406304D02*
X36952379Y-6406304D01*
X36952379Y-6406304D02*
X36761903Y-6501542D01*
X35809522Y-7739638D02*
X35809522Y-5739638D01*
X34952379Y-7739638D02*
X34952379Y-6692019D01*
X34952379Y-6692019D02*
X35047617Y-6501542D01*
X35047617Y-6501542D02*
X35238093Y-6406304D01*
X35238093Y-6406304D02*
X35523808Y-6406304D01*
X35523808Y-6406304D02*
X35714284Y-6501542D01*
X35714284Y-6501542D02*
X35809522Y-6596780D01*
D11*
X63422619Y-11774580D02*
X63476191Y-11822200D01*
X63476191Y-11822200D02*
X63625000Y-11869819D01*
X63625000Y-11869819D02*
X63720238Y-11869819D01*
X63720238Y-11869819D02*
X63857143Y-11822200D01*
X63857143Y-11822200D02*
X63940476Y-11726961D01*
X63940476Y-11726961D02*
X63976191Y-11631723D01*
X63976191Y-11631723D02*
X64000000Y-11441247D01*
X64000000Y-11441247D02*
X63982143Y-11298390D01*
X63982143Y-11298390D02*
X63910715Y-11107914D01*
X63910715Y-11107914D02*
X63851191Y-11012676D01*
X63851191Y-11012676D02*
X63744048Y-10917438D01*
X63744048Y-10917438D02*
X63595238Y-10869819D01*
X63595238Y-10869819D02*
X63500000Y-10869819D01*
X63500000Y-10869819D02*
X63363096Y-10917438D01*
X63363096Y-10917438D02*
X63321429Y-10965057D01*
X62940476Y-11346009D02*
X62607143Y-11346009D01*
X62529762Y-11869819D02*
X63005953Y-11869819D01*
X63005953Y-11869819D02*
X62880953Y-10869819D01*
X62880953Y-10869819D02*
X62404762Y-10869819D01*
X61529762Y-11869819D02*
X61803572Y-11393628D01*
X62101191Y-11869819D02*
X61976191Y-10869819D01*
X61976191Y-10869819D02*
X61595238Y-10869819D01*
X61595238Y-10869819D02*
X61505953Y-10917438D01*
X61505953Y-10917438D02*
X61464286Y-10965057D01*
X61464286Y-10965057D02*
X61428572Y-11060295D01*
X61428572Y-11060295D02*
X61446429Y-11203152D01*
X61446429Y-11203152D02*
X61505953Y-11298390D01*
X61505953Y-11298390D02*
X61559524Y-11346009D01*
X61559524Y-11346009D02*
X61660714Y-11393628D01*
X61660714Y-11393628D02*
X62041667Y-11393628D01*
X61101191Y-11869819D02*
X60976191Y-10869819D01*
X60976191Y-10869819D02*
X60529762Y-11869819D01*
X60529762Y-11869819D02*
X60404762Y-10869819D01*
X60005953Y-11488866D02*
X59244048Y-11488866D01*
X58500000Y-10869819D02*
X58309524Y-10869819D01*
X58309524Y-10869819D02*
X58220239Y-10917438D01*
X58220239Y-10917438D02*
X58136905Y-11012676D01*
X58136905Y-11012676D02*
X58113096Y-11203152D01*
X58113096Y-11203152D02*
X58154762Y-11536485D01*
X58154762Y-11536485D02*
X58226191Y-11726961D01*
X58226191Y-11726961D02*
X58333334Y-11822200D01*
X58333334Y-11822200D02*
X58434524Y-11869819D01*
X58434524Y-11869819D02*
X58625000Y-11869819D01*
X58625000Y-11869819D02*
X58714286Y-11822200D01*
X58714286Y-11822200D02*
X58797620Y-11726961D01*
X58797620Y-11726961D02*
X58821429Y-11536485D01*
X58821429Y-11536485D02*
X58779762Y-11203152D01*
X58779762Y-11203152D02*
X58708334Y-11012676D01*
X58708334Y-11012676D02*
X58601191Y-10917438D01*
X58601191Y-10917438D02*
X58500000Y-10869819D01*
X57767858Y-11869819D02*
X57642858Y-10869819D01*
X57702381Y-11346009D02*
X57130953Y-11346009D01*
X57196429Y-11869819D02*
X57071429Y-10869819D01*
X56244048Y-11869819D02*
X56720239Y-11869819D01*
X56720239Y-11869819D02*
X56595239Y-10869819D01*
X55863096Y-11488866D02*
X55101191Y-11488866D01*
X54672620Y-11869819D02*
X54547620Y-10869819D01*
X54547620Y-10869819D02*
X54166667Y-10869819D01*
X54166667Y-10869819D02*
X54077382Y-10917438D01*
X54077382Y-10917438D02*
X54035715Y-10965057D01*
X54035715Y-10965057D02*
X54000001Y-11060295D01*
X54000001Y-11060295D02*
X54017858Y-11203152D01*
X54017858Y-11203152D02*
X54077382Y-11298390D01*
X54077382Y-11298390D02*
X54130953Y-11346009D01*
X54130953Y-11346009D02*
X54232143Y-11393628D01*
X54232143Y-11393628D02*
X54613096Y-11393628D01*
X52922619Y-11203152D02*
X52767858Y-11869819D01*
X52767858Y-11869819D02*
X52446429Y-11203152D01*
X52083333Y-10965057D02*
X52029762Y-10917438D01*
X52029762Y-10917438D02*
X51928572Y-10869819D01*
X51928572Y-10869819D02*
X51690476Y-10869819D01*
X51690476Y-10869819D02*
X51601191Y-10917438D01*
X51601191Y-10917438D02*
X51559524Y-10965057D01*
X51559524Y-10965057D02*
X51523810Y-11060295D01*
X51523810Y-11060295D02*
X51535714Y-11155533D01*
X51535714Y-11155533D02*
X51601191Y-11298390D01*
X51601191Y-11298390D02*
X52244048Y-11869819D01*
X52244048Y-11869819D02*
X51625000Y-11869819D01*
X49625000Y-11488866D02*
X48863095Y-11488866D01*
X46910714Y-11869819D02*
X46785714Y-10869819D01*
X46785714Y-10869819D02*
X46541666Y-11584104D01*
X46541666Y-11584104D02*
X46119047Y-10869819D01*
X46119047Y-10869819D02*
X46244047Y-11869819D01*
X45339285Y-11869819D02*
X45273809Y-11346009D01*
X45273809Y-11346009D02*
X45309523Y-11250771D01*
X45309523Y-11250771D02*
X45398809Y-11203152D01*
X45398809Y-11203152D02*
X45589285Y-11203152D01*
X45589285Y-11203152D02*
X45690476Y-11250771D01*
X45333333Y-11822200D02*
X45434523Y-11869819D01*
X45434523Y-11869819D02*
X45672619Y-11869819D01*
X45672619Y-11869819D02*
X45761904Y-11822200D01*
X45761904Y-11822200D02*
X45797619Y-11726961D01*
X45797619Y-11726961D02*
X45785714Y-11631723D01*
X45785714Y-11631723D02*
X45726190Y-11536485D01*
X45726190Y-11536485D02*
X45625000Y-11488866D01*
X45625000Y-11488866D02*
X45386904Y-11488866D01*
X45386904Y-11488866D02*
X45285714Y-11441247D01*
X44434523Y-11869819D02*
X44309523Y-10869819D01*
X44428571Y-11822200D02*
X44529761Y-11869819D01*
X44529761Y-11869819D02*
X44720238Y-11869819D01*
X44720238Y-11869819D02*
X44809523Y-11822200D01*
X44809523Y-11822200D02*
X44851190Y-11774580D01*
X44851190Y-11774580D02*
X44886904Y-11679342D01*
X44886904Y-11679342D02*
X44851190Y-11393628D01*
X44851190Y-11393628D02*
X44791666Y-11298390D01*
X44791666Y-11298390D02*
X44738095Y-11250771D01*
X44738095Y-11250771D02*
X44636904Y-11203152D01*
X44636904Y-11203152D02*
X44446428Y-11203152D01*
X44446428Y-11203152D02*
X44357142Y-11250771D01*
X43571428Y-11822200D02*
X43672618Y-11869819D01*
X43672618Y-11869819D02*
X43863095Y-11869819D01*
X43863095Y-11869819D02*
X43952380Y-11822200D01*
X43952380Y-11822200D02*
X43988095Y-11726961D01*
X43988095Y-11726961D02*
X43940476Y-11346009D01*
X43940476Y-11346009D02*
X43880952Y-11250771D01*
X43880952Y-11250771D02*
X43779761Y-11203152D01*
X43779761Y-11203152D02*
X43589285Y-11203152D01*
X43589285Y-11203152D02*
X43499999Y-11250771D01*
X43499999Y-11250771D02*
X43464285Y-11346009D01*
X43464285Y-11346009D02*
X43476190Y-11441247D01*
X43476190Y-11441247D02*
X43964285Y-11536485D01*
X42351189Y-11203152D02*
X42244047Y-11869819D01*
X42244047Y-11869819D02*
X41994047Y-11393628D01*
X41994047Y-11393628D02*
X41863094Y-11869819D01*
X41863094Y-11869819D02*
X41589285Y-11203152D01*
X41291666Y-11869819D02*
X41208332Y-11203152D01*
X41166666Y-10869819D02*
X41220237Y-10917438D01*
X41220237Y-10917438D02*
X41178570Y-10965057D01*
X41178570Y-10965057D02*
X41124999Y-10917438D01*
X41124999Y-10917438D02*
X41166666Y-10869819D01*
X41166666Y-10869819D02*
X41178570Y-10965057D01*
X40874999Y-11203152D02*
X40494047Y-11203152D01*
X40690476Y-10869819D02*
X40797619Y-11726961D01*
X40797619Y-11726961D02*
X40761904Y-11822200D01*
X40761904Y-11822200D02*
X40672619Y-11869819D01*
X40672619Y-11869819D02*
X40577380Y-11869819D01*
X40244047Y-11869819D02*
X40119047Y-10869819D01*
X39815475Y-11869819D02*
X39749999Y-11346009D01*
X39749999Y-11346009D02*
X39785713Y-11250771D01*
X39785713Y-11250771D02*
X39874999Y-11203152D01*
X39874999Y-11203152D02*
X40017856Y-11203152D01*
X40017856Y-11203152D02*
X40119047Y-11250771D01*
X40119047Y-11250771D02*
X40172618Y-11298390D01*
X38434523Y-11869819D02*
X38523808Y-11822200D01*
X38523808Y-11822200D02*
X38559523Y-11726961D01*
X38559523Y-11726961D02*
X38452380Y-10869819D01*
X37910713Y-11869819D02*
X37999998Y-11822200D01*
X37999998Y-11822200D02*
X38041665Y-11774580D01*
X38041665Y-11774580D02*
X38077379Y-11679342D01*
X38077379Y-11679342D02*
X38041665Y-11393628D01*
X38041665Y-11393628D02*
X37982141Y-11298390D01*
X37982141Y-11298390D02*
X37928570Y-11250771D01*
X37928570Y-11250771D02*
X37827379Y-11203152D01*
X37827379Y-11203152D02*
X37684522Y-11203152D01*
X37684522Y-11203152D02*
X37595236Y-11250771D01*
X37595236Y-11250771D02*
X37553570Y-11298390D01*
X37553570Y-11298390D02*
X37517855Y-11393628D01*
X37517855Y-11393628D02*
X37553570Y-11679342D01*
X37553570Y-11679342D02*
X37613093Y-11774580D01*
X37613093Y-11774580D02*
X37666665Y-11822200D01*
X37666665Y-11822200D02*
X37767855Y-11869819D01*
X37767855Y-11869819D02*
X37910713Y-11869819D01*
X37160712Y-11203152D02*
X37005951Y-11869819D01*
X37005951Y-11869819D02*
X36684522Y-11203152D01*
X35999998Y-11822200D02*
X36101188Y-11869819D01*
X36101188Y-11869819D02*
X36291665Y-11869819D01*
X36291665Y-11869819D02*
X36380950Y-11822200D01*
X36380950Y-11822200D02*
X36416665Y-11726961D01*
X36416665Y-11726961D02*
X36369046Y-11346009D01*
X36369046Y-11346009D02*
X36309522Y-11250771D01*
X36309522Y-11250771D02*
X36208331Y-11203152D01*
X36208331Y-11203152D02*
X36017855Y-11203152D01*
X36017855Y-11203152D02*
X35928569Y-11250771D01*
X35928569Y-11250771D02*
X35892855Y-11346009D01*
X35892855Y-11346009D02*
X35904760Y-11441247D01*
X35904760Y-11441247D02*
X36392855Y-11536485D01*
%LPC*%
D12*
%TO.C,J10*%
X48500000Y-89000000D03*
D13*
X51000000Y-89000000D03*
X53000000Y-89000000D03*
X55500000Y-89000000D03*
X56000000Y-87500000D03*
X54000000Y-87500000D03*
X52000000Y-87500000D03*
X50000000Y-87500000D03*
X48000000Y-87500000D03*
D14*
X45600000Y-88250000D03*
D15*
X45600000Y-96750000D03*
D14*
X58400000Y-88250000D03*
D15*
X58400000Y-96750000D03*
%TD*%
D12*
%TO.C,J11*%
X54000000Y-89000000D03*
D13*
X56500000Y-89000000D03*
X58500000Y-89000000D03*
X61000000Y-89000000D03*
X61500000Y-87500000D03*
X59500000Y-87500000D03*
X57500000Y-87500000D03*
X55500000Y-87500000D03*
X53500000Y-87500000D03*
D14*
X51100000Y-88250000D03*
D15*
X51100000Y-96750000D03*
D14*
X63900000Y-88250000D03*
D15*
X63900000Y-96750000D03*
%TD*%
D16*
%TO.C,J12*%
X56975000Y-81750000D03*
X56975000Y-96250000D03*
D17*
X62935000Y-81750000D03*
X62935000Y-96250000D03*
%TD*%
D18*
%TO.C,J13*%
X65000000Y-89000000D03*
D19*
X67540000Y-89000000D03*
X65000000Y-91540000D03*
X67540000Y-91540000D03*
X65000000Y-94080000D03*
X67540000Y-94080000D03*
X65000000Y-96620000D03*
X67540000Y-96620000D03*
X65000000Y-99160000D03*
X67540000Y-99160000D03*
X65000000Y-101700000D03*
X67540000Y-101700000D03*
X65000000Y-104240000D03*
X67540000Y-104240000D03*
X65000000Y-106780000D03*
X67540000Y-106780000D03*
X65000000Y-109320000D03*
X67540000Y-109320000D03*
X65000000Y-111860000D03*
X67540000Y-111860000D03*
X65000000Y-114400000D03*
X67540000Y-114400000D03*
X65000000Y-116940000D03*
X67540000Y-116940000D03*
X65000000Y-119480000D03*
X67540000Y-119480000D03*
X65000000Y-122020000D03*
X67540000Y-122020000D03*
X65000000Y-124560000D03*
X67540000Y-124560000D03*
X65000000Y-127100000D03*
X67540000Y-127100000D03*
X65000000Y-129640000D03*
X67540000Y-129640000D03*
X65000000Y-132180000D03*
X67540000Y-132180000D03*
X65000000Y-134720000D03*
X67540000Y-134720000D03*
X65000000Y-137260000D03*
X67540000Y-137260000D03*
%TD*%
D18*
%TO.C,J15*%
X70500000Y-89000000D03*
D19*
X70500000Y-91540000D03*
X70500000Y-94080000D03*
X70500000Y-96620000D03*
%TD*%
D20*
%TO.C,J3*%
X78710000Y-86460000D03*
X107160000Y-86460000D03*
D21*
X81500000Y-89000000D03*
D22*
X82516000Y-90780000D03*
X83532000Y-89000000D03*
X84548000Y-90780000D03*
X85564000Y-89000000D03*
X86580000Y-90780000D03*
X87596000Y-89000000D03*
X88612000Y-90780000D03*
X78200000Y-95600000D03*
X80490000Y-95600000D03*
X89630000Y-95600000D03*
X91920000Y-95600000D03*
X97250000Y-89000000D03*
X98266000Y-90780000D03*
X99282000Y-89000000D03*
X100298000Y-90780000D03*
X101314000Y-89000000D03*
X102330000Y-90780000D03*
X103346000Y-89000000D03*
X104362000Y-90780000D03*
X93950000Y-95600000D03*
X96240000Y-95600000D03*
X105380000Y-95600000D03*
X107670000Y-95600000D03*
D23*
X76930000Y-89890000D03*
X108930000Y-89890000D03*
%TD*%
D20*
%TO.C,J4*%
X84210000Y-86460000D03*
X112660000Y-86460000D03*
D21*
X87000000Y-89000000D03*
D22*
X88016000Y-90780000D03*
X89032000Y-89000000D03*
X90048000Y-90780000D03*
X91064000Y-89000000D03*
X92080000Y-90780000D03*
X93096000Y-89000000D03*
X94112000Y-90780000D03*
X83700000Y-95600000D03*
X85990000Y-95600000D03*
X95130000Y-95600000D03*
X97420000Y-95600000D03*
X102750000Y-89000000D03*
X103766000Y-90780000D03*
X104782000Y-89000000D03*
X105798000Y-90780000D03*
X106814000Y-89000000D03*
X107830000Y-90780000D03*
X108846000Y-89000000D03*
X109862000Y-90780000D03*
X99450000Y-95600000D03*
X101740000Y-95600000D03*
X110880000Y-95600000D03*
X113170000Y-95600000D03*
D23*
X82430000Y-89890000D03*
X114430000Y-89890000D03*
%TD*%
D24*
%TO.C,J7*%
X12610000Y-91900000D03*
X18390000Y-91900000D03*
D25*
X11180000Y-91370000D03*
D26*
X11180000Y-95550000D03*
D25*
X19820000Y-91370000D03*
D26*
X19820000Y-95550000D03*
%TD*%
D12*
%TO.C,J8*%
X21000000Y-94500000D03*
D13*
X23500000Y-94500000D03*
X25500000Y-94500000D03*
X28000000Y-94500000D03*
X28500000Y-93000000D03*
X26500000Y-93000000D03*
X24500000Y-93000000D03*
X22500000Y-93000000D03*
X20500000Y-93000000D03*
D14*
X18100000Y-93750000D03*
D15*
X18100000Y-102250000D03*
D14*
X30900000Y-93750000D03*
D15*
X30900000Y-102250000D03*
%TD*%
D12*
%TO.C,J9*%
X26500000Y-94500000D03*
D13*
X29000000Y-94500000D03*
X31000000Y-94500000D03*
X33500000Y-94500000D03*
X34000000Y-93000000D03*
X32000000Y-93000000D03*
X30000000Y-93000000D03*
X28000000Y-93000000D03*
X26000000Y-93000000D03*
D14*
X23600000Y-93750000D03*
D15*
X23600000Y-102250000D03*
D14*
X36400000Y-93750000D03*
D15*
X36400000Y-102250000D03*
%TD*%
D27*
%TO.C,MH1*%
X37500000Y-94500000D03*
%TD*%
%TO.C,MH2*%
X43000000Y-94500000D03*
%TD*%
%TO.C,MH3*%
X48500000Y-94500000D03*
%TD*%
%TO.C,MH4*%
X54000000Y-94500000D03*
%TD*%
D28*
%TO.C,T1*%
X21000000Y-122000000D03*
D29*
X21000000Y-124540000D03*
X21000000Y-127080000D03*
X21000000Y-129620000D03*
X28620000Y-129620000D03*
X28620000Y-127080000D03*
X28620000Y-124540000D03*
X28620000Y-122000000D03*
%TD*%
%LPD*%
M02*
